<mxfile host="Electron" agent="Mozilla/5.0 (Windows NT 10.0; Win64; x64) AppleWebKit/537.36 (KHTML, like Gecko) draw.io/24.7.17 Chrome/128.0.6613.36 Electron/32.0.1 Safari/537.36" version="24.7.17">
  <diagram id="WI9T0HZ2pTsCkuznbFz-" name="Page-1">
    <mxGraphModel dx="249" dy="818" grid="0" gridSize="10" guides="1" tooltips="1" connect="1" arrows="1" fold="1" page="1" pageScale="1" pageWidth="1169" pageHeight="827" background="#FFFFFF" math="0" shadow="0">
      <root>
        <mxCell id="0" />
        <mxCell id="1" parent="0" />
        <mxCell id="C84VSm6xdojD2v56TbDM-154" value="" style="ellipse;whiteSpace=wrap;html=1;strokeColor=#D0CEE2;fontColor=#1A1A1A;fillColor=#A9C4EB;" parent="1" vertex="1">
          <mxGeometry x="2084.1800000000003" y="6" width="142" height="96" as="geometry" />
        </mxCell>
        <mxCell id="C84VSm6xdojD2v56TbDM-142" value="" style="shape=ellipse;html=1;dashed=0;whiteSpace=wrap;aspect=fixed;perimeter=ellipsePerimeter;strokeColor=#D0CEE2;fontColor=#1A1A1A;fillColor=#A9C4EB;" parent="1" vertex="1">
          <mxGeometry x="1368" y="11" width="808.84" height="808.84" as="geometry" />
        </mxCell>
        <mxCell id="RLjyjs_sm2IHfBNOWAbh-24" value="" style="shadow=0;dashed=0;html=1;strokeColor=none;labelPosition=center;verticalLabelPosition=bottom;verticalAlign=top;align=center;shape=mxgraph.mscae.cloud.power_bi_embedded;fillColor=#5D7F99;pointerEvents=1;labelBackgroundColor=none;spacingTop=7;fontColor=#1A1A1A;" parent="1" vertex="1">
          <mxGeometry x="1581.84" y="726.5" width="52" height="45" as="geometry" />
        </mxCell>
        <mxCell id="C84VSm6xdojD2v56TbDM-158" style="edgeStyle=none;rounded=0;orthogonalLoop=1;jettySize=auto;html=1;strokeColor=#000000;fontColor=#1A1A1A;" parent="1" source="C84VSm6xdojD2v56TbDM-1" target="C84VSm6xdojD2v56TbDM-64" edge="1">
          <mxGeometry relative="1" as="geometry" />
        </mxCell>
        <mxCell id="C84VSm6xdojD2v56TbDM-1" value="" style="image;aspect=fixed;perimeter=ellipsePerimeter;html=1;align=center;shadow=0;dashed=0;fontColor=#1A1A1A;labelBackgroundColor=none;fontSize=12;spacingTop=3;image=img/lib/ibm/data/data_sources.svg;fillColor=#5D7F99;strokeColor=#D0CEE2;" parent="1" vertex="1">
          <mxGeometry x="1692.84" y="42.25" width="90" height="90" as="geometry" />
        </mxCell>
        <mxCell id="C84VSm6xdojD2v56TbDM-2" value="&lt;b&gt;DATA SOURCES&lt;/b&gt;" style="text;html=1;align=center;verticalAlign=middle;resizable=0;points=[];autosize=1;strokeColor=none;fillColor=none;labelBackgroundColor=none;fontColor=#1A1A1A;" parent="1" vertex="1">
          <mxGeometry x="1681.84" y="17" width="112" height="26" as="geometry" />
        </mxCell>
        <mxCell id="C84VSm6xdojD2v56TbDM-198" style="edgeStyle=orthogonalEdgeStyle;rounded=0;orthogonalLoop=1;jettySize=auto;html=1;exitX=0;exitY=0.5;exitDx=0;exitDy=0;strokeColor=#000000;fontColor=#1A1A1A;" parent="1" source="C84VSm6xdojD2v56TbDM-3" target="C84VSm6xdojD2v56TbDM-83" edge="1">
          <mxGeometry relative="1" as="geometry" />
        </mxCell>
        <mxCell id="C84VSm6xdojD2v56TbDM-3" value="" style="shape=image;verticalLabelPosition=bottom;labelBackgroundColor=none;verticalAlign=top;aspect=fixed;imageAspect=0;image=https://www.apache.org/logos/originals/kafka.svg;fillColor=#5D7F99;strokeColor=#D0CEE2;fontColor=#1A1A1A;" parent="1" vertex="1">
          <mxGeometry x="1697.84" y="186" width="77" height="38.5" as="geometry" />
        </mxCell>
        <mxCell id="C84VSm6xdojD2v56TbDM-9" value="" style="outlineConnect=0;dashed=0;verticalLabelPosition=bottom;verticalAlign=top;align=center;html=1;shape=mxgraph.aws3.long_term_security_credential;fillColor=#5D7F99;labelBackgroundColor=none;strokeColor=#D0CEE2;fontColor=#1A1A1A;" parent="1" vertex="1">
          <mxGeometry x="2101.6800000000003" y="47.75" width="48" height="37.13" as="geometry" />
        </mxCell>
        <mxCell id="C84VSm6xdojD2v56TbDM-10" value="" style="outlineConnect=0;dashed=0;verticalLabelPosition=bottom;verticalAlign=top;align=center;html=1;shape=mxgraph.aws3.certificate_manager_2;fillColor=#5D7F99;labelBackgroundColor=none;strokeColor=#D0CEE2;fontColor=#1A1A1A;" parent="1" vertex="1">
          <mxGeometry x="2154.6800000000003" y="47.75" width="46" height="39.75" as="geometry" />
        </mxCell>
        <mxCell id="C84VSm6xdojD2v56TbDM-136" style="edgeStyle=none;rounded=0;orthogonalLoop=1;jettySize=auto;html=1;exitX=0.5;exitY=1;exitDx=0;exitDy=0;strokeColor=#000000;fontColor=#1A1A1A;" parent="1" source="C84VSm6xdojD2v56TbDM-13" target="C84VSm6xdojD2v56TbDM-73" edge="1">
          <mxGeometry relative="1" as="geometry" />
        </mxCell>
        <mxCell id="C84VSm6xdojD2v56TbDM-13" value="" style="shape=image;verticalLabelPosition=bottom;labelBackgroundColor=none;verticalAlign=top;aspect=fixed;imageAspect=0;image=https://www.vectorlogo.zone/logos/mongodb/mongodb-ar21.svg;fillColor=#5D7F99;strokeColor=#D0CEE2;fontColor=#1A1A1A;" parent="1" vertex="1">
          <mxGeometry x="2024.84" y="298" width="96" height="48" as="geometry" />
        </mxCell>
        <mxCell id="C84VSm6xdojD2v56TbDM-14" value="&lt;b&gt;SECURITY AND &lt;br&gt;COMPLIANCE&lt;/b&gt;" style="text;html=1;align=center;verticalAlign=middle;resizable=0;points=[];autosize=1;strokeColor=none;fillColor=none;labelBackgroundColor=none;fontColor=#1A1A1A;" parent="1" vertex="1">
          <mxGeometry x="2101.6800000000003" y="10" width="107" height="41" as="geometry" />
        </mxCell>
        <mxCell id="C84VSm6xdojD2v56TbDM-15" value="&lt;b&gt;NOSQL DATABASE&lt;/b&gt;" style="text;html=1;align=center;verticalAlign=middle;resizable=0;points=[];autosize=1;strokeColor=none;fillColor=none;labelBackgroundColor=none;fontColor=#1A1A1A;" parent="1" vertex="1">
          <mxGeometry x="2013.34" y="283" width="129" height="26" as="geometry" />
        </mxCell>
        <mxCell id="C84VSm6xdojD2v56TbDM-22" value="" style="verticalLabelPosition=bottom;aspect=fixed;html=1;shape=mxgraph.salesforce.analytics2;labelBackgroundColor=none;fillColor=#5D7F99;strokeColor=#D0CEE2;fontColor=#1A1A1A;" parent="1" vertex="1">
          <mxGeometry x="1648.84" y="726.5" width="60" height="60" as="geometry" />
        </mxCell>
        <mxCell id="C84VSm6xdojD2v56TbDM-94" value="" style="edgeStyle=orthogonalEdgeStyle;rounded=0;orthogonalLoop=1;jettySize=auto;html=1;strokeColor=#000000;fontColor=#1A1A1A;" parent="1" source="C84VSm6xdojD2v56TbDM-23" target="C84VSm6xdojD2v56TbDM-50" edge="1">
          <mxGeometry relative="1" as="geometry" />
        </mxCell>
        <mxCell id="C84VSm6xdojD2v56TbDM-23" value="" style="verticalLabelPosition=bottom;sketch=0;aspect=fixed;html=1;verticalAlign=top;strokeColor=none;align=center;outlineConnect=0;shape=mxgraph.citrix.reporting;labelBackgroundColor=none;fillColor=#5D7F99;fontColor=#1A1A1A;" parent="1" vertex="1">
          <mxGeometry x="1611.2099999999998" y="612" width="48.58" height="54.5" as="geometry" />
        </mxCell>
        <mxCell id="C84VSm6xdojD2v56TbDM-26" value="" style="verticalLabelPosition=bottom;aspect=fixed;html=1;shape=mxgraph.salesforce.personalization;labelBackgroundColor=none;fillColor=#5D7F99;strokeColor=#D0CEE2;fontColor=#1A1A1A;" parent="1" vertex="1">
          <mxGeometry x="2006.8399999999997" y="634" width="55.34" height="41.5" as="geometry" />
        </mxCell>
        <mxCell id="C84VSm6xdojD2v56TbDM-29" value="" style="shape=image;verticalLabelPosition=bottom;labelBackgroundColor=none;verticalAlign=top;aspect=fixed;imageAspect=0;image=https://www.mlflow.org/docs/1.24.0/_static/MLflow-logo-final-black.png;fillColor=#5D7F99;strokeColor=#D0CEE2;fontColor=#1A1A1A;" parent="1" vertex="1">
          <mxGeometry x="1941.3999999999999" y="555" width="84.79" height="32.67" as="geometry" />
        </mxCell>
        <mxCell id="C84VSm6xdojD2v56TbDM-36" value="" style="shape=image;verticalLabelPosition=bottom;labelBackgroundColor=none;verticalAlign=top;aspect=fixed;imageAspect=0;image=https://cdn.prod.website-files.com/605e01bc25f7e19a82e74788/624d9c4a375a55100be6b257_Airbyte_logo_color_dark.svg;fillColor=#5D7F99;strokeColor=#D0CEE2;fontColor=#1A1A1A;" parent="1" vertex="1">
          <mxGeometry x="1485.59" y="351" width="96.25" height="38.5" as="geometry" />
        </mxCell>
        <mxCell id="C84VSm6xdojD2v56TbDM-40" value="&lt;font color=&quot;#000000&quot;&gt;&lt;b&gt;FRAUD DETECTION&lt;/b&gt;&lt;/font&gt;" style="text;html=1;align=center;verticalAlign=middle;resizable=0;points=[];autosize=1;strokeColor=none;fillColor=none;labelBackgroundColor=none;fontColor=#1A1A1A;" parent="1" vertex="1">
          <mxGeometry x="1825.6999999999998" y="604.5" width="133" height="26" as="geometry" />
        </mxCell>
        <mxCell id="C84VSm6xdojD2v56TbDM-41" value="&lt;font color=&quot;#000000&quot;&gt;&lt;b&gt;CUSTOMER &lt;br&gt;PERSONALIZATION&lt;/b&gt;&lt;/font&gt;" style="text;html=1;align=center;verticalAlign=middle;resizable=0;points=[];autosize=1;strokeColor=none;fillColor=none;labelBackgroundColor=none;fontColor=#1A1A1A;" parent="1" vertex="1">
          <mxGeometry x="1973.34" y="597" width="132" height="41" as="geometry" />
        </mxCell>
        <mxCell id="C84VSm6xdojD2v56TbDM-44" value="" style="shape=image;verticalLabelPosition=bottom;labelBackgroundColor=none;verticalAlign=top;aspect=fixed;imageAspect=0;image=https://cdn-icons-png.flaticon.com/512/11094/11094214.png;fillColor=#5D7F99;strokeColor=#D0CEE2;fontColor=#1A1A1A;" parent="1" vertex="1">
          <mxGeometry x="1862.84" y="630" width="72" height="72" as="geometry" />
        </mxCell>
        <mxCell id="C84VSm6xdojD2v56TbDM-50" value="&lt;font color=&quot;#000000&quot;&gt;&lt;b&gt;BI TOOLS&lt;/b&gt;&lt;/font&gt;" style="text;html=1;align=center;verticalAlign=middle;resizable=0;points=[];autosize=1;strokeColor=none;fillColor=none;labelBackgroundColor=none;fontColor=#1A1A1A;" parent="1" vertex="1">
          <mxGeometry x="1598.5" y="702" width="74" height="26" as="geometry" />
        </mxCell>
        <mxCell id="C84VSm6xdojD2v56TbDM-51" value="&lt;font color=&quot;#000000&quot;&gt;&lt;b&gt;ANALYTICS &amp;amp; &lt;br&gt;REPORTING&lt;/b&gt;&lt;/font&gt;" style="text;html=1;align=center;verticalAlign=middle;resizable=0;points=[];autosize=1;strokeColor=none;fillColor=none;labelBackgroundColor=none;fontColor=#1A1A1A;" parent="1" vertex="1">
          <mxGeometry x="1586.34" y="567" width="98" height="41" as="geometry" />
        </mxCell>
        <mxCell id="C84VSm6xdojD2v56TbDM-52" value="&lt;font color=&quot;#000000&quot;&gt;&lt;b&gt;OLAP&lt;/b&gt;&lt;/font&gt;" style="text;html=1;align=center;verticalAlign=middle;resizable=0;points=[];autosize=1;strokeColor=none;fillColor=none;labelBackgroundColor=none;fontColor=#1A1A1A;" parent="1" vertex="1">
          <mxGeometry x="1608.7899999999997" y="491" width="51" height="26" as="geometry" />
        </mxCell>
        <mxCell id="C84VSm6xdojD2v56TbDM-53" value="&lt;font color=&quot;#000000&quot;&gt;&lt;b&gt;OLTP&lt;/b&gt;&lt;/font&gt;" style="text;html=1;align=center;verticalAlign=middle;resizable=0;points=[];autosize=1;strokeColor=none;fillColor=none;labelBackgroundColor=none;fontColor=#1A1A1A;" parent="1" vertex="1">
          <mxGeometry x="1840.84" y="268" width="49" height="26" as="geometry" />
        </mxCell>
        <mxCell id="C84VSm6xdojD2v56TbDM-54" value="&lt;font color=&quot;#000000&quot;&gt;&lt;b&gt;REAL-TIME&lt;br&gt;PROCESSING&lt;/b&gt;&lt;/font&gt;" style="text;html=1;align=center;verticalAlign=middle;resizable=0;points=[];autosize=1;strokeColor=none;fillColor=none;labelBackgroundColor=none;fontColor=#1A1A1A;" parent="1" vertex="1">
          <mxGeometry x="1748.84" y="357" width="98" height="41" as="geometry" />
        </mxCell>
        <mxCell id="C84VSm6xdojD2v56TbDM-56" value="" style="shape=image;verticalLabelPosition=bottom;labelBackgroundColor=none;verticalAlign=top;aspect=fixed;imageAspect=0;image=https://cdn-icons-png.flaticon.com/512/8071/8071255.png;fillColor=#5D7F99;strokeColor=#D0CEE2;fontColor=#1A1A1A;" parent="1" vertex="1">
          <mxGeometry x="1769.99" y="397.28999999999996" width="55.71" height="55.71" as="geometry" />
        </mxCell>
        <mxCell id="C84VSm6xdojD2v56TbDM-61" value="" style="shape=image;verticalLabelPosition=bottom;labelBackgroundColor=none;verticalAlign=top;aspect=fixed;imageAspect=0;image=data:image/png,iVBORw0KGgoAAAANSUhEUgAAAUkAAAGMCAYAAABXr1CvAAAAAXNSR0IArs4c6QAAAARnQU1BAACxjwv8YQUAAAAJcEhZcwAADsMAAA7DAcdvqGQAALU6SURBVHhe7J13nB1Xeb+f95yZuXeLumRbcpN7r9gY7IDphGJ6x4QSSighgYQkhBZIMIRfAqGGZkpCGhBCM92YYmPj3nuR5CbL6tpy751z3vf3x5m7Wq12pZW0tnelefy51u7ePuU773mrmJlRU1NTUzMubuwfampqamo2U4tkTc0eQXfBONmF42Qft/sj9XK7pmbmkE5XRUTABEQwAxNDumeyCGLV3YCh6c9Ier5Iei3AYsQ5QUgPNus+p/pXhPTo9P/Nn4H0GfYAapGsqZlBKEasrDwPOAw1w3A4EbCImaZFonOIdSWvkr3RAokkkRSpJDTdbchmu7MS2j15yVmLZE3NjEJBAyYelcoyNMOLIOI3m4BbMN4fR2QQM0NxgGAYzgyR9BsiqEklpHsmtUjW1ExDtr2k1VGilx7XLo2NrcCGdmBgODBYRko1YjSiRqIaToQ88xRZRrPwNIqc+YUxq5nR38xxWPXavnrtWOmr387n2b2ZViK52V0y+iON2ilW/W+L/bTn7bSa3YW06N28mDUUqQ7xdJx3PYIAIUbWDLZZORhZtnqIWx4YYNmaQR7YFFg10GH9wDADAYajUgaIakQzzEBFcIATyFAyZzTzjGbeZE6PZ0ETlsxpsHh+P0fOzzho77nsN6dgfk/O7N5iC2t0lFtz1Lla3Ydh3aX7lnfNWB5xkYwh4ny6hnX3g2CoKs45TBXnZdTVDWJUQgyUGhkcGGZgcIj2cJtOGbDpukPMyJzgfZa+b7XV98AL8w7RtVy6h2kMgTJGbArPvK2sJDMM8D5FMoaGh1m0YB6HLD1gizN+560qw6wkkuEsLXRL8XgzxGklMZ52jDywoc1l96zjynsHuf6eAZY/sIl7BzpsbEcCDtNI5gzvMpykzzR2aSwj/0sBnPR1k3gaDrV0vqmmpbdITlF4FvZ4li5ocsSSeZywuJdT9uvjmH2a9BYZInl6DQ2o+EoUI4hDTaptEzAcXjafuzORR1wkRw5QQDXgRIg4nHMjh2MIgWX33c9dy+/h9jtWcNfy+7j3vpWs3bCGwcFhWsNtYlRURy9Dphfp+kr6XuIq53rN9rDqGBFAnEv72DZbNVOJuK6PL0V1gxqd1iCnn3Is73r7n3DMkYdD9/PsgEBu/XhDNWBqSOYQ0g1gfavD9fdu4rd3bOJXt6/mlvvXs2ZomJZ5vCvILeKdoT5PNqhFvHOYjfrsW6zERrP130XS+6ZoeWUiSpugjmgZMShoBGf0NRosnVvwmIPmcPphe/OY/fs5dGGzeiVPiSIRvEY0E8AQHK4WyV1DDQSFrmhIEpGh4RY333YXv/ndpVx+9Q0sW3E36zdspNXp4LxHnMNXj3XOpTjfVgfjNGKURWRUn/MR3fIzB6kCFCIp6pqWcVO78UQE1fSazgkxlCBw9kufz9te+1Jm9fducXztzLE22mKNFvEiYMq6oQ5X3N/iFzc8wAW3reWWVR2GQkCIuLyfHivxWqLiieIwCag4xAxXBV6ga71t3l5jGe/zbvU4AaxKK0JwzsAiUgV3OkGxaOSZsHe/55QD5/L0oxfzpCPnc0C/RzJP25RCPYhgwlaW7UxjGohklXBgiriM1esH+PkFF/KjH/+M62++jYFWB/ENMufxXiqt0XSmjF5bdw+UUa89nTCsugCkTxhjRGTzgV0zOUasyrF37ALpBKg8aSIMDw2xeNFc3v0Xb+cPn3xGuneUwHV/n+y+6z5XVfG+sqpi5IYHh/judQ/ww+tXc/29AwyXHVzu6c1zrCzBGyYl3nrBPNGVKJHMMhi5WEg6h6YoRyddxH1auqviK8GNLkMRTAynJQK0zBMiSDQOmON4wlELef6xi3nyoQvo6VEihphUVnL33J15PCIiadXOcNL9zbF+0wD/94Of8u3vnsdty1chPiPPHN6BmY5yB1PlfoF2z5bqG8ion6cjI9bQDpxgNVtaQLt6uJoZzlWW0sjPEbW0LBwa2MhJJxzNB979Do49bClY8quZuC1yBSfah+lSXf1ULdvTsZ7+2irhojse4N+vWMX5Nz7IykGlyJTMRXANnEWcRhBPlBxvRpAScYKox9TApdfGDBFfBUuqBPNdtSQhvb5SGR0etSotiBLECJJh4sks4DUQJSeYoywDWW4ct98cXn7SfjznmHksXdBXbZFY/euqc1SBiEk+pRe8h4KHVySrA9NEMQMvjhgjv/7dFXzuq//BVdfdStEoyLyfsVedmulNV0A2X7AUEUPJ6Ay3ePbTHse73/knLJo/b0Ih3BZRI1AiViSrS0DEs6k1xE9vWsdXLrqPi5atZ7gsaRQ5mU9+1h19n2mJOCR2CFEZip7DFjV5wUl7c/ap+3P0Xs3K6hWMgJrDiyF4ICCSjVxephsPr0gCqhEhIK7B2o2DfPJfv8b/fu/HRDyZz3GSrorTdHvVzHC6wrfZ2hJiFKIO8bqzX8Tb3/hamlnybzOB9bUtQhxGaYBTCjEGg/D9a9fx+Qtv58Ll68kUerIc8el1U7AxBfQe5lNxijECDTClh2FKckpVYhlZPKfBS07ah9c//mAOW9DELBDFIzHgnaD4tE/GvuQ04WEVyfRO6SC97c4VfPCjn+Tiq6+n2debnMHegSYrszYla6aatLxOqxfXjZQjoMafvfXVvO5lz8NLKvHbUXGken3DcBIJIfDj2wb4zAXL+d3ta4FIwxWUkhOyEh81+VZ3I/eLs4g3o+0KVBy5tTBzBDxlUPbrz3j9GQfwqkcvYb95PUQNyYoPEe8LxE2RY3WKeVhFsuuxufCya/jAOR/n7nsfoGg2SNtG0Kg4N7PTBWqmNzrKPxhVybOM9/3Fm3jhs5+GRQWXIug7GpFNQgcgXHfvRj76y7v44XVr6YRInhkqnsKM3CItVwXsRp15M10oBYgIJin3UzQQXY5zJT6WmBUE8wxq5Mi9+/irJ+zHS09YTE8zox3bNHw+bSvEH0KR7L5sN39LEef5zSWX89cf+EfWbhymp9mDhoA4UDW896QsjDqHcE8lXUanBqlS/xhlRYoqASHEQH8z40PveRfPfNLpmCqCSwV/buvPkF7GEGIVfBC06rYjpCTq1cPGFy9cwed/fTsrNwX6GqRIMQ51ERXDYje5Wnd8SV/lQIpUNdV0I8cpTQccjpQzmTJA0qps88tX74eMRD1FAlblJqd7BFet5KIZIppS9CYhYN22GAZkVbJ6xwqcN5y1iXicGcGUVgw848gFvP8Pj+TUA/pTsYgCEqv0pukTl3hIRbJ7dYxR8c5x2VXX85fv/TAPrh/AZQVupG6ppmazWExlIGOz73EzUY3enpxz/vbPeeoTzpiUWKXrfEo9U5cqpjJTzCkOx/m3reOjP7qF3925DvKCPEtCuoW5uKsIKR8YktFhVfqcJHGH1C5NxDDzlQhWgpkcAWBClIhJirxnmvIfRYQMxVmk4wSnSUhTClBEUyrKlKDi8aHNsGbM7nH82ZP25Y2nH8zCnhwl4KIQBDKXKnkeaR5Ckax8NFbiXMEdy+7jre94N8tWriYrGnjnsconka58NTWbLT5GBTW2JV7bI12kI947VCGYo78wPvqBd/Hkxz8W02QFdh87IZWvPEiy3DwBB6xvKx//9XI++5vlbBqCZiPDWZgyn3rX0BCp8iEtVbFoNzpf6bA4lwTcDCUiKohJEna0qmTzI7ZnhiGmqE/pTZttQMPU8FXwNDhPxJNbHPvRdh4NiM8IERBHp1Py+EPn8I/POYaTD5hFiIYj4Pz0iHg/pCIJELVkuBX4s7/5B357yVU0envBDLOId2k9NJV1uHsik7GEZgpTbU12RVdVq6W88tH3v4tnPeVxoBEbleC/bVJytDNBtARfcO19Ld71nRv45Z1rafhA4RuEqKmyr/u0Sb32dkgfPFH9q5Z6GERNN5I9iMdTZA3y3PDeyL3HO0c61Tp0YqAdhHZ0BAMtAYsoihNwWY6THCeKVL0pva9asE0RpTTJtUVGSUc9WeYZ6AT26c35u6cdxKsedwC5jO5vMAXbcBd4yEQyWZHpAP30l77Op770DXr65qKhQ+Y9sWpgodYt6K+ZLFY1eogxJdmPiORusB29d2R5PuJMFOc2OxZ3EBEZEVvV5AP80F+/mRec9QwsRqgstMmdhEaISuZTwOe/rl3D+79zE6uGOuSuwAgpMV23LATbVbo+RTUjqlJGAyf0e1jUm7PvvFksnt/DfvOaHDi/jwPmFezV45nVgCJzeOfwLh0ZqkI0oWPGxrayYajNyk0l963dxIp1wyzfEFixepA1mzayrg0dGhQGDQzNp/BLqRJpgodMWgT1CJ4YhzHLeP0pi3j3c45mcV8xLQJaUyaSW1kzlqoGrrrxdt7wtr9mqOzgnKfrZTDTzR7yKfkEuxeyhS8ttSxQEyyWiCpLD1jMAfvvT6PRGNmAU7MnH05Gm0hGGSL33L+SO5etIASjkedJILqPHVkWdkvyto0TRXEENQht3vm2N/D6V7xgpMMUo0RoLGlbph7gao6MEsTTifDhn93Gv5y/giCaBLJrOVqKjm9/RyRfokoGZngLGJK66cSAZFlV5RJoBaXUgp5MOHRBxkn7z+FR+8/hyCVzOXhezv7zesi6pY7bZWTrjfpbN0iatse6wWHuWhe5fdVGfn/3ei6/e5CbVw2yYSCABjIv5HmOiwZmhMwwIt585QcFEU1Vcl03xsh7JYSIOCGq4MwhpoiLBJogkeGhAc44eG/++SXHc/KSAjMZ8ZvK6B1myWqfTFBpV5gykezSvXILRicqb37nB7josmvJco+vWsPXbJvuhaa7a6yKaoayzaknHcdrX/FiTjnpWJpFavTR7eQy4642ozTSDNSUMgSuuvZmvvHN73HBby8lbzTx0n1gykOcvM2sKEJreIjXvuKF/O2fvyn13rbtLOHMaBl4iWQRVAzvc1Zu7PCX37uBb132AL2F4lxB3MbLTIRV8tswRS2j9BmqJc2qccVQ6VFVZhXGSfvO5klHLuDxB83m+P3n0ltkFN00OQsgPrUmG2ffj2d/pEeO/WsibZIqNUkAAsOlcd/6Fr+7fR2/uG09Fy4fYMWajfjMYU4oxNO0EhVHx3IyZ1hMGSubq+zHf7+JMINWWXJIv+djLz+JZx89FzOHqaTVZ/V6TqoHT1Xh+gRMmUiOtiS7JvJPfnkhf/HuvyfvnU2IoYpm78RRtQchlSEyepmhCqHT4tUvfx5/+oZX0d/XAxgaI65rRUxkEs0URvmmRaDdifzrv32bL3z1v3DiyPOcEMpUxmdVEvh2UHF0hod42pPO4GN/99f0Fm7kxN2WSJqBaZvoPGKezBk3rxrmLd+6ngtvXUtfb0aMGSJxEp9ifLwK0aU0HYkp/WiDFvRLh6P27uNZxyzgmcct5rBF/cxuZkAH8MkG1dT9JyUYd8crjH2HnSedy4Ka4p1VIpcBkWVr21y4bBPfv3oFF965ljUDkGcFuUt+zdQGMHVSUq1caTv52VrqmJ0J/3jWQbz6MfuDRsRVtd4OzKqL5U6+/mSZMpFklFCC0epE/uSd7+WSy68lb/SAJMfwlDpsdlO629FVic3DQ8M875lP4SPveyeZr0o7XYr8aZXyMVnbajqjaQWHaAfvHUjGh//5s3zjW+fh8gbeudS2a5wVSRK9ZCVCOq9bZYdjDz+Iz/7Th1i8aB42st22jUFqJGEB5+G6FUO88r+v47b7NpA3m2BG5pSoWZVDuOM4K+nQixiEcoiip8mzDpnNy07dh8cfvoi5PUV6oEbiyJwZEEuRaqjcD9uzincCtRLFgzicxdTko2rwkVYtKZBz3T0b+Z8bV/GtK1dw18p2EktfIi4jxtQ8ZJewDhqhdLP4wFOX8BdPO4QM0BjxHswmG3TbNaZEJMe+hIjwu8uu5k1/8QGQKl/LxXQWPMT+g5lO15JMPwudsmSvBf18/fP/wtIle4EqJQ4vUvUS3Gy9M43rXydL0JDqmEk5eqseXMur3/xOlq9cg7gUdU1JONsWybIsmTdnFl/4l3/guCMOQWOJOY+fxNLMgFIDhfNcsmwDr/v61dyxsUNfllOakosRiKS20Nt/vfHQ6CjjAHP6Gjzr2P14y2P344T9+sh8miejKjgXiTh8ku20r5HNEXmj+rRTK5TJZZa2slXO36DJ0s/odu/avDx/YEOLb1+7iq9eci/X37uBLM8xMYrco2FnA7OpFbFVohgs8mdPPpS/e/pB5N4nfySbpz8+lOzcHh5D9wDtYsCPfvYrhoZaeCeYhsqCnJK3260ZLZAAZafkqY8/g6VL9sbMMBG865bAbX6cVBHMGcXoDyzpljmHE4dUfRL3WjSfpzzxTDrtMjWpRbYSSEhWhVlMgQj1IPA3b//jJJAaEZ+Nf7KagUY0lkRTAoYSKFzkkjvu57Vfu4Y7NwaaTpJvEsVQPD5ZW2MQAggonpSCmRFJoh9xKJ5OqTQK5Y9OOZifvuF0zn3pUTzqwCaZT4EcEYfzIOLJRJKhIRkiHnF+i5JJkanv05j83El/un3TCxEaAt75NJVRXLXmhb3n9PLWxy3lvLecyD+/4EgOmt9HUOiUJepSZZBTw1yOWkjW6XYxgqVjQhzkXvjEL27nA+fdRrs0LEZUSsqxT3sImCLVSlaMVTvtwTUbuPiyK2k2G5Vf4iF3G+x2WJVC5bOMR510YvpjJRIpobj6ffTG7f48U26jP3OXytJzo1xZjz7lJPKsaz2MefwIKVsiGLTbQ7zyBc/imU974oh/Tdh69kuXCESX4WIHUcNjXLJiiJf+2x2s2FRSOMVL1T1fJPWX3Fz7sgUqWWVxRRo+IqFFTgexgMQSOsM8/cj5fO91p/CvrzycEw4sKBGIjfQCIxHhzRtq5KfR4shoI2r877WzjHmXdBO3RYBk5FNJ1b3IjL36+njr4w/ml287kb97yoEsLBoMtRyFdYhCakvncqKrXAnbwVVR8nScexqZ4//98g7ef96NqSRTc/K4c+6OHWGKRDJFzLpW0BVXX8t9DzyIr5YOUpVxTfG+3O0xM4qiYP78+en3USfKWBfH7syCOf3M6m1iVa7jeH5tsYjhKEPkxGMP422vP3tk6brNNmQiOEnCGH0D74wrVgzwx1+/lgcGSgqJmC9G0lm2h5HhqvSdjgnBZZRS0ArCvvNn8+lXnMR/ve54Tj80RWyH1RPNRqXizDykayAZRIVF/Q3e/YcH8X9/ciqvPG4uLe0h4CjiQEodqsZk7CiCZ67r5RMX3c9Hf3E7JhC3NuannMnt+UkguBFH7WVXX0ep6UROy4Gq0elObpw9GVWlLKtFhaX/dbfpnkIZlXYZNh9L41lwJENvXm+Dd/3ZG5k7ZxawpUCOJ5QKybtoRmZtbl+1kT/+71u5ffUwjUxwXsjDIMkTun0cirNAEE/peykj+FDy2lMX8eM3HcmrT11MkeWUdMCEBp4GSnSTWYJOX0QEJOIlEMURreDk/fo5949O4CsvP4wl/Q3Whx5w4GTnvqsJlAXkUvLRn9/L5391d9XQY3NBxUPB5Pb89qjMbQEGBga57vobEV/gXPKXdMWyZnKM3umdToc77rhj1H2b/ZZ7CrfcsYzhdoDuBM1xNoCKozU0xB+/4kWccsIxmClpsOJmgRzvRHJUc1gc3DOU8cf/fTs33reanoYHLSkln1REvIsaqdxPhLI9zEH98PmXHcUnX34cBy6YjWqZxsBqqrs2kmCopPDMTMYstUtTS12JNAZyL7zkUXvzozefzIuPX0i7bNFWdmpZaWKolfSroN7xnh9dy/9e88BDri1TIpImUpk5yur1G1hx7yqKarb06OPyof4yuwPJYZ4spjQ0yvjVRZfQDsnhLVSVN1g1ljZ1eNkdboYSLRDUiApiRozKr397UaricN0OOKnRAxZT7q1FQqfktFOO52UveQ5mATGpLtKbbyl3r6QFEFtoTKWGCLRD5J3/dzOX3TlAfzNFj51LKTClZOP6H4W09C/FYaQ+lSaGqBHaJX94+EK+9ebH8rJT9icjAxOcy1Lww+U48TiXgcvIq1j5TEbE48TjSeWQznkwRydmHLYo5+tnH8PfP/dI+ouSdqkEKxDpuhm2/+3FwBt0XEbDKcPqeee3ruNXt69DRCktElFUw9in7hJTIpKbEe67fzWbBganNLl1TyJdWJLVY2Y0m00uu+p6fnbBReCy1DmJUF18HKouna4m1YE2824jF1NzOHU4DXhKcI4LL72SCy+5giwvRq4HvhJLn+UEBRNHf8Pz9je/ljn9fZjaSM5ll+4F2pyQm4HlKf9QIt4C//DTe/jBFbfTbECwYkS601Yeb4GflvfqjB7rkFOiplhwlN7z9sct5T9edyxH792LWRL8Lb93Ovk2/7Z7IFXQDbrh8RJzkbZlFBn8xZmH8I1XPYZD5guiA0jwIKnhzWSwURVDPXmDBwfavPOb13Hn6mHyqn+myeQt/8kwJSIpdCNtwl3LV9ApOyMzPGp2nO4JHWOyHE1y/t8nv8jVN96B+Dz5fi0iWJqL3D2lu2ozQ26mmprdVpZhqve1ZB26nJvuWM6H//lfKaPD+xzVWJVGp2yKEMG5jKHhFi97wbM47YSj0kXEJV/i1gsXwVmGWCA6wRMpnPHvV67hE79ZTtbTQxslG1cStyZmniwaUYQ2TTplzuys5P8992g+9LzDmZ0ZjLJq9sSVlJmjoY4iGkFAY4unHTmXb//J6Zx44CI2BsWipLSiSbDlNjR6mgXXri75s2/dymAnkAl4m9og2JSIJGy+7N57//0pVWByx1nNGLoWZHe5Z2Y473hw7Qb+8j0f5LzzL2S4k8QhuTnSLTnOZ9ZNnEtdfqqbq5ZoJZ5f/vZy/vyvz+Hue1eTFzmmmkoSK7+fVYZZKIc59MDFvOplL0wHYVWFohrH9UGKAs4RUZyDq+8zPvCDmxFrI5qnRhaTPMcyNUoHwRqECAf0t/jXV57AW87Yj5xA0Dx1/JY91ycfxBM8iIs4FYwegsGRCxp884+O4XknLaRdjjLbJ4FUXZ1UlagwJ+vw89s28tGfr6jaxu3Ai02CKam4AdJRK8Jff/D/8e3zfkFfT+/YR9TsNIqZEDTiLHLao07iiac/ioMOOpCiKFDtliVObskyXegmd6dajtTB/s7ld/PbS6/mot9fRhkieZZXApNSzFyWpVlIOIIqWg7yoXe/kxc/9w9T44OqrNs04Fy2hTgZYBbAPBKV9R3jpf9+Ob+5ZS09uUO0SVlEsqDVBWgcrNtQwcAU74WBtnHobOFfX3UMjz9kcbrIWQomKYonJWfviVg0VMAceBOQQLQI5GQYg63IO79/C/9x6b04v2Wi/HiMDQJb5a7xsYNkni+cfRIvPm5hZTykK2nX0bGzTJlIpvnFjj/5i7/j/Asvo7enSFf7minFzOh0OoCRZZtFQKrzd0bRPXK7R7GlKg2ARrOBqxKVx54YjuSHHG61OfXEo/jSJ/6e3p7myP0TYRimJUaOd8KHf3g97z//HvqLvArCVA618TakOIgdnEDb9+HjMIJRlsoh8xp8+dUnc9qBsyu535VTcjej2rebhSptZzMZmdXTKTu88/9u40sX30VW9NJjQunipNrhdaUQUQaD4/gFOd9+06kcNK+BWsScR83IJHVl3xmmbLktkpqRDg0PJ/Ue70Cr2WVEhEajQaPRrCylqlWaOMSlsrUZc6s+e/dn5z09PT00m83qRErH0NilquIIIdIsPK85+yWVQE7meBNUMjwlv7h1PZ++aCW9ns3P3caVxgzMpaTyIgzgXUYsA/stmMcXX30qpx3YT1QbN9F9j6baHJu3SrL8xFWiARR5wTnPP4rXn7aU0FFK6ZDpJFdFkvJcXYS5mXDNymE+/NM7aJkgUmDRkWmLuAv7ZcpEkmoCXavVSh1cah5SNp/LMuo20xj9udO/qiklp+uPHe9iq0BZdjjj1BN4wmNPwbScUNy6pCVwqnlfNxz40I9uZv1wRHzVems7OBQsEvGYeNpBmN/bw1fPPorHHtiHRnDV69dsG3GbjajuPp6dB/75eUfwypP2YlNMNe5pobwdLNXTB9eDKfQUjv+48n5+cM39iBiZBpSeqifpzjGlamZmUzabpGbbVLGP3eqWvldVnTUSvBrvWDIauedVL30+uU+Wyei64okwBA985rf387s7V9FbTP7EMYNcDDBaFCySTXz27GM5Y+ks2sEQMULV7bxm24ze6tKtoopG3sz5xIuO4DkH97Kpk0bdbh+H0whitF1Gr+tgKnz458t4YMMA6oVAGv27s0zZXjVLOUrp5134RDV7PKN9R+MdSp12izMeewqPftTx1cgEP+7jElVWnSUhu+LuTXz5wrsoGr20XINskukiWvXuxBSvHd793BM466i9iAiFRKJ4XDXuoWYSVAI4slqQDCEwp7fgky85gVP266dTpqxIusK6lWha6rAkGYUNYEQ6VlBkObfev4l/+u19mOu2dpvk8n0cpkwkU/85wfD1iNiaKcSlWdKkCVuqSrPwvPj5z6pmuzgcVRBgLJaSlKMpZpHS4J/Pv43Vm9rkWUZDS+I47c7Gw4liAsOl8dbHHcDrTj8AsDSk1Rdk4vAyuaX7ns4WTpZuRRSCxgw0cuDCPv7lpUezb58jhIBKalKsVWxt9Cs5IiZGoEhz0MXhpSTPCv7jwnu4fPkAuUu6tLNMmUjW1DwUdJPHjdSXsBOUE489kseefFyamb0NVAwzh1dwPudHNz7Ij65fQ+yZRdSIVAn5k8JgqPQ887A5vPcZh5C56o81U4K5CK6qZA9tHrP/XP7u2YfjyTAKxBy+ajq8PaJl4CPrhkv+6fx76IS4Sy7AWiRrpjVJIDfLkXfwwuc+k95mUeWPWmoUMY5emaWRu+Jg7bDyuV/eRsuETNvkkkYS6CR8mQBlhP3mNPjYS05kdp7mC+1sy6+arRFNKToqHvU5ZpGXnbofrz19CZ3WMJ2sB5hc1rmzgNdI0ZPz4xtXcf6ND0B1LO0MkztCamoeIVK6SKrX1dDm8KVLOPMPHoNRJXxL19849plpIZ78XY4f3rSaC+/aRK+HBhGNYC7HTeLEUSB3xkfOOpAjFjaJmpZu1p1aWLNTbLHlRfCkOVjRHEEFL/D+Zx/OaQc0KduD6CRLF70opeWIdSgxPvXrFQylhvE7RS2SNdObykr0zlGGDn/45Mczt68Hw6E2Kiw+DsnKNDa2hvjKr28hWo5KTpAcfAPTNPN6fIzuUMZ2O/CKR+3FWScvAevgnMP7Saao7FF0O1NtFkCjqiGtrO7YfUzV0QpLUxajaOpHaUoGZDhQZV4j48PPP455RVY1c0l5smnWefJTjyVYlgbmWUbuHRct38jPblyVjpUqwGxUV+BJUItkzbTGSNMBQ8eYO38+T3ni44BU9pc5n4IAVdBwLCqQu4wf37CW3987SI9PJ6VgaZyCGHGctB0jDVnzorRL5Yi9M/7m6YfTg8dIZZKbhyrUbCaVahqpsCS18zOiQTQlhlba7sCaVuSe9cOsGuoQtYM3A3IQn+Y1eYeKoRp53EHzeePjltIOodp31dhqDGzrjj8iVQoZgrdIOxpfumg5A+0AZkQicXL6CLVI1kx3uo76Ttnm0Scfx4H77ztpCyAjMBDh3AuXowhBUjR1eyQL1CHaxvuCdz75EA6Yl0bJ1mwDk9Sg2MBLykpwdOgQUe/xWcF9m4yP/XQFz/js1Zz+Lxdxxscv5n0/uJfBztgXI2XKiANT3n7mYk7cby6bgpFrh1yVNgW4iVYCmxcZjcxzwW2rueT2tZjzlQU66gHboRbJmmlNN7KdOeEZTzyDIvNUY9C2STf37oJb13Dx3QM084yMcmQ5uC2cKJCxqezhCUfM4hUnHoiSBlJNRmT3WKRK7Le0xFYzTAp6HGzYNMhnfnsfz/jcxbz757dw072r2DCo3L8u8IVL7+aBTe0xL2Y4S3X8wYyF/f28+8n7kYtjyDcxSA1+bezztqRbkBDMc+6ldxNDSHkSEiYTA4JaJGumO04gxMi+S5bwmFOOr8Io2xarVK0DbfX858XLaKkgGoneT8p4EBydUpnTD+990lKKQtKY2pptkrRREZfSr5xztEvhPy9fy7O+dA3v+M413PlgSU+e0ZsLZBkeY//+yKzG2GWzYKTO8E6EjirPOnYBzz18Ni2NVes1hUlMXjQzGplx/m3ruea+AZxkSOoZNSmmrAsQGMPtkrPf9Fdcf8tdNIop9NmYUpaa0i5kMplSNbsLIsZwa5iXvuh5/ON7/xRVTSMPxmBVZY0zRXE4gWvvGeYPP3cxgx1DvaHiyGwcO1QsjSg1EFOceDZ2lDedOofPvPRUVAJeskkvz/YEkmgoQsTIgRRISdajwyNcdNc6/t/5d/LLGx8gWE6j8CklyyBQoL5F2e7wxscu5dMvOmaLzWuAWop2iwYCGZlzXHrXBp7xxUuIIWJZEwvg3Pirg5ELqYGK0h423v6UpXzsrEMIMSK+mFSK+bQUSakimoYQQ8mSvRfx5295Lc1mUTlku6b9FH30mmmMQ4NyxOEHcuCSfajkrArWbMbSghinESXDO+UjP7mTv/3pMhbkJS3fJA9VPfAWYlcFG8ThLF2A2wJzMseP3nwSJ+w3D9WAd36nj+fdETMlYkQzvDhMjQxDPKwe6PDpC5bzhUvuY91QoJH7Lca5mEFmRls8fXnJj9/yWE7ed3a1Ahh/G3dXB6jw2v+6jm/8/h56ezIqD+P2MU8ZOxyysMnP3/YY9u7zqMsmtZSeliJp1axkNQhlh0OWHsC3v/IJms1qgHvNHohVFTaWWv1vJZIRM5fuxxgsA2d++lJuuK9DXrTAZtPQYYJseVyKCBaMrCo7bKvQjsLrT1vEZ152PM6SBeqqTpE1ic0zhDTVsztAPBfcvo73f/96Lr5nmFnep0tXd8plF/OYtBlsG+994qH83XMPTfmwEwhkF7NUOXPRso2c9YVLiR0hjbPZ9vMAVHLESkJZ8pVXncJLT1qU6v4nUUyw/Uc8AjjnUsssozophE6ncrRqfduTbhrTvHYzIZhDJR93BraYS3+11KPyojvWcdfKkn4EiQIa6YzjhTIgekGd0PFCLBwLm8ZrTj8Qjyb51SQENZtxRJy1ERG8h7Vt+NBP7uLl517OpfeX9GaGecO5tBTvYpYCMgOx4NT9ZvPWM/efVCAOQEwIUTll/z6ecsR+DGkHZfs+SQA04CgpTfjR1fcSYgk2uYYkWx9t04Cu2e0zn6KbZigRRDEXMQngIjitb7v5zfnK22iGdw6R1M1nLNEEs4hzKVn5pzetZ6gMhDziXRPvOpjLt7IGUx5mBM2I6rDWIE86fC9O2X8OwQQxTX6r7dSJ72mYeKLLcAKXLlvPS790Gf/wkxtpR0/mC5xvoCoE0a0ksO0ci12bv3/2kSyamxNDuV0rEgDnMBEaPuPVpy2k1xcwYTHAlmRAtJy8KPjtHWu5a20bXNY1h7fJtBRJUld3YujOKaHqBOiqf7s3V992+9uo+dlYtewdn5QuBGuGSn5z21qyTAku/R1T3FZdZJIWEz1gFJIjlvGKU/bFS0paJvUYQvzWwaI9h+TxDRgBUAyhTQht/uWC5Tz3Szfz6zuH6Sl6UIFGHMZFRcQoTIgGliawAUY7KH/5tEN4yhH91Swiv/WOGQclpWdpjJx5yCxOXTKLsppGKaOmIYy9EEIqzFETMlHu2dTmwrs2VX+v+pdqGAn+jcWN/cN0oPuFRarhGJAmk9fsgVQ+xJFE8CScY0nzUpLv67r7B7j1wU14l5FFqRbVKe1jXJxQukAohzlqv/mcfnAfVBFynK8a/07LU+VhwUwgGi4qWQw4hGtXKWd/43r+5vs3sqEcpr/RwrlUzaQuVcsIQlSlQFFX4K2k04m8+uR9eNOTDiYqqBRpO2+9S7ciPcyBg/6ih+eevA9maYaNUcUxqkqfrVG8JLeJCvzm1lWogSPNaK9UZ9yPsefu+ZrdChGqBgiRX9+6llbQNKp2O6iAEEAKSmvz4mP3YV5fzzYjrXsehlYjgKNF/uvq+3jRl67ge1dtpJH30I+CFZQU1QVpFFky4/KgrA3C4w7bm4+edQg9pkTXAEt26lbPG4euiAkOzHjWsQvYpz+vhoolw8o5N/5+s1Rqas6TZTmX37GK+ze2wCLOSWpWMoHveftHUU3NDMFhtErlt3eux/nkz94+gqmHCPOaDZ559IJJnbB7CmaGoGROWdtS/vK7d/HGb9zIvWs3MadZIi7SdjlRpGoWsqVARY2oOAZL4dhFTT774kNYNKuHDhle22AlmpKHtnjehFSNn0A5eEGTxx08m1Yn1TSOZMXo1kKXGmIYmCcHlm9Sblg5BJJcLcklMDY9LFGLZM1ugSE4KblrXcnN9w+Su3Rybw/B4UXphCFO3Hcehy5pgtZWJF2BFEA8ly7byMu/cAmfu+g+PBGfNen4DJOuJy/ixxmRkJtn2IQD5gS+/LJjOWxRD7Fyj3giwWWYpVLB7ZPcb1rZnkjGM45ehMvyqshgfIGElLLkAFMjl8CAZlx+52qMlKxOlQQ/HuP/taZmBmGWkpoh45aVw6wdLtOya1IWoWIOvClnHr4PvT75rPYYYgejTLITIaqlny0iRDoGX/7dXbzgS5fzq7vW0mxGQpZXjW0FH4zMQCwjWurPmZbDAkRKhTmF47MvOZbTDpqVEv1NyZ0D36zGXkzSKQnJ7ywuvQfCaQfNZ985BUYkdrMGxxkel9wxDiEiPiMjcOmKTZSmSbQdiNm4n6MWyZrdghR7Ni5bvoYYStxIkGf7dNTRV+Scftg8hGKPmtE07ApKzZGqhRimBE3W4wODgbf9z4386TdvZm3L6G324MylWTKVU0Kdq6qgNZV1Sk6QiGYGUcA8n3zO/jzt6H3oqE8FAZJVYuTwkIoDxhGn8UhN6jbX7u8/r4cTF/cxXEKOJSfzeB3jrVurZUSE3Ak3r9zE6k0R5zyiOuFFdXJHUU3NNCdNe1UuWzlAlnXH0m7/8DYRogkHLujh2IUZqlSWzZ5BIantWFRHKYYo5E65+M4HedHnL+M/Lr4T32jSyLOR4AiMXx2jmdAiUqhhpSMIvOdZS3jpow9BtY3XEnN+yix1M6PwcPrBc4nSwKyE7XSLFxFMlcw5Vg0Eblo1hBDwUpmT4zD+X2tqZhzCg5sCdz04nII2VGlB20GAEEpO2m8WC/obldtrfL/W7ohoRKvlbtMZ5pQv/G4lzz/3Ri65r03WaJCLomopvWbCYJiQxw4ZEMRol21e+5gD+csnHkIQA3Ik86Q2yRO9xs5gnHbQXHp8SccJKmGC5Xb62+Z/YTDAjSs3AS6NDJ7An1mLZM3ugVNuXzvEwIYWzmVVV/+tAwljESAz5cQD5gEOsbQo23PoITrDS4cHN8Fb//cm3vGtGxkoO/Q0fCoBjZtTdMazICFFjlO5qNBqKS87eW8+ctahZJLhLSI4QhRKi7gpdGcYjqP2ms3SORkxZjRirIoAtiatLtL3MDMU446V68DSQDhx4wt4LZI1M5504gp3rSvZWMZ0sOvWnYKoTo7RqBp5nnHq/v2AVtMTtz5RxsOqLg/WfYaBqqKm1azv6o4Jra+HGW2neTKWmoWophlAhQSuvLfFi8+9iq9dfDd5w5MLSCzJRcGlbbyFQJriDUpJtmEQI0pGu9Xi6YfP4+MvPJb+IuUzuqrNXOF86qY0vobtMOnzGH09jmP37ieaohMIHWOsSUHIRblplTLYaSOEav2w9Yfb+iiqqZmRCCvXDFNqrA7qqkv2GEZbiQJEMxbNarJ4fn8laCOJeNulK86VbQIYQkCsg6uK+LodzacDHSkQNcQiMUacKR7jf654gOecexUXrlhPM+9Hqm7wIi4N3dpqgxgqOR3nmBUGCc5DdHTKkhP2m8OnX3kcC/oKrCoZhGoTCNVye+oQhKb3HLrvPMwURSYXeBNwTrh//RADHcVX5afjUYtkzczHUlOL2x8cTFFtHX/ELIwxFCT5oQ6alzOnmbrVJENkoidvjXVPIkv1zaXLKV2TKAUi2QSn3SNDFks6OMyELPesD/DuH9zFH//XbawfaDE7F7DWRIbYFoiA18iwKzA1JHZYMqefz7/ieA6c24NZmfx8Y5841VQDv47Zp5dMqXo7TA4Rx4MDg2xop7040b6qRbJm5iPQDpFl6wLOOyxGqGqHt4WZEdU4fFEvvXn3hKsqLyZDVaBh3SW3OAoCBYFMAxK7TR0eWbq+OHU5mRreC7euHuJ1X72Uf/7VLRR0yFwvpoL6yXx/QSyk7+YUCUpPT4PPv/hQTtq3DzVDScvq7b/WriKAsXROTl8jq8bVTkLlSTNyBsvIysHku055kls/95HfgzU1u4BZau3TDpE1gwGpLIvUXm3so7dEq+ThAxf0k4lPBqSlDueTQS0CATCcOMqg/H7FID+9YTV3rO2g3qWBU5N+xYcWh+Ez5We3ruW5n7+a827ZQL/PaGcF6gaIlDhrTtBLJolRl9SPqUStIHORTzzvcJ529KKRLkFYIFpa2j+UJKNfWTQ7p7+3JzXmHSe6PR4CtFS5f90gVN9uvK9ei2TNjEYkmXPD0bGuNZh6DvoMUZgoTTJZG4qIw4mx7+y0RDNJTcBknCYH42HiMS0JFlk71OYt/3ktz/7MZbz0a9fxpE9dzJ/855X86s5NlAZgaAyYGhpTRYuapuRq3bE50JNBiUTtYBqxEBGBYMqnL7iTs792Bcs2tOnJM6J4clOcZTiXI5RbddxSBMThY5uYKRJdal9ojtBR3veMI3nFKXsBhseRiSdzObnLceMEz6Yex6K+Xub2OKJGYlVasH0UicL9mxQII+0zxvJwfIOamoecoU5gsF2mJXaVxjN+y6y0RO4uk3PvmT+7J/19jLW0PbwZ0Rpk4vnmlffxb1feR2klJvBAp+Arl63hhZ+/kj/6ynVcfMd6xDnUQQdoR1AcKh41wU2yeexkcSogGRFFcmPlQIc/+/Y1/M33byS2m/QY1enf/b5JHMb79g5FrEXIZqHBU0iJaGDYMt7xxKW8/QmLwXKCdV8lic3mnx86hPSh+5sN5vcWVROfyV3knBPUjA2D7donWbP7s6lVMlwazldC150BvQ0MKLxjYV81O8kcKts6XbYk6UxEiVy5fD3q+zA8IkIzDjErM8wC37nhAZ7zxcv5q+/eyoODgaYPNFzE00HRKpl76kj+xzT5MXPCjXdv5GVfvowvXrIWyebRzkqchZQiNZmlqRk4h6rRazCMY0PM+aNHzed9zzgAj8csRYgffgwzyBws6MvTR93eju8iyUreMNRKUjjB0x6Jb1VTM+UMtpROTNaLY2RK1XYpMsechkvnxw6k/0A6yRzgJGdh09MIHejO4JEMcxnBFTRyaFnk079Zzou/cBW/WR7TKAntkFkgItstp5ss3TxQR0Rcxv9ds4Hnffk6fnffMLO9kNGisEBZeFQ7yARVJlsgjqAZOW1QpV22efYhvXz4rKMo8gzrJmNPbpNPOZZqUpnTyNLIDTeJ71TlyOI8A+3kN03V3VtTi2TNbsFQGVNjhm5FRddfOQ42SkML7+jLXVqg6Q5qZIyY5QjGYYtnoV4QKasit7Tsd9Yhw+OkIG8UXH73A7z8y7/ja79fTik9iJPK8hmtMGN/3zFEhFbI+djP7+A1//l77mkFes3RyZIoqDUgFJXfYeyzN4do0icQBEeBEAU2Ws6pB/TxqZefyF79GT5GYndEhpRjX+phwKrREEpfw1fJ5JPDLGUfDHW6waXxt3stkjW7BcNlrDxhEMWl1OCtj3fMLC0zxWFmNDIj81XjLZeCEeMJx7g4Txqcoxyz/xzmNxxRK1+cVIorvpoJo3hTGkUPG4Yjf/7N2zjnvFsoS0/uwTBirFq+WQTVCYM5qlq1NKsi9BZT2k2VH/rApjZv/K/r+PsfXo9pRm6COCPrGlguIq47fGvLLyukq4iSVQ0fjJJUXRRK47AFni+84lSWzmukOVM+Jxch8w5ky8mIDwvmqgido89V6T+TMyQRcRQSGI5pG0zUjagWyZrdgpHmC1XO4jjHOoyyLru5g845vK+WiiITJ6GPg4nhNdAGjt1nDgfs1UupqbnG+C+UVC/zDss9Hzt/BX/0jSu4Z0O7WranSpcOGeU2o+yCd6ChRKq2ZWA4J1y+Yh0v/vKVfOvyFTR6eqHykapZ1T5ue8jIPJostvFEcuvQMWXvWb2c+4qjOGaf/sl6Mx5WGo00XtZNYmxHF7Hk04SJCxAm/2o1NdOYbm2xuBR2GVuj3WW8JXjS1vEfv01MKn+Yozf3POeohZQhIKNaio2HAD5GXG+T/74midplK4aStWcdfBWdd+OYwim3My0VvXfVktnjxPjOlXfx/HOv56K7hyiaTTqpBThMfM3Yim6Oo7eAuoxBzQmuoL8Q/uVlx3Ha0nlVXfrURuN3jbRNJj+yYzNmhppCFQAaj1oka3YLrFpumibLajwxZALxFGHSCchbICm3Mq+avD7/2EXs0+9olyGttLvjSse8pyGoz2mEFvMacN3d63jZuVfyP9etQV2GtxIv4ycwpYtBUnZFMHEMB+VDP7mDV//nbawfGmZWnk54J2nio2lMddjjfPexCIIzRUTokOO8pxGH+ccXHM9zjppLqLqXyw5Yaw89ad/FcpLzu0chzuGdS998gqdOp29aU7PTZN7hfEppSdHtsY9IdJfkIklwYlRCiOnhplVT6wmePAYFxArEJ1/YYUv6eMIR+xAqAVOdaHqfITEQpYmqxzeaPDg4zJ9+4yo+ef4dBMnTEhmX/JPW/Xy2uXSuEsH71g/x1n+/jI/97A7UZ2m0gUUcipdkFTpXWYjj2JNbfLZKRNV8NRTLaHQ28r7nHM3ZJy9I+ZzOyL2mssNphTFcJus2WYbbR6hm30j6bezFrEstkjW7Bf2FB0ntcr0pbMMSSzNckrXUDtAJ6ZEmITWInUxaTPL2VfNWUiuw3OW8+uQliE8VKmmUwAT9KR0YAZwhGM57hhXee96dvOu7t7KpU+JFKTXQsYjGNqaBdtX8VpxwzT3reem5l/ONa9fh85wcxYlg4kGq5hJSWUmVxTyWrjBIumogAp5AS3Jie5i/ePpRvO0PDsRXM4OcZAj5NJLIqiUdgY0xXT8m02wZUmytLRl9ebX/Jyg/qEWyZregr8goUjCWaBMvtxlZsqb7O1HZ1Onmx1XtsmRnJcB43BHzedzBCyhbA0jmqkqa8U69sTjMO3zh+fxvlvPqr17LXetLcp/jLEMlo3QZDWnjPXzzujU890tXcNU9LfqKYjwZnjRSdUMCUlTdRdod+LPHL+XdT1la+XjHPmu60F0me4aGYxrDMNmtIYJTpTfv7u/xn1eLZM1uQV/hKZxWtkB3GNS2z2wB2tFYO5zy7BCHT6bI2IdOCjPoyeGNj14MWRMIlK4Ypx/j+LiYkUel2XD84KaVvPTcS7lsxVoyr+TWoUBp0+AjP1/G6//9GlYNC0WRUdXi7RRdv6mI4JwjijDQyXjrafP50FlHVoGwdP+2LjyPGCJ4c4Bn7XDEJ52fHCK4GJjVSLO3ZXybvxbJmt2D/mZGb+HTCeJSlHP8Q35zNFtE6ETlwYFWtdiSSli3La4TkfyI8Oyj9+LkfWcRQif59yaTuGdGkxITT0lOX7PJ1fe1eP5XbuKH1z8IvsGDAyVv+datfOiHN5M5oxFboB3UTbahw9Z0A0upi1Gg1Ym86sQFfPT5x9DwRrSJy/WmAwYgxlCIrBoscZNq9ZZQSb2M5vX2dOP641KLZM1uQW/u6G82Kosw5TBONCI0SWH6fwjKmsEScNUol4kbY0wGM6O3J+ePT19MO2YUpBzI7SIw5HPMIg0CaMYs51i/scUb/v16/uFny3n1f17HN353K0VPk9IKLO8Fl+GsPfbVJongTHBWDe9S4xnH7s0nXnIsReYImroHTTRFcDpg1cJh03CbDcMhBcom+XHNwHnH3P5imxfGSb5cTc30ppE59uptIJZSXkzcxGI3MuA+rcpXrGlXnYM0nXG74IATEYiB5x67hFP2n09LY3rVark6UQQVILOIOZfGl0kgOvAZDCh86Me38Ktb19Js9CAGXgKM5CpOzocqsrVtHTFcrgwORZ50yAK+8pLDmddT4MSR+YKsygKYrqSPJqza2GbTcOoCJePN3R4XxXnPkjnNKgw3PrVI1uwGGM3Cs2h2lsr1uhHbCQ770bmLInDX6o10opKNVF3s/GkhZpjA/D7Pnz9+H6I2kxiP+lw7ggBeoDf3FH6y/YnGZ+z7JweDMjxUcPoBs/n6K45m/qzmpPIppwvd7XH/xhYDw8NI1f5sMqhBw8Piuc1tHC27cjTU1EwXDDLnWLqgQVTFSVUaOJElWSEiZE64c02LjWWyMLEd7HIxBhOHSRKgZx+/N3+wdA5D7bCzsaCk4mNvO4mZbSEgDmgF44glDb7+Ryew99ycUlMa0XS2Hreg+j53runQjjEJ/yQ/upkxp+lY1Fv9zvjdo2qRrJn5VGfFwQv7qiYFmv4d54BnzNLXe8eK9R3WDIVdEqAuKdlbUEsR93c+cT/6cp8aVzzCdL93VwCHysARexV8/dVHcfCijDJk5BO1c5+uiBDNuOaejQTJdmgXqhn7zJvN7GaawZ3ySsc+qhbJmt0GZcm8Hpq5J9JtvDqxMHUXVwJsGO5wx6qBZEXuQjoNSR6rksCUSP7ko/fmKUfvRaedgitRMjCpxPShY+zSGgCJqbpEhaESls5r8G+vPIXj954H0XCZYX5mSYIB7VBy68oNiMtHZhyNxxbbxAxVYb+5Of2NLAnkOJuMWiRrdge6B/8hC3vob3YP+LjNqGw3qOMEyhi5fNk6EI/hJj5bJoN4vPMIDpOMpoe3P3Epc3saiEacCI4w5d3IJ4VmtLRBp2yx39yCr7/ieE7Yf1by0bocj5txgiDA6k0d7nhwkMJZdzLYVoz+q1RuCzXjyEU9FC6N75iofH+mbZOamnExEw6e12Sv2b1ICESpxppuB0PA51x190ZiSCMNJjhXdgoz4w8O7Ofs05YyHBw+DBHcQz+Pe6xP0cxwGvCxw4LZDb7y8sN5zMELsCrzeuzjZw7K1Xev5/7B1BsyThCltjFuFkTIRDls8RwwxSupTnEcapGs2W3oyZUj9+pJJRdVzfL2MDMy77nu/gFWbGjvkE9re2z2/zn+7PH7sHRBP4EsWavjLYcfYgacMauhfPVlx/OEwxbRkQDjNuCYSTh+u2yAUjxeIraNNKsRgayyDeY0hOMWz4K0+oYJMmtrkazZLUjLZ8epB8yjNIdTkJRxuE2cgMe4f0OLK+5vAxGdYMm2syiOAxY0+cunHYhGw4+I+ENHV/i6olBGY16R8+WzT+DJRy2ktJLCUjf3mcyG4ZKL7txAjysp1aXa7XGUbvT2cM4RYmS/ebM5dEEzBW1Ek694nC3y0O6pmpqHARlJknY86oC5NBsFYp3xzpWtMcgtYBb59S2rwCbqBbPzuEp4X3biXjzpqL1odUq8aRqgRYYjlcftKqMj1+BQDeTmCSHSVwQ+/5LjeObRe6GqOAqgmhI5QzDALKAjLe2Um1cPccsDg+Tdzkum4/a6jAhoSNMsCZQKJ+3bpKfhwcCLhyp1ayxbv1pNzYwkicPBCxosmV3QUZncchtBXRpZcNEdq1g7ZJMeKTtpxGPq6C8y3v2UA5nV9ATz5JR4AoqbcJ7NzmKqhCKjbcMUWcanX3Qizz9+L6ya8eNlB2b5TCNGKuwrkTz/5jVsaLVBNgedxusnaWiKfIsjqoIIpx4wt2p356tZQeNvkloka3YLpGq/v2R2zqn799GmmDBauQUuDQ5r+B5uf2ADv12xfgvf1ZRgBuLQqJx+cB9ve8JBDKnSUcXrMKX4lCc+9nk7iI2qJPIa8S0ly/v5+AsP4WWP2mckkXzG+iDNwHwlW0qrjPzsxjXkLlnQ3XZv4824cWaIywAj4FnQdDxq6cI0I0hC8rtMkCi59avV1MxADFBJPqk/OHgOEsvJCZ2l9lqeFmU0vnftqqof5WZ/3i6jZVrGO4g0+NMz9+e0JQ0GrYm6AkFx1m3ztuuYQdun8a7/dNbhvObR+1OqpaYfM1Ugu+LuHIbineOiZZu45r6N5FmWXAjebx4IN/a5UC3HA2VQjlrY5LC9+6vc2HQApREeWz+3Fsma3QRDqoDLYw/fm/m9Werqs11SP8KODxR5Dz+/cR13rRkY16LYWVSy1NUbRWNkfo/n7551GP0+VYtkVmLkU/aeagbq+Nhzj+B1p8+jE4w0LHVqXv+RRMyS9WeR71+/juF2ObJiMDP8hMPAHBojXpQYlNMO3ZtZhQPncZqmZRrjamQtkjW7Cw4zxRQOXlBw2r6ziSFQesA8zgIq+VYyIQhRA0KOecfqdev43+s3AmCmRDMiO9ecoosTh7jk+8q8AJ4nHbGI15yxP6GjGL1ESR19tgy+TBJniAbMMkoRfOzwj88+hjc//kCEAu8FcX7Gi2QSseRXvHv9EOfdcD/NNKlii2023vYzMQIOI6coHE89amH6u4G5qru5kF5sDLVI1uwWmBkp/VDoy3KedMxeGBlZBOcMZzkStx6lYBiI4VQgGpl3fPeKZawbThZKt33aeCfeZNl8EgtCN3/T87dPXsyx+82n3RlK0dXu99hRVFDn8XSIwyXvf+6xvPXMA9J95vCSEqx3/htMDwQjCiCOb12zjrvXbIC8uUXK6UTbz6uRS6StxtELezhh394tjoXkEx5/C9UiWbNbIK5aL/k0IfBph89jXm+GBSFamygNvBtvVrSgDhyClwyyBtfet5Gf3LSm65isTqZJrd13gA579zf5yFkH0dOTU5Zgo9u87YhFaRlqQkvh42cdzjvO3Bcl+eamys85LTDDibFmqM1/X34/mSuwcSLZ42KCidKKJc84ch8W9OaopTza7W3nWiRrdgskrTqT5WeOIxfP4rEH9tAiIk4oXbVsHvtEwOHTOFlNna0Dji/9bjkbguDEJfEa95k7S3qtEIUnHbE3f/b4/bHQHhHGbpR6ZDjXNjADpyUWIuecdShvefKBiIHEOGIBj456z1TSd0j76v+uXcnN964mcznOUoBqe6jPKM2xoJHxtOP3SRa9+O0KJLVI1uw+pINdLBDM48Tx4pP3JQBFKYh2EMnGXXRKTPNOLEvBld5MuHjZAD+/9r5R1uRUnioCliESsFjy548/kMcdOZ/BdjlqCVi1NRvzzC1JQtqKJR98zhH8+ZlLiRKJKqkjzrafPOMQ59g43OLci+9GfY4XRd326/MBAgEtAyfvt4CT929i2p50PuxU7vmamkeQNJIBKXAuCc3jD1vEYXvntFRwCmGCUkBzKUHZWeoMoziwki/8+nbWDJd4P34z1l3BOYcTD+KZ21vw2Rcfx6n7zaE1rHQkByepEscUwxHFgypOYwo24WhrRmFtPvz8o3jHEw4EHE4dzqXqkS47tHSfRpgFSlNUS9KgLuN/rryXq+4dpCmRjssm3bfIoYDjJSctojfzxJHGzNtncu9QUzMTkPQ/qZZnS+Y0eOmxSxjWgM9S1DcFYiYmCQrkWc5v7xrkf658ECGmsrYpJC1/N3caP2RhH994/Yk89dgF0NqAtDbSwVP6BiIdnA5iWUY76yVoiQ1tYt++nE+9/DTe8fiDcFSjYbsdhiarANMWI6oiBuAxcdyzdoDP/HoFSoE5h5hgOjz2ieMSo3Dw/CbPOGYhwSCz7qz17VOLZM1uR9dqMlr80YkHMK+/SQk4c5M65J0pUQVXNPjUL+/k7nXtauj91DHaujNLlurB83r4+h+dyD+98BiW7r03VhrDg4MMDRvD7YyhoTaxtYlFfTmvfdLBfP/NJ/DKUxaCdrb0Ocq4XoUZh0gGZoiVOJQv/O4+rn2wTX8WUQSngk1QViXVRYPKam+XygsftS9L5jRTP09SzfZkEJsyj64x3C45+01/xfW33EWj2Pk9JVUkChyhDBxy0H584/MfY86sfqgOqpm4fKh5eFE6iBX86bdv4osXL6ORFWSy/RCMGWRVM1408qrTD+NTLzyUNMJ++9HQyTD6GLZuN21T1AznHas3trj87k1cdc96Vmxs08GxT2/OMfvM5vQD5rB0YQ8IBE0Cm7nNtdi7y/kRNFUrZVnGZcsf5Kwv3shwGcikg6knugKVgB/TtWm0OJoZZYgsbMBP//xxHL5XL2IlQXLyLZ41Mdu/rNbUzFBEM0SU152yN/N7mqkbz6jAyESmhAARh3gBn/Gfl9zJ+bes3ZxobNsX2u3RjTqP/EyqIXdixFgyf1aTPzxmPu9++uH864uP49wXH8OHn3U4r3jUXhy4qElQI4YWEKquN0ksjQmbc09rttyeBhgexTthXSfyvp/cy6bhFnmEId+XRsC6Nl63lrA0e9tVtepGNOEFpxzI4Yt6EE0+Xq+W+o5Ogq3foaZmN8Ek+bVOPnA2zzx6AYMliETEOUppkFu7GqMwRlWEqgukxznHUFQ+9MMbuW+wnRppaCBo3OVYzmhrT6QaH+AynC8q4cxG0ne6t9TrUvBe8FmDzGXpeZL8mwKTjtpOJ6IBGsECqkqIgSgRkYwvXng3v75lHXnuCBkUMaAOUE/ltNwSM1RBRQgxsHdvxqsfe0CaAlkFzJxLdeCTYXKPqqmZiagQRcBlvPWMg1nQowSFPA7itE1wPdUpsPWJlgQpWRo9Rc6lK9bziZ8sI1Y5d5ml0bFTSfflurKdtK9KBapurhLC9Nj00xR/jEeEjIiZEclSJN/lZJJz0fINfOrnN9IrgSDJ4bG5f/j431xNyMRo6DAdbfDik/bm+MU9W/ptd4BaJGt2X0RwlhobnHxAH2eftC9DmtMhxzvoqCfX8apwNke5uydWs9nH5y5eybcuvwePEavOPTVThBnmPIKS0yaTwKqNbf7qO1exqlMQnMdZnJRkiaSekh0rWDK74I2PO2CXmhpv/x1ramYqAplZagDhIq8/82AO7jGGrQdVwzutfJQTnUBdS6UKrOgg7znvLq66eyPePzJzanZXTDwRQSyARlox44Pn3cpl9wzR9BmaQ0bqBzkZDE+nY7z+MYs5fK8+ou78LJ9aJGt2W5xB9IrhIRhH7dXDn5x5IC6kjuBOS6IrJly2UVmU4PDSJssbLN8Yeds3b+DeDa3k06qEcmeXcnsuY0o9LSbLXRzR9/CFX9/Cv19xH7kvaGBobINN5G3tDgJO9qJZJKpy3D69vP6M/VAT3Hi+y0lSi2TN7osTPBleBPMZmPC6M/bn1KVzaJWpz6PTrTsDbY2hlgGB2bnj9/eU/M3/XcNAWyktohZTS7WoaBq+UrMNzJL/MaWHptJKFYeLJU4yvnfVvfzDT+7CxJE7CKLkpHSfsVvX8GCG10CkAS4iltrT/dXTD2efWVVljWx/KNxE1CJZs8egwPyeJu9+ymL6vAdN1sukEAeugcQ2s/MO375mFe877zZUPJjHkwakTFD5WLMFqYTUkYLTTlyy9jxccNuD/Pl372A4CNkEieKjcWZgGcPekblBCJFW6XnuMQt5/onz0GAEEYRs7FMnTb1La/YIpIoKq5Y8/aglnH3GgcSOEi31DN8eYgExo/QNAoGi0ctnf7uMc35yK4hiCE4mX+q2RyNSTTtMS241I3fKhStavPmbN/LgpmGcL6qRX9tGUKI3MnP4jtLxvew32/Gepx+EOI+J4DXskjtk+0dHTc1uQkrgFsTBu568lOOW9FAGnZQ1qU5woUxC6wsasaQnd/zjz+7mny64C3GSSt1qJocpRlVh5IQr7h3iDf9+LbevbtOTQ+Ym4wZJubCgOIuoa0BrE+955qEcuXg2qFKKkBGwyezkCahFsmbPouoPue9sz/uecyzN3KNq6SSruuuM1wRDxYNz5NZCcARpYAZNp5xz3m2c84s7iZK6mKeARKwW+Hs4lrZDV+7Sv+nCZOLw3nPFPRv443+/mhVrBugpGmBC2Z05sz3MkZmn42EwtHnpKfvzspP3Ry3gceTOiNLYpUyEWiRr9iicSOoqo8Yzj1rA289cinXKZNk4P+GS2auiAkEyvComivMOEaN0TT78o5v50PevoaUpQNCpJFJNd+kEnekEjGQTWjWZUEGNaIpD+M3t9/Pyr13DLauGyXOPp0TF47fbSzMhksZvtEvHsQv7+eAzjqKniDjJwPmRwF3a7ztHLZI1exZiiESiyxCLvOsp+/PEo/ZmIOZ4i2RakobMbg8jWk7pCzLXosia/NMFD/DOb17D+rZS4IgBxHRSy8bdFslwGnHaIgJmgoonc8IPr7uXl3/lVu5bN0wjn5yIdaVzi1LNGJnlHB953uEcsKABk+xWPllqkazZowgmQCTTDsEc/bnw8RcexpELGgyXQpR8kk5+obCSjEBAcCZkRc4XL1vNq75yOXet3kSeKYpLhXSTes3dj8wUMSO6ghLBuZTy86nf3sNr/+NO1nUieTb5SY7d3MpumWZE6GjGB59+EE8/ZgFRS6IUY5+2S9QiWbMHkcYzBMlSWzKBgOPQhT38y4uPYkEeUnrK2KdNgErE4ShoEK2kYYFe7/jFrRt5/peu5We3D2yRErRHCqU4Sldg5miKce8g/MV3buQ9376JYWvTyBQ1YXwnx9Z0t6GQIuSdTovXnrqAtzzhIFS790+trE3tq9XUTGeMFKAxh7kGmaXGCh3LeNLhc/nw8w6mE10KviRXF+pSmoqNkwAZXUYwwWkE7wiuSSaORmbcsmaYP/ryJXzi13fT1s39HdPi29LSs3ods80W0swmlXka6cuZKZFIjpGJcfmKQV77lUv53IX3QiNPoxcsIi6Fu7aHAF5B8JhAq93hiUfuxd895yi8F0wc4jL8FNfUb73na2p2V0QQV9Co5mA7J8lnJh2CCa9+zMG852n7UGo6ITvOQDOEgFTjR0fj1HCiRJdqu8VCiqpmOblztNXxvv+9mtd8/RpufGAQkYirapOdDmOqmAawNrY7RMJNEDWsmktjltwNQ2GYz/x2Oc/58lVceMd6+hseL6mIsFsxMxnMDM0kVTm1AyfsO5fPvfhY9uotMDO8CJm4Kc/on9pXq6mZYRhCpopUKUB/+eRDeMNp+9Bul2RRyGghmmMyuYoNEaEsS5zzRHM0e3r59rUPcNbnr+RLv3+QVkhzaEppoChRMiJ5lSozObGYriSLWIgWwXucy7j13vW8+ms38c7v3crA8EYaRRORyQTGtkYkNZ5Uzdh3foOvvupYDlqQBPKhpBbJmj2eDg0cYGpk4vnwsw/hRacdwHB0hOgovcfHyVp6QuYzzBRxjmievoZn9cAQb/+fG3jR127l8mVrKCSSOU8W2/gYklBO0i83XYlOMWfkLmP9QJsP/ux2nvrFa/jhjQ/SJwWeJiLDmIzfnm77CDF02Kvf8+VXnsCxi3spq+4+O9vhZzLUIlmzRyMYIoqSk8VkTfb1OD79vEN5zgkLCWpkKkSb3FQ+NTA0dZ2pEqlFMpxF8iLj5zfezfP+9SLe9b83ctODA5BlWJ7Skaw7fmFUest0ZvPnTL9nOAbbga9f8SBP/ezVfPSnt7JpcJjeRgP1VHmmBWo7JzvtGJk7p8nXX3EIZxw8Dw0e/zBcWHbu09bU7DYIOamVluV5SmK2jLm9wldefATPO2E/NnaG8L6JGJhEVCIqOTbOyS5VUwarRpZ6BxYDMetFQouewvEgc/jn3z7A0z9zBR/44e3cuXqAzFUWUUhWVpJLTQKkKQk7AN17IYKlmT2TtXG3x1aibCkB3NCUGN99J41AxEjJ3CKBwU7kf69ayYu+dDVv/LdLuOnBDeQuI/dNooJZB+ciTsGPY/V139ssVWwL1WQGMUSMViewz5wm33jlyZx5+N6YGnidcFriVLL1Xq6p2dOQzV1pnICKo1TP7N6Cf33JYbzxtP0Y6ASiCGo9+OjIdXj89lsjQpNmzqgl4XQWEJ8Bjh46zC6UdcMl5/xiBc/49BW863u3ctU9Gyh9VglPmmcTrEWUqpVYCLjYIZoQNcWDBUPGittOMhKB19R0ImIEjKgGsSRUfRq7uZ9OjJWbOnz98jU851+v4LXfuJbf3rWeZqOXwueIOJSYAlZ4zNJMGhsn+jx6yaxmKEbpI2LCYMdz2Lycr7/ieM48bG6qmMLSrJop+u7boh4pW1MzBjPASoJB7oyhtvG+X6zkyxdch5cGisdlSjRFdtLO8BZou2Z6s9ihE2F+T8FTDpnLC09dzOMOncfCniKdQmZEkdQfXWOaKS0pn9NVSUXsZDBkPFJPzHQzqSw7c6goXjIGOx2WP7iJb139IN+5YQO33r8ewfB5Tlad9t1z1DS1kNseY8/plC0Ag8E4bp/ZfPXlh3Hc/nMw23Ke9tjnPRTUIllTsxXJegricKLkZqjBJ39zN+8/7zaiGLllOHE7GYQQVDKy0EbEiAjOjCjQLtN7HrV3k6ccuZinHTmXRy+dx6ymrxZ+oVJxl1q8iSSNnKLTQTWNYM3EEJdsVdLgWm5/cJALblnLj25Yx6XL1rJuqI3LHL2ZVp8s5ZimJNMkZjtynqoqrppgGFUZLiNPOXQ+X3zlsRwwr48QS5z4kdfckdfeFWqRrKkZg5lSWuoy6UWJZJgYOZHvXLOad/7vzazaOEyzWVR9EXccM0WdS4GHqASfAUJuSjAlqEEMNHLlkIWzOfWghTz10DkcubjJ4nn9zG8UVaeh0RZk9WFGfaaJPp50/2eMq7AhKis3tbh9bYurbn+Q829fz9Urh1i9KYAo3hsNceCEaD4JqwPTMLJ03llpCVEJOM4+ZR7nPOto9urPaZdGnmUpt/VhphbJmpoxpFMiBV5Mqvb/GGKCSJvLlw/xlm/fyNV3t5iVC5GAOJcSqb1HNY5YRKo67rFqAs66LcSk+rlqAOwcpgEnjoijE5SoSuYiC3tzDlrQzzFLZnPs3k2O3ruPgxb0M6e3oMgdhXfkfuv32yyXm++LqpSxpFTYVAp3r2tz58p1XPtg4LaV67nxvo3cs6HDUAleoMgljcIgjfeJKphkZLGFc0JpLs0A3w7ONA3+qnpJYj5F9xFKVXp94F1/eBh/+gcH05NbKlOSNB546pwKk6cWyZqaSWAYHQPMaLjIPQPKB79/PV+/8gEaknxxIXNITPXcU0U6PQ3nUt/LGAMRo6Npud3MHLObnvl9wt6zCxb3Zyzqz1jQ00Nf0aDZyMmztJzvRKMdlXYZ2DDYYsPGQe5uFTy4YZjVGwZY3zaGSiAOo1LgiwZeFC+2jS7htsPneXAZmQYKTRF7JRBdQbtUDl4wm48/50CeeexeqfenPXzL6omoRbKmZjJYKrPrWIG3kswJHRxfuWgFH/7Z3azcNMicPKPE4byhVb32riw7qY717vHunMNUU26MT6KJllBFu9VS02DDpfk9pJ6NIzOnHcnXCojzqHhyC2QulWi6qoLaERGfpSCJljhhUiMuJosHSoSAkXtH7CgaIy88YSEfetYhLF00F2JI4xd45EVy6r55Tc1ujElGtJzclMw7gjgyMf7kcQfxgzcdzzOOmMOAKSURU8NVeY+7IpBUAtF9LdW0JIccYmr2kOPxzpFlnkYu9OXKrKxDb8NoNj15Q/CFI2s4Ci/05p45jZxZuWO2V3qy5EsUMZwzvIQ01jVGVEMVQZ5akTI6iAUyaVAODrOw1/jo847m3LNP4qBF/agGok/zaR5pgaQWyZqayWGkeSoipBQgE1QhmnHifrP5zz9+DB955kEs6i0Y7KR8QjNLKTBTiAggMY1lRTBpVONuq5nVOCIZzhy5Qm6ODIdTAZdhzqc8RE25ihmCcxlInp4rGZjhxaWmcebGTZrfFUprENQT2pt49rGL+MGbTuXtZ+5H7kFNEPH4Kql8OjC1376mZjfFAbkTxCXrxjlH5rLqBHL0F8I7nnQ433/TqbzspIWYKlqCupQco6SeiT4VLY64orrL6ckwYlUZiDgQRSlxRLwZzgxHtcQXIQqopFxHHKQU7dTiSJyAQEmKtDsLeAtkFqpRB8kXamiVCjQJuhanCwhhJJneIZgKhidGpRMiB89v8rmXnsjXXnMKx+3bX8Vm0pLfiaTvN02YPp+kpmZaI+l0qZK4u3/qCleKrxgnLGnwb2efzH+/+iSOPaBJaLdoxxytRC2okVsc6Z+YBGFnl+XVe4ugVdS5K26bo9mbkXGiBOnjd5/p0DRBPP1lB5e6IqmOO1gvkWbyl4piBISS4XabWc2cdz7xQH78p6fymscspCdLlUXpnabn4PLp94lqamYgUolUVIcKPOu4hfzkzafyLy86jmMXZcThYTodj/dCC5caYVgq/+s+f6YTBXBGIwzjtIW4FBVf34Y8K/jjx+zLeX9yEuecdQj7zWoQ1WMWaIufdGfyR4JaJGtqpgiRVEqnzohmzM4K3vQHB/B/b34Mn3jB0Zywj6fTLtFgKa9SUkBmd8JZahVXSs6mTpN+V/CGU/bivDccz+dedhwn7TcHUwELqemuFPRoa8q7iU8ltUjW1EwhzkEWHWJClEBAWdyf8SdnHsBP3vwYPvGS4zhl/15Cp81wu0Os8gCtalg7epG89UiDsb9PBzZbwt6MdieyphOZ31fy549byHlvexSfO/tEHn3wfAKpSUYKOvk0EsOUYPkOL+0fTmqRrKmZSiQFd5xzOJeTIXjnMRxzZzV4w2P35ydvfjTfft3JvPT4Rcxq5KxvRzohpQ4FBExwmnx1qKvakoWqV6VHzCHWDf6M52lMSOXv7N4mg1VzeNJLGpilfEmyquNQiUi32sYhGglBGWgFgnlO3H8uH3vOQfzqbY/nn553DCfv20eKvUtKV5IM74sUpBGHcx7v/YTfYTpQJ5PX1DxMdE+1dOgKEbhl5TrOv2kd/3fdOm68Zw0DocTM47ICfIqJY4KLghcHGEGSlDkhlUKKgPM7GfypelZ2P5cI3lyVItQ9zxSVkkiBuYwsGBJLhizgXYP9F8zmqQfP5gUnLuDkpXOY2/SgipFVbejGvufMohbJmpqHkXTsQtQAGN55wNMJkavv2cgv7ljHr25ZzzX3rGdtq42ZkfsmmfeotsldTFamLwh4TFMTDjFNLdRGhG1rxjvVU+/KLaPrSo6JpDpsi2BGCJ5ghmkH3xCWLpjFEw+cy1MOm8NjD53P4tlFZYNm1WjXNG/beT+tl9KToRbJmppHgFj1+fYxIs7o4MnE4QkMttqs2Oj4zV0buOzOtdy8YhXLNnRY1TYCjszAuYxcjNw6iHdEukvWdDrbOMnYE57oyYRM95tBbBEkoxNTBWRv7th7Ts4Re83msfv387iDZ3PEvv3s1T8rWaJAp1qaF2YYqUrHMLx3dBN8Ziq1SNbUPAKoRpA0oUWqJG+LEJzDO1d1u0mt0Na3AnetGeKOVcNct2I91z+4iRVrhlg1qAwNR9qqdLRMbduqkapVrjjQTS9KImiWxGxETEnLdG+RRuZpNjLm9niWzOvliAVNHrWknyP2ncOB83L2nddbjV4QQrcu3AJKViWSK+ZIndIttVHbeRWYPtQiWVMzjbCxZ41t3VFXVWlHuH9jm+VrhrhvU4cHB9us2thm7WBgw1DJxnagHYwQI2VIoxgycVU7NegrHP09Deb2evbqb7JPn2fJ7CaL5/axZI5nbn8PxdhTrBpUtqede7VI1tTMIIw0kdGjYCGth8VVvXVSv59SjRg1zamJqau6iaXmQSJk3uEF8kwQiVWSSzfRpbvsTvrs3Ja+zD3xvKtTgGpqZhBSSaHhiFLQkQalZhDSPBlTIwd6MqG3cPT3ZMzuzZnTUzCnt2BWM6en8BR58hUGy4l4tPIhWiyr5XglkKSV9I6kEe1u1CJZUzOjSNFxQfGU5NbGUxK8ESWCS/0m06DZiBBTbqOVYLFaoWkSRFEySpwGjIgaROdGpjV2/ZduilulzTRqkaypmVEkN5biCGREyUEyPILH4awbTfYYGYYHyaqbH2l9JjjEPAGHOoeTtATPRoV0khhvudym+n3s33ZnapGsqZmBOIFMJPWKrGrAU/u0NO9bum3H0nDW6r+RuxMCmXh89ShwVcS966OsXmvM4Jo9beldi2RNTU3NNqhFsqampmYb1CJZU1NTsw1qkaypmcZ0q2TSrTune9R9I4GW0X9JzSnGZ/SzJnpMzWhqkaypmaaYKWqxCpSQ+gZVUWWzlMqDVQPHANVRYmpplMKIHHZ/NtDu4/egCPWuUItkTc10RpVLLr2a62+6gw2DZWqLBqmrOam7uZMqNt3tdm4Cllr4ilU3DNNKZC3FujWmfMmabVOXJdbUTFPMjHZZ8po3/RW33LmMxfvsxeK9FrFk3304cP/92X/ffVi4YA59fT309/bQbDbpaTYpiozcpRYZExFDxDtLjXOn4fCt6UQtkjU10xalVQZe85a/5dJrbqK3WRDa7dRkrToHms0eepoFPT0Fs3r76O3tpbevSW+jQV7kNBoNMp96g5ch0AmR1vAwC2b18Dd/8af09zaxPbQme7LUIllTM21ROp0Or3nre7ni+psp8iwlhDsHqb0uGhXVlCVuamCpsYVaTKWJo87utFQXYgwcst8+fOc/v8Sc3kZ9Pm2H2s6uqZm2pDnUJiniIlW5TDcogxnOCVkmZB7yXMgLT6OR0dNs0Nvsobdn862v2UNfs0Gz0aDRbOAspnepBXKb1CJZU1NTsw1qkaypqanZBrVI1tTU1GyDWiSnG1XWb0r6TX+K1eTl7h3d+6p04qq+InUQnDk3q5q8AjElQOvYbVFTMw2oRXKaMTrVoNv41GJMc4w1YBbTfDqLoOkmFpHuvzPmphAD0UWCC0Qz4hTlWdTUTCW1SE4zUgQTRKrB9BjOpR5/ag6cT53+RHDi0n3iMckQST/PhBviiZIhAmliNGQaxm6OmppHnFokpyXdGlwwBCeKc4L3vmqeGlGLBC3pxEAnRkrVGXULqpTahk4gU493PjXO3sO6XtdMf+pk8mlLADIicO/aFvdvGOb2NUPc9uAQ96/byMpBx6ZWSbsTuvbmzm7uRwSrfJO5dVi6YBbPP3Evzjp2Ac2suYfs38lgdMqSV7/1b7ny2ptoNIqxD9hBJL1mCBy8/z78z7mfZFZf79gH1YyhFsmHiSrsgquKIKJo1TA/fVczw4sDhIF24KZVw/zq1tVcfNdabn5gkNWbWgy0AiVppomjhJHleTUGdAYh1ZCASPK59jjluacs5VPPPZxZvR6zIYRevEuP3jOpRXI6UC+3HybSJSMCioiSxRIJQ6hEHB6P55YHO3zk/Lt5/hcv52mfvIR3f/9OzrtxLSvWtWmpp9Hsob/p6CsiPYWnp/A0c0czE3pm2K2ZQZFBbyb0NXPU5/z37+/knJ/diRdFxGOSxpzW1DyS1CL5MGFV3k5wjo5BcAUu70fUc9Vda3jbf1/Dkz97Me/98W38atkgJsb8nkifNzInI62uVG23sqxSdZ3hRSiaTb52xf1cd/d6vBQ4K9H6EK15hKmPwIcJA9rmEZSCITIHl69Yxxv++xqe/qUr+MLl97JpKDCbSJ+PqM8ZsgbRZYhL0/C6U/B2F6T6PmYGIjTiEBuHBrh4+QDgcBKQ2pCseYSpRfJhQgRyZ3gca4Zz3vfDW3juF6/iG5fdR6v09LkiWYuZRyTDm5ITEFNUt+zmsruwOZKdLgDR9RAsZ+NwSgUqpYGrM8xrHmFqkXwIMIxQtdAnKjFGjIgXuOCWNTzv89fwj79YwWDZobco8AI4h4mrKmlSIMaomqK6rSPXycLyQMqhdKktzEiAaCbckFRpg2SgpG3kPHN7SHVG6rBt947dYSKglsYejK5eQiNYQE2r6qaamkQtkg8BAohGlEibgJfAcEs457zbecFXr+J3969lbkOR6JNgSJKNFO22Kok8vVLyRabfnUu7Ky29DYioaWrCKikrwBkz4iYIUTIaUREbJroSo8HCpvCogxdjOJyVqTJnCvFBEU0lkEGgRHEWUXEpuR3FaWfs02r2YGqRfAioXGyYKQ0vrB5WXv/fN/OBXyynVGWON0pyNG92baptkqpqhBhT/z+gqnxWRAwEIg51MmNuYDRCyXAuqOsDLWi1NvL60xZzwpImalVZ5hT7YM0b0TkQR4ZQSAQnOBG8RaJBsHzs02r2YGqRfCgQKHFkruD2VW1e+KUb+N51d9AsIpk6xJqYKaLDk4pUq8bkl3SCiRBVaVtGJ3o6Qel0Iu0QaZXljLkNlZEN0UHH0xoaINdhXve4Y3nHUw9GtAQ1zLLKvt51uv7PKEYmsHrjAFfevZEf3DDA929YzSXL13HPhuHUxNanK92UpRDXzGjqZPIpwUZ91zSNDoFrVg7wmq9dwXUr2/Q2CrwpZm00a0AUclPUbfYjpgrmtDuMNEYUIIRk4URVPEpfM2d+b8GsIqOvmZFnDiytwKfTVtkWBmABE+HQhbN5/vF78eSj5pFbhzYN8mQnk1X+2p1lZM9U5v0196/nG79dwU9vH2TZhmFiaFUJ/Q0OnJvzxEN6efkZh3HGAbNH9sUjt1XrZPLpQC2SU4DShpijDhwlThrcvGoDrzr3cq59UOjLIipUhntaQkoVMRBAfRJFF9P3FomYCK3gCUHZq89z1OJ+Hrt0Nics6ePgvfo5cFZBf08D5xxmhpuBE+8sOVJp+OpYMU3jCnb6yBlDjAQxMucJUfjCxXdwzs/u5sENQxSNJkK66BiCiSfESFmWzO/J+YsnL+UdTz4o5ajG6hM5wartLKmwHtyUfNIJqEVyOjDzzqxpiFkSSFPBSc5da4f443+7nKtWtWk0HCXVUKbKMpEqEh1dQchzirKFU4fkirPAcPBoME5d3MMnnn0wP3vbo/nOG0/lw88+ipecvIRT9p3Nojl99BQ5jczRzDxF5igymVG3RiY0vNssiV0BGr1xd4ESwwMxBs75xR2869vL2Dhc0tPIUzqWpPcUERxK4YW+ZsGgGu/58R381bdvodOG4BwmccvTRZJo1uz+1CI5BYgJTtIc4/WDHd72rRu45O5Io9mDp0MRBfWNMc9yeGmRhw6dfC6IY7gFm2jwxINm829nH8dP3v4Y3v6UQzlucR9zCyVaSVTQKgY+Osew+iQz7PbQ0PU/ik8W4jk/Wc45P72Zhje8E5z3ycc7AZkIvbnncxcu469/eDOmEXMFWlmPMmohXrP7U4vkFCBEIhkiyt/9dBk/u3E9sxoZhXZwZUSzDB/GnpSGkBGsQ2YthoY7HL3I8e8vXMo33/Qonn/ivvRnklqi4Yh4HA5J1d/pfUe5HKbMa7KbICKYBj5y3g185Pxl5EUv5tP2Mu1uwYRqldOa7sXIQB1Zb8Hnf7eM9/zv9XRCRJyk9nUjQllv8z2BWiR3lu5JVUVMc1P+84rVfPniFfQ1DDElAJ08pbOYiynnsZJHMQULBNdHW5XXnrEP33njY3j5Yw5mdu4glsTK4nIWELPUsBZfjQLdfIJONx/tI0Xatsmwjmp8+Mf38uFfrsDnjiIEoEwdk8yq2dUJV5V9di1zRwlSkpsnc718+uL7+csf3MZgGVMMSTUlwdcXpj2CWiR3EDMwDWkIvKaKDS+eGx5Yz3t/cBumgjrFHKm3j0acpIi3YjgxHOBMaUfPLNfio88/is++9HiWzu9Ng+Zx4HN8t/u4ZCOBGXGCc1kVCU/UAplyUlVbBIyoyj+cdxv/7/zbcS7DWSQ6UmVPdUEZz/LubkfDIZIBipdInud86dd38Z7v306nUyIu7XslHRDd5X3N7kktkjuKRIIIwXlMDJFIjHDOz5dxz4a1uEzIdctkZKtEUUgR3GiRActY1NfDV88+jbedvhCJSmkpRbxmxwlVoNmpcs55t3POr1YgmcO7qinITl5IJGVz0ZN7vnzRnbznB7cxHD04wWvKQug26qjZPalFcgcRVbx4qMrrEM8PblzF965bT18xlzwG2qlT7BaYpBrr6ApKc+w/2/Mff3QIzzhmLkFzghgOw8vmqpqa7dO14hxCtIIPn3cHHz3/fnpdm1x0SsRLJFUJZVmDj/92Be/57k1EVXBZsijr69puzdZnc8128JhBZqkNxeph5eO/uI0yRJyW+KyB2fhCF/BYe4iFhXLu2SfyB4cspFQFVTwQzKVE9OnCFkvIKmIx6tfpgkhyPnz0J7fz0QuWQe6Irp+pjKA7PLgOs4uMz1y0gr/+v1sZVsGPCuYkptGGqZkSapHcQQyIGlPenHN8/+oVXLOiRaMwLAu0EJpVJFtQ1BwqKQDjtY3LMj76vGM58+B5mAq5OcQVeKAhAXNT3PZmF0jfwlKSN6kkkmqkbUSJj5Afzqo87lgth0NU/uG82/n78+8ha0DDDaVqnkoku9bmrvgNRSKoJ3qhJ3N8+XfLeM/3bmEwaBoxoRHVuPV77Pxb1kwTapHcQUQcuVNMPOsGW3ztknvpOMOZxzTDWyD4rGphpoAnIyCqtIPwlicdxCsetZhoYM4QX/nNnAeXT6Hts4toiVpksIwMdCKDnZJ17ZLhdpu17YjSeQQjvIZZi4ASVfnwj+/gI+ffSS4Bbx4ldfPp0vUZ7srS2yw932mKjIvP+dxv7uBvv3cr7U4HE0MVlF0X5JrpRS2SO0gUMMlwOM6/ZR2XrdhIIxtz8olV6T4FzrUoyg6bFE47dBF/e+Z+4EJVwZFt+bzphPM8sCnypn+7iqd99gqe/q/X8dwvXM3TP3MNbzr3GlauLckeoYqTKACOQpVzfnQHH71gOVkjx7vNnZJGR/8fCpwTmkXB5397J+/9wR2UZIgHb8m87UbQp5P3pGbnqEVyRzHFxUBU45tX3EcpGTKmbloslRdGTT0TW9LPnKbnw884gFmNNDLVxzIFfqYtjqDw+7tbXH7vIFctv5/rlt3PpfcN8vu7N9HSnEDXlfDwYWZ4A1XPP/z4Lj5y/kp6fMRrG5DNPTcfBgGPYjSLBv9y4XLe850bKaOBeKxKDdvZiHrN9KIWyR3EkXJNrntgIxcuX01vnlWtrUdhoOJx0sEFYSCWnH3CHE4/aB7BIKpLrRWm9ZLMKBiikRmFU1zegKwXl3uyPABKRsRNcVPcbWFmI7rz0Z/cwT+efxfOB0rpAbJu6TdmNqbscGrEauxy3VsK5vTlOZ+6cDl//d3bGFLDuWqxb5vr9GtmLrVI7igiIJ4LbtvImqGU+7iVwSCODi7NxzZl337jTU84vPKLhdRE13nsYbB2xsVSIvRmGVGMMnU4r34PZgQciOBiiTMHZDTCEA6qhh1p5ERXA7QKqkwlho6yzJSg8MEfL+MffrEcKRxN38FTpgoaSwLpustd0sVItE3EUZY6avrixOJlGJ2oqTBAkuUax+myJC5iIUe90cwcX7poGe/9wc0MRsWLpsbIplO+TWoeXrbe8zUT0nXGl0G54PpVOMlT9+yxD0QpJBCj0DblWcfty1GL+sDAyeZKmkckjm2WZrxQItoBVdQEix7RVNcckWp6jkMlI2aNkZnhXhyBPjCjNChNU5w5lpilbkdTGbQQS4niMXYIET5y3g189Oc3U+TJ/xclr6ptqowCSfOBACR20gXAeUQjJyzpx3fv3zJvZ+Qzm6WE9BMW53iX48oWwRn5mGCMiIAJzoPT1D3eZxmf/83tvP97NzNYGrEqPd36Klozk6hFcocx7tnY4qr7B/BeEQvjLOZSv0gvkd5MeNmj9kEk2S1jl2wPNyZC6RzBsmRpCURRVEIKOLk0XgyU9cMdYnso/eYc5oVSHN51cFlOLi0KaQFK6RwlHpXNS+KR99wF0VQRxITMO7500Qr+/pcryfIiiZ0ZGlPC+HjbVXwSqeG28sYzDuAdTz6EsixH7h9/fxitqLzxzKP426fsTdv6CGqgaYLjyKNszMVRwDvBZ00+9Zv7+aefLyN3EF03y6FmplKL5A4iwGXLNrCupSl1ZxyJNIRgnpbBkUvmctrSOVO/Dt1JxCINbZEJqUbZIjlK5jJMhZseGObrl9zPa/79dp7zpeu5r+3JrCQTI8YSccJgu8O5Fy7je9ev5br7A8Oak4ujKZHMfLWVRr3nVkI0eZwZ3il3b1T++YLlFFKSO9CqBntbAZq29DBcwpsfuw8ffPYR5NpOYzOqzzN+qk66L+90+MunHsHfPOVAOsERXGp1t+3npgtM0Uh5lLfcuwYRN2qJXzMTqffeTnD1vS20M4CKoJY8dKMRwIlQxpKnH7M3DQ+R8a2dhxsTT8c1EAt4BwNt47J7hvjIz1fw7C9eydM/dxlv/NZV/N+1d7ByoI3TDp6UT54hqELHPJ/49d288qvX88zPXcmzPn0x7/nuDVxw+1rWD3cttfFFZIdRUHH87s6VPLBByYsMqSqaRgvWWMzAtdu85fR9+cgLjqcva9ORxkhncbCRSPiWGJij5QA6/O3TD+L9T96b2G4Tteonua28SxMKhnlgOPCbZSWeTl2PP8MZ7yipGYduZDVE5caVw+AMib5aRo+xnDAsdujPG5x5UCqPS0MJHm4MpRosXXUtElMKjPvWd/jkb+7mOedey9M/+Ts+8IMbueCW1WwYCvT5HrxkaRa4L4iuALNqaqPHaUmeOXzmWT80zIV3D/GRX6/irM9dyjM+dykfu2AZy9Z1RkRELVRVOpV6WUTHLF8nInrBo6xeO0xHO5QkoZOq6bBZEjtfDWJQ7zENtGOHN5y+H//4vCOrPFZf9eGs/B4p5DbOOiAtjk1yMEfmjfc98zje9YyjiGWgpEy+yGpaZZeuUKt3GAVRM+7eOAg4/DgiXjNzqEVyB9nUUh7YMEB0Ho9gbH2yG4aKsHh2HwfPa6QhAvLwnyjd7uVtUoch54T7Btp8+Bd38oRPX87ffPcWLr1jNdE16espaDRSGo1KCnZkgNOAoJgIammErYrHd+eE+5xer8xpKFne4Jr7B/jAd2/lWZ+5hI//7DrWDA7hJEvP1QCxpIUfuyKfEGcCtPE9DZw3ekIrVfpUz5fKN9mRkkwDhFTZ9OZHL+WDZx1JM88wC0CGc1Ufzuq5E/VcEjG8RZAMM4dK5P1P3Z93P20psWOUFmlHh/jNxQDdzyGxxAG5Reb3pYyA+jSb2dR7b4cQ1g93WLVpkMxlVQla1UtrFIYQFQ5dWLB4Tg/RrJq28jBjhqmBg8wZv7x5Jc/9wpV84AfLWbNxEF9kuJ4GYq1xxWIyOEkCkXprGrl39DQ8y9a3eNdPV3LWF6/mV7etxVepUu2swGuYdCK9oEQreOwhc5nVl9MxX/lSk0gL6XsWqig9WDvwxjOWcM4LjmJW02Ex4kaWxZNT5mShjv6L4Jzxt08/lL958uGYBgrfQcqtv0SUJkqbnh7PY/ebD1ANgauZqdQiOUm6S8dNbWNDJ5KJS5MNx/NriVAG5cB5Bd47xMZb1j0cGJkoWfB8+tcreP65V3HDvR1mNdoE3yDTkjyWmOz8FD6tBEUkVbuIc7RdSZE55riMa5ev47lfu4ZP/24tYh0yC3gicZIXDZXkMjhur7m8+tiFbIwedWFkqqJBek/pYUM5wKvPPIB/es7R9OQhBXc2p3GC7Xx6UmlCJOcDzzyAdz31EIbaHq32fXrN5KPMJbKhnXHWMQs4eb85BLMqg7RmpjLOGV6zLTa1IkNqafXcjdmMOe8EQIy9ZqdxnSb2sKeBdMWgY56PnH877/re7URpUBRGkCqFhgwj2yUBF9lsSZsl32dOjgHR6f9v773jJKvK/P/3c869t6o6TA7MwMAMQxzSkDEgLCLiCqigIigqJlBRTGvadXfd7xrX3VVXBAP+UHTXhIqg4qKuAUwIikjOIBkmdaqqe895fn+cW9093TUzPTM902HOm9ele6pvVd26955PPec8Cal2QqPO+y77PR+++iHUG1TD+uFYUCzWg9GCd568P2cf0M1Af4O+vKDpPE3n6Wk0wfXzrmN34yPPX0aWWbwrg8sJwf9hlj22xuQtwR9O4sFqnQLhA8cv4wN/uwfGDdDbdORecaoM5AU99V5O2bObDz9/OTYTjPNjtpojk5MokpvJuqZHXSj7KIROiSNHnoQuNizsCmtWRscqCVuH4vCqeO/wQCHKJ39+Fx//3zvIrKdCcKCkKsGZI1quqbqwZqohsBy1wfr1IRcZseGboCyZhmpYqxSABFWLqMfiKEyGqim/FByiBcakmDTlQ1c/yEW/ehSblGubZeYP6sC5UdmdlCE1YhMQWFhLuOCVh3LRmUdw0j6zWb6wk70X1nj5QfP4xmuO4OMvOIDuLAvLINYGDzQy+C0mBIfPWBhpcYqAsdUQNG4S/uGEZVz6msM4a+U8ls7tZqcZnRy7bAafOu0AvvTqI9hldldYozQMtsqNTE3i1dtM6kUBhaKGICIbkD8RQ1bOKIMndGyDc2vwahDNUQUrnqtuW8snfngbPu1EbYaqxyB4aVm3wVIzHtCUBhmpKUAaeJoUeBrNOj0DA/TkQn8hNJyQY1FjcV7x1ME08SbB+ZSOPMeoQwmV2E25Jpd6j/U5H/zxLfzyjlUkEr5MvAvruuFLZwPnEkASRJVaqrzuyEV86/WH89u3Hcqv334kX3rV4Tx/xdwy+ylI4ajJfMupvaVIWFM1raNUOGnFAi5+1cFce/5Kfv+ulVxx3pG8+VnLmNuZAIKVkH66le8cmWCiSG4m3rlS8jbdN2V7D40gJh5rhUdWN/iny29irenCqWIpW6KOOGRBcdYCA1Sok2tCo+4xVNl59gyetmwOL1m5E2ceOJ/n7zOTgxbXmFlJaDQdXg2GGmkeWk8005Rm4tARnvwQ7y2QpazOc979/ft5Yl0dwWMlxEGqkTL1ccMED3JoASseOmxGzaSIenyZI902dnGckTK10WkQ+NkdFWZnlnRYF8tWmqRqOObI1CWK5GYy1H60HKzbYVCOlWAZVlDgwmv+yp8frdMhjg5pYHyOw+JGLY2W/WF8hTyHmjWcdfQyvvvavfnpuQfw4zcdwdfPPoRLX30Ql73hCH70psP54Rv35z9fvC/7Leykr5nTzCpQNKkVA+DT0beVF5qmBr6fbpPyu4fX8IXfPFpah2FpIATlb/pcighiQIziFJyG31te9u2FiGBVsV5xPuSQe5OWefHhPtGg2tv1uCLjTxTJzWTkWlX7SLuJwVNgvHDbEw0uueEBqibE6KlavKmhaqiOstYE1ZxcG+y58xy+9bqVfP605Ry792J2ntNFYsJndr6AosnsimHlohmc84zd+NGbD+GfTpgPzV4aaTfiQx776DPiqcgASAdqDJ0Il/7uQe5b3R/CkySEeY8yczeAqAFVrBSI5OHfE3EriwlWs4TiH4aQaTXozY7iOC2YgDtratNahTQa1qc2NBC01U2RYCBtjxNt1IJRvvenh3hkrWKtx0soEkEZCB4WCxTRMoSJJs3CsP/sDr7xyv151u7deG+CE2UwBQ+sMZgkRcWgZf/qObWU9z/vID5x6j5UmnU8hjwxowLnW9onCOoLksRy/5omP771ScDgfSgGMsrI3RACofxOhphsg9dgm1Meh5EUI7Z0CrW24b9FpjLbY+xOWybbABBjWFtvctWND2E1rEEKoSRYWEVTfBnPV4jDqOKlipGcD7xwX/Ze0IF3OQYJ64iDH1DKW2VIBrT8IhDgtc/Yg5c/YwkDuSP1jTJLZjhC4Q2CQ8SUU2XPlX96kGbuQriN+tbi5ZhYX44mjtHHMRmOKjKeRJGcVnhuf7yHPz6W05ENj6IewhCC270F66G/IRy/Yi4n7jUHXAM1KT4kIo58aluc5tgi553H7MIuO82iaBYhjGgEw409VagkhusezfnrujxIb5mxE4lMNqJITjN+fW8P/cXQssAojKDqQndHBCvwwv3mUUmTkHOuEgpbtH/2IGEaLlj15JKwbG6NU/efy4CmbQ3C9ZwXGhpprept8ocH1gYLV9qE7UQik4AoktOMWx9vkPkBHKZsULa+YhUoYhy2CFXFZ3cYnrn7ItCC3GShHINrV0i4PY4M4+soygv3WUAtc6EAxQh0eM+Z0hOtPueWR/sAwYsNJmYkMsmIIjld0ND/5eG1OWps8LLqaHvSKohPwChNb9hlZspOM1IQSyoh9xpryzDwTWNQvE0Q71i2UzdLZ1XItUDx+JD7UhYVa62KDq1nWrXcv6oBKA6DylDV8EhksjC2kRCZ/IjQKDxr++tgLDrKhhxCEVRCm6wFMztJy3lu2H/DHvt2iHrEpCCGmVXL8gWzcT6IbCsJUMIsf5STI08zHq971DusV1TTEa8eiUw8USSnEYVXBho5Iqbs0td++lqGGYJ3VNOtK3CBMYiG7JNaath7boVG3dHT8PQ0dNjm1tt6Gw4/MEBvf526UxJT4GOOc2QSEu/KaYQVyGwIpxEJmUFt8aUjRSz9jXwTLppNIYiCEYtqwd/uN4+3H7cL5z9rZ95+zC68/dj229uO3YXzjl3Ci1bORYzBe7Nde3hHImMliuR0QZUsMXTVshBzOKpwbEBgsGCtGsvja3up5+XkvN0TNoFK8JaD4BWO3nMu/3Ha/vz7qfvxiRet4BMvbG37jdr+6yUH8LZn7UoqHm8tMgHV2yORTRFFctogZNawqDvDudCwqm2JLg0VjNRDTTx3rWtw11MDADh1qCvIfSimOxYMYG0SwoFMgsGWlb03vQXJTrAmJQFEhtohRCKThTajKDIVCRNVYe+FNRyhVw2j8rQpUxFBSSBRBvoKrvzjAwB4ErwkoB4jWz71bcVQbmqLRKYCUSSnCS3JOXzpDKqpCdVxtCzpNnw/AdWwjqgipJJw6R9XcdsTPaSmCepJpIi9oiORkjgSphkH7DyD3WcpuTelco6wCDUEbluaOE3IKnD/ascHr7ydNc0Ea0N5r7IuTySywxNFchrhVZnXkXDc/jtTOA8SOgsiwalCWQdTRbAUoAleCmbaJt+9aS1v++ZNPNXTRCTFDAaihxYLg1Kr4ffWXyOR6U4UyWlCa43PorzssCXMrTmcKx0w3gEmpP4ZwWpBblIMOeItziZUEs/X/vAgJ3/uD1xxy2ODMug0VBFS78KG4nGo5qBFlMrItCeK5DTCqJJLwpG7dHDagbvSlzssjkSUVJuILyh0dBkJj0NE6cw6uf6xXl71lRt4/Vdv5roH12BFMeIxqsENJJ7EhUK3nmS79O6JRCaSKJLTCI+ANhE87/ybpew5O2GACr0uQY0lUYcZuUYpkHgh8wkOSyc1KFIuveFhTv7cjbz+67fx2wf6cOJIjMF5g5cMJxahgehoD3okMp2IIjmNUIGEBOcTli9I+eeT9qdWrMUmKQWha19oLzD8SdA0Kf2JxdoBRBoUJqdSgYFGk0t/cy/Pv+B3vPq/7+Qnd62l8AUmtFekwKIjXy8SmWZEkZxGCEDZlsGr59RD5vPWE/ZB6utQX5SWpgctq/NI6FCYMUDFN5AiJS9bIiTegDFk1Rq5Wr79hwd4ycV/4PQv38QVNz+Fc5BJKGHRqvQTvELr+9PjimVkqhNFchphyk6CFoOQkonyvucs5+3HL6fpE5qEKjtqslB73Od4W6Gh1VCqzHiMOkRbAioYwppktZLhnHD1TY/ziktu4qQv/Ilv/Olh1gz4EItZ5DiB3Ofg+vB4nCtQ3yz76kQiU5MoktOQlqdbvVI18L6T9uVjJy+j0+T0NSF1DbxUEbUkRUHSpu5kO6xRTCXDG/jN7Q/xyq/cxomfv57PXPsgT9RDZfHUgreVYK3aBG9SLEVZTTISmXpEkZymiMhgdZ2qc5x/zBK+9dqVHLWkkzW5xeS9qLXkCAnNYTk7G0Z9QcUEwUurNbpswU33r+adl93MMf/1az5y9b3c+2ROQoIRS+JD/5vcJ2N6/UhkMhJFcpojJliJhReO2XM+3znnID560lLmdHZQbzhUhKatjnxae6SGdwniQ2vaurWkSUZ3Yrj/qQYf+NEdPOeCX/PBK2/lzqf6gy5aW5ZAi5ZkZGoSRXJaE1IMxVoSAe9hfmeFdx2/lB+fdwTnP3MXZqfQqDfInQMjOBJQwZiQvijek6gPPca1HzUFWIv1QtUJanMaAhUxdCcJj/V5PvyTBzjx03/kIz95iMf7mliroRq6FuCbpVxG0YxMDaJITmuC60UQxFiMMSgWr4Y952d87LQ9+d6bj+DvjtuNJd1VegcEcX1Y06DwDvUFLqmRk+AweKmCmtKxozgD4g0WE8qvCVgxVCqWx/t6+Ocf3MIpF/yWy256BOdzHFBgaDraNguLRCYjUSR3MEQBb2iSIHgOWdTBv56yL1eddxj/dvISls+bQU+RUldDojmp76MpCZac1NfHkGGj1PwA2A6SShc3P9Lg1V++nb/77m309OdYk5BRkMdbLzJFiHfqDobiQHJSFcSlFF5pqGe3uTXe9uw9+Nl5h/O5F+7BUYtm0nAV+prQ4XtwCk2TjcFLLfSbblJyUq2TVCsYcfzXNU/wmq/dxhPr+hALNlqSkSlCFMkdDgEx+LJQhcWRUeC9o/DKzM6Es5+5G1ecu5KLzzqAp++xgNwJhQu54WNBBHKVsrp5DtbQnShX3LqaN/z3X3io12E3ZZBGIpOEKJI7GCIGIVQDUpuAZIhkICnWtMLHYUbNcsbB8/nhOfvzldccxjF7zUbVMdD0eE1Kn5ALdqU0USw5CaKO1OVkQCIJ4i14g4owI3P84NaneNfltzNQKFDg1ZGjoaqQH5sIRyLbkyiSOyAiYAlbK/XaCsHFIwYh9JzNFSRJeOH+s7n8NQdwxRsO5cxD5lJJC/qbOa6oYMWDr2FpkNIAk+EMOFG8BAePiIJ4vLHUsirf/eNf+eZ1jwAJhfdYVUQthYnmZWTyEUUyskGsVxI1qDOITXnWnnP5wisO4YdvOJyzDl1IkjnW5BWsUZpiydTg1aMjGpCJKlYMDeew4vBJxkd/ej/3r+rHWoshNAYr7dJIZFIRRTLSFieWwgqWHCmbhzW9R9Rz+G6dXHzWSi579UE8b2mVnnoT61L6ElAMZlTHCEPuBWOUBKXmGtyxps43r38IiwnVhEyDNE63I5OQKJKRtlhVMudRoJAgcJXSI104T9MV/M1e8/if1x7CecftTuH7SIuQ3ePb9M+2oqTkNLQDK1WqvuCrNzzO4wNNLB6hhpFYmzIy+YgiGWmLCGANIimWBEjAWsRYrM3ITAYKXR2Gjz1vOW89dhl9Dqy6sKY5DFVFcQgpYgq8QCVNuPOJXn53Xz+CG8wOikQmG1EkIxtABotSiLR+M5jWo60/+4I0tbz7+H141vKZ5E0fYjGHv1L5BFWDkIdoTRGahXL9XY+BJGW40OjWEpHIRBNFMrJ1iNJwMLumvO3oXfGZDcV3N8iQtSg24caH1gQvukjIa4xEJhlRJKcBqsE7vLnbuCBVEqOoCsfuMYcVi7rI3foz5/bvpSQC961zrO6rY0Z4xCORyUK8M6cBQlk/cjO38cB4BTxeHV3VlOOXzgxhQMN0sf17eVIKeuqe3npj5B8jkUlDFMkpiqoLbRG8Z01fL/9w5V285bLbOP+yWzj/slt423du4W2XDW1vv+xW3nHZrbz1slt59+V38ciatXgFR9mbewtRBFRDpSEx7LlTB4LSqiDZXiBbmT+GZl5QL9rvE4lMBqJITmHEKWKENU3hkmvv5rO/uIeLfnkvF/3yXi785X1c+Mt7+ew19/HZa+7jgmvu5TPX3MuFv7qPC39yM/esyhFxGC22LoRbguAhBlDmdlSx1gRn9Qan2kFBPULhCooyPnIDe0YiE0oUySmKYDBGgi1nBFPtpFqrUalWqVSrVMuftcr6W2etA1ft4v5VzTBNL0Is5Bajup4zxrtivVqRGxJJBdQKRsCW6YgbMDojkQkliuQUZVCGVKmI0il1jMsx6svNYdWTeLfeZl0D3xzgjif7AYvarQy7EQF1iPeA8PhAgfOE/ogbUz0NlnAlS6mmCVBs3CkeiUwQUSSnKIJHEbwabFKhq9qB17BGGArjhp9u+KZCAaitcN19q6nnOQgjetBsrlK1iliAw3Prwz14bLAty9CettakhJzuziyllmWDj0Uik40oklMUAVQ8XmFmJiydU6NQQQWM6UBooJIMRYJLuNoihlpque6e1dz0WD+iQiGhnYJXD77Aq+La6Fq70CH1grhQ2GJtPef3D6zCiGAkLAWwQeeNoM6zoCuhqyahBW2b94xEJpooklOV0kKzomSp5YBdOsEX1Fwdp/14n6HSpkuhhoyYp5zwpV8/iBNBvA9FJjCopIh32KEJ/SDtQofUOHJyjM34491PcvNDTbIkWW+fdoh6BkzKsnkddCcJ6oPjJxKZbESRnKKoBtNQQtManrn7LKqVKo4KhSgiGdY3Rz4NK6BYalb5xvWP8v2/PEVqE1JtYiQPYUXGwBjbK1jvSGxGf97gP695hIaGcmibQgyIzzl4504EcNIq9xuJTC6iSE5RREK3GVVQNRy+2zxWLEhYR0KqBucbowpNQBBIfEENoSiE919+E3/4ay+YFHFNBMWFOfvIp67H4NTbJBgx/OcvH+b/bn+MLNS92CTOC3OqwjN2nwFo2clxLM+MRLYvGx8J0wSlVBN0KK948MfQwAy/t7ZtiOqw928d3/C/l/9TJfw3msG1QWMoFLor8MojdgbXT+Y8pFBQOkSG4VCsdTRJsUa5d20/Z1/8O67486N4qWIlhOUMpS96VLUMOA+bR9HSKdPnDJ/8ya38+4/vhKRGoskw1/twwnNVg7jnhefgXeay+8IOHIqobyvqW0+7sxeJjJ1tcVdOKoLeKHiH9x6nHu8dXj3OFahTvC/KVDqH855cQybLWKecY0VV8d6jmg9lzGiBugKniroCzfvwGo7LqQ+Pt/FoiAiJCIKQSJh+v/TgJRy+80zWYVAFS7He/hDOhWqKSIEaqJkKd/XCKy69kTd++zauvXsNeD8sfRFEfOmICa9hnMcp/OzOBznry7/nn75/Bw0sGDc8OGkYggAJijOGRBwijpcfsYjuNEExiBbjrmcioN7j1QJD8aCqwRs/uN+w8yPluRz6m9sRhklkI0z7qy+U4mMSvFjUWJyX4PiwCViDMQmICal15ZBWyhEzLgRPr3cONQZvLE4cTpuAw1iwpkCsUKQZHoM3oc+MdTrmizS3K+UDJ+5JKjnWZxia6wV2iwhmxDRaETIpMMZz6W/u58VfvIHnXng97/neHXz+mge5/JbVXH37Gv73lsf44Z8e40vXPMg7r7iL4z79G0770m1cectqfG0WIkJGsJBHOncEj5qUhqak2qDRcByydC4nHbAAnEOCWYob5x43ntAZMryqJ/w2lvfQwS/IcdbtyBRkrONvCqNgLR6P1SaJb5DYgsIX3PdYLz+/7WGuvfMhHlrdh8NipBVpOGxqPh6oIiY0BBQ1JN6QaYIh44meguvu6eW3d6/mkSeaqFeMNvHWkFs3qj7jSIasxILn7D+fD52wjEazQd3MCCmDpfXULoQHPCIZqjNI0w76C+Wae5/i3395H+d9+2Ze9oXf86LP/Z7TvnQDp37lJl773dv4j1/dxQ0P9iDNlMxaUnFUKMB5nCSjbElFkKKOGEW1RpII//jc5cyuWQrJQiVzDVP48aQliaFQerAJ2zH8nGj5nKzV83ZwZWScDy4yZZj+IjkYYG0QX4Cx/PnxnHO+ej1P+/TvOOmL93PCRbfyzE9dxwe+cyNP9NUx4mli8ONWvktRQn6zUYfBgTE8ngsf/PFtPONTv+NZX/gzx114PU+74Dped+mfuOWRflIaJF5Q3XRWjIgEy8k73nLcXpx79GKKvrX4kX1jRo11AfGo9JHQJEWZYat0JynVSkKSpUhWxdkKWarMTAxzTBdVSSjSAVLbBJeHWpACxoYvhJGoWJLC0d/o5X3H781z9ppNjgkl0lTwkrQNO9p6Wipn6avneB9C7Ufssd5yhBWoZq0wppF7R3Y0xksFJi2KIKUDgqTC7x7s49Vf/C1f+1MvRaMgtWtIEs+qvpx//9UTnPW1e3h4XU7F95fPD2M+DPs2cYcboRXSEmrkeILBFKaW9/c1OfeS3/Lxqx7k0VX9pL4gsykDPXX+56a1nHbxn7n2nhxjzdhr0aoCCWKVj71gBe987nJUlaLIQUPr1tBHNjT2CssLBu9AJKOQlKa1DEiBGsFgSdSQeEdNHdYDGJwUYMH6BOcTnKnSlAoeg/WNsI6prhRuA97jVFjnLec9cznnHb8E8R6rHlM0yqpBZZbOOCJa9tsRBZS1/WHtecjGHNwTNCzNeFWsNXRWSpE05awissMy7UUyrCsKVhzrBjwfuvImbnzc05GBWhv6rmCwGDqrTX52+8OcfclfuLcPDI7COdAGzm2OlRPWwqBVYSeEt3ifk9iER9flvOWSP3LlrX0kFYNJ01JQPWostarhztW9/OPlN7O6Xwdbrm4KEYs1QfiyxPChk/bmk6etYHZXxkDT4DVM971WQok0XJAnY0L+NUWZ9w14F3zh4lEJcYxqJHxRiOJEURFEJTxPPGDx3gwKkHeh+q4Xi3c5bztmMR95wV50GsVJaUWmFRIxJEJ5zsYPAXKE8IGUB9fm5TKzDqZuhv3KdUv1eJQkMcyutUTUIYPCGtkRGd+7chIiqjgBIwk3PdTHT+9Zx5xstOAk4imo0Z04fn5vH2df8hfuXzVAaktvqNEgdmNy5gTBa5IES9QrXsEmFZ7o6ef1l97IVXf30llpM/QkWF4zMvj9A2u59t61oxwhY0MQhdc+bRFXvP4wXnDgQpouocgLDP1YHFaDoHl8aSAPvc/oM7QBjEXVYbQJeHKTBEcMCWINzYEeZtYsn3jpwXzi+buSZQ5XJMHC3MaoCAmCUWEgV+56cu16jisps5aUII4Og5qEztQwq5aWL1IudWzJJYhMC7b9nTrBqChWAZSbH15Lf9GBl6HQmBZOFNGEwnTQnfTy2/vX8rr/vpW/ru7H2SyEqJCXToBNoBq6SdvSW64F1hie6G1w9lf+zNV391Kr2A0Uuw2FK/BKLyk3PNxbStamR+koMRVBPazcZSaXnrUX//Oq3Xna0nlokTDQgNwkIGDwyDDPsjFmlBd8QzjvsNaiqhijWAOFUfqaDZSM0w7enR+ds5I3HrUAZyoMeMUYSHw+8qXGHV/WtESVJ/pzbn+sN9S6HEYrzMl7RcSgHuZ1pizsqpQ7mLDWG9lhGdtImMIow6rQqEO0iUppJQxDMVjfi/iEetJJLS249o4nOPNrd/Do6j6MSUHTsVlYEhxF3vvgKU8sD/Q0ee2Xb+DHd6wjywRxjbZC5I2AK/CmRkoddaWgb+E4dTgK70lTyykH7cz3zlnJl1+9klP2n08q0NuEgdyHZYXybdR7vB/b8kLFCN4pOSkDDUfe30MnjpcdvIjLzt6Xr756P/ZfPKNc1zV0qOAkXJdtjUFC2qYx3PPkAI+sybEyZEH6wXhQwAgGD80Bls7vZlZHNix8KkzXIzsmo0fpNCMMlPD70vndZInHi0E1DArRMNV0icVKSsIAmc9xVLEdVa6/+0nOuvRWHlrbAAnrg15s6fluP3BUFWeqBJ0RHu1p8tav3chVd/bSVTWId4hN8W08Mlo6MNQIxjfZc6fO8D5trc71Gblu6QE1KQk+LDtg6U4TXnjAfP7nNQfxi7cczAdPWMKzdp9NpxV6+3N6cqHuFE8SPqO6UHcSIVEHZcWg3AsDuWfdgGOgUTAjUY5eOoP3nXQQP3rrsXzplSs5fu85KFAQzpUYQFIS8ajZdBGMrUZDsD7Ar2+7n0bRqk60Pt6DKb3zaMFe87tLIaV0bo1+TmTHYdqLZMsIUC8cvHQWhy2s0t8EkSZOMzxJmBrnjkKgEINiMHiMKpWK4zd3r+KVX/kLD/fVyUyokKN4REKa3UixNAKpq2OzKk/0DvC6r/6Zq+9YRUcl+EmHBuBo4Uu1QJMM6mvYY/HOHLP7zDFbXSOn2wZIETAJIimWUErNayh0ccDibv7+xL349usP5sdvOYoLTj+AM1fOZp+FNWaaHOMLVAzqFRGLUSXXhGpiWD6rwvNWzOcdz17CV197CD87/3C+d+6RfOA5Szl4cbXMAjIYhITSqRTm9iAJrTDEbYknRBL01gt+dGdviNP0Ic0yWJDlLEMMthVHmWQcsWQGtKbiSNnJcTsccGRSMv1FUjzGBMfJ/I6Efz15H+Z21nBOyKiTY1Gptg01NjgavsrMqueau9fx2i//hbvWCZk2SQjTR9fGGkTBGM8jfQVv+e8b+OHtfZgRa2Ebwosnb/ZRqc7mwycuZvGMFK+trJGtR2hZWAAh9bEzSzho527OeeZivvLKA7n6rU/nm+cezh4LOunPlcx4vMup2xoUdT5w4lJ+dv6RfO91B/GxU/bkpQcuYO+FXdQqoXpQyPceLdrbG6seyLju3qe48aE6STa61FtYGCGkh6phbnc3hyzpWG+fyI7N2EbuFCeXYME4B8fus5DPnr4nXUlGvzN0ygCutcDfloQBrdKd1PnVPav55I9vQStdOILXM2lTFsxhydKMz/3kFn5wZz+1pEDs6GIT7Wg4qGY1PvniFZxy0CJyD1Z8Gcq09QRLFsQYtAycNoDziveC84b5FXj60pks6K6FjoreY0VQ7ykQ9lk0m3ldKU2nNLV0QLkCcTnBeDOjxGhCEMA5LvnDo/i8EWYAI4+r/LLwRslzx8E7dbB4xnZYCohMGaa/SKpBvGC8R8TRdJ5T9+vks6/cj+4sYcApRvrbO3NUyKQfQ0qDjMw4nqwLRnOsKKrty3sZdXgVVhcpIkJmLFZHi+lICufpNIbPn7qMlx+6AK/lelg7a3ULkWHTfbCoGrx3QAGGsIQAoI6mU6rGUZDiDdR8L1agUPB4PELiCxCPtwnOZhSTqSqksfzhgR5+cPuTJEkVq6NbSXiC+DtrEfWcuGI+lTQbtV9kx2Xai6RKaYmZsqKNsXhqvGjFAi46c386swqapzRMCJcJa5HBmaNJAt5gZIDUKIWphu5+6kKw9Qa8tCphTTPRAivg2uwDhGRFEaz3NNSRpimfeckKXnL40tIT7xFjx82KHI5IKPIhAsamiAkB7UYoK+JarFicV4okIaGgkXSg3pAVTYx6rBWwIRg/QUnwJKX/Y3ujrR7iZYUncDSc49O/eIievjpqFC/JqGNr5eo7Z5nbVeG4FQtKa3j01DyyYzLtRTJYTracAiakZSks5zwvPGA+F5+xP9WOFFtvIklOLjWcpBgKpChQExw5fjDvGpwk5bStnUQS5E8MIRQoDMR2donFkLuUQoWKZHz2tD04/bBFZYCzQUzCtpz4tY5dBm8EA1hEwWFoNPpp5DkDzX56Bhx9haU+0GBAqyAJxitSeoBDvqOdGIUE0ALRMJ0O+eqe/735Mb5302NU0wQRV1b2Wf9KKIIVT7Pe4Li957HnvLSMC4hEAtNeJNthRLEUOO95/gHz+eJL96GzM0NzQ+p7yLF4qYwaUOOOOqzvR5IKF562F2cctmRwmjeRVowS2sSefvhi3nv8Ut597BLe+Zy9eM8xO/P+5y1l9wWhcZcpM3YmBSKod2U7CcuDqz3/9KN7aQikBgrJSqtxfbxYmmLozIQzD5lLIpsuJhLZsdghRVJFUUmCGLickw9cyIWnr6CaZDRdSocMhLyXbSxUAwokFT532p6cccQscm2GOMlt/L6bRMB45dxnLOXDpxzIx05ewUeev5wPnbQn/++U/dlnfg3weHFt12QngqIMUVJjKHzBB39wGzc+VqfL5mjRQEQI84D1z63F058bjtptJsfsMYdCCS0uIpGSHVIkUSUXV1aqUYrC8aID5nPRK/elu5JQLzyiDfw2HCy581St5bMv2YPTD19IU6sYzVvFDycU0VBB3PkmTnMKbeJohorphaNwGU6TUCZigvW8RYIi1pCL8J+/uI+v3fAwHTbEdxa2C+sLBDdK0lWVqijnPHMJtayKOLftZxCRKcUOKZJGlEQSjLUgGTYJVuWLVszngpfvQ80avKYUIhh1hBqDoQjC6AnbWAmCYp1SaEGSplx06j6cedgSUCUVizGdk+OCiITKPCQkJiUhw1ANAeWJktgQjJ6InZBsFA9oGS3gVYOTyzkQy1evuYd/+eH9JDYlsYLTUEI5rEcaVA2WZsgoQmg0lWP2msvf7rsTTsFY1zbIP7LjMinG5PYnIeSCBOeKlIOtUOHU/RZxwRkHkVolyXvxSKizqCkGh2zhor5BKDRjAMikyudetAenH7EoBHav11hg+4vOBjHh/BAc4WUGShKEUYKYTgSiITnAaR0vPlQUspbP/+YRzv/Bw9iiIDEaMoVCyH/psQ+58c4nGGlgCk9nZnjb8XtSzdxgF5xY0CIynB1UJEdj1JAUdXJ1vHjlPD5/+gFUKjPxRUHFN8AkqKZbLGKqii36SJOMz7x4OS87Ygm+rFA24WuQUwyPhBhVDbnlhSqf/Mk9vPO7t2DzAYpKFtJLR97dqggOYy05hrrznHXUzhy/vDMU9CiLBUc7MjKckbfRDosT8EmVxBu0UF588EI+derupFk3uVpSP4AYMFsSZKxKA0WzGp87dS/OPHwehe8P9mUUyDGjZTqloYmYkHW/ep3jrd+5jfdfdU8I/xHowKPetUrpDiIIqXc0fQPfMOy7SxfvPX43BChstVxKSeOgiKxHvB9KpLRIVAoQofCeMw5byGdPX04iSu4V9TluC6pnN71SNYYLT1vOy45YQKHV0EXBbNnUfUdGRBFJsGL4vzuf4qQv/pFLrn2IVCDBIbZCoxAyG6r7DEeBQg3iq8yuNPnYKfuysCuhUCXxTVLnKTSBNqmmkR2XzR/x0xQrQmIsxljEWBJjUU04/eA5XHjmwdSM4NSQhHBrjGoIXi4Hnzc2VLbWVgtYi8XTdNBphc+ctnfppCH0yzYdW+X0KFTJcRQ4VMGrKwtLDHVFnPxbyJQZ2oITRksXmfeKc2WTiWEFM25/vI93XHYTp11yE398ZIBaCpiykZh3mETxziB4mlYo1CISCm+IGAoteM9z9+KEvWZTkGLFYCRBjGAtyDaMaohMPaJIthBTngwzWHPQITitcPrBs/j0GftTMUKjyBkwNZqmEoqyiiHVHFvUQ7ELm9BUg/M5BUKWVPj0aftw5uFLKBMRh7/psN83D+tdWeUmOJ3cMMGeKluQwhBpGRIJFVd231F1uJAdiVVP7hrc8vAq3nP5LTzvM7/l09c8gs8Nc3xfqDRvPI6kLF8XKpY4Y6k2LFWpUxSQYOlpFrzhqEWc86xlOPVYdaUjasiJtzXXJTL9iCK5ESw51jkaanjpQYv44ssPYEZHitZXkbj+YHloTkM68KYaEsVdjhHFF1AV+OyLl3LGEUtQX5RFJcYJkyBesArGCKkxGNEptVnxGPEYcVhREjFYyRAN0QeaO+58ZC1fvuFxXv6VWznuv/7If/zicR7rN3RWUxpJwUClCnSibrSwWU3A9FPXChUsqwvPi1bO5V+etyeZFYTmVlnzkR0DUR2voasMNHJecc67+cvt91LJZIu/kUUFlRDXVuQFy5ftwlcv+jgzu7uAMC3bHg6PQj3GC6oNpJyK/+r+1fzr927h2gfqNFXAGGo0y+rbCd41SQUO3G0u/+/5y/mbPbpwPhRWaNeuYUvJywK9iPJkv2Ntvy8LAE8hWmmCCk2n9DdyHu2v8+BT/dz8aC9/eWyAex5by6O9oZ1FTTyZegrj8UYQnyLqSaSBl/Wbi4Uz4WkiVLGsK/o5Zc85fOYVB7GwqwN1BWpCIeDtcS9tGUozz3nVm9/PDX++lUplbOX2NoyE1ywKdl+yE9+4+FN0d8bamZsiiuRGcC44alKVEI+nhtQKfc2Cq297kituepwbH1rHUwM5YlJmprByUQfP2X8xJx84l+40pXAeoUBNMs55wU0e6034wrX3cfmNj/DX1c2yx/TI/SYrGlq4lvUnVaGZK81CKKQJhMZcFZuQGhD1eO/QJCNXQ0pBQmhJEW7hUIV88LURVB1CQk8952UHzuFTZ+zHvM4KDRUy71FJEcmRNmXyJgdRJCcDUSQ3hpa9pQeH3frvrepZ1/DkRcjKScum9ok1gMPr0Prm1qClkwgD3gtGlEfWNjjza7fwy7vW0SlAUi/bn46ftbo9aJ3X1npgOF9B8MKdWQoeYMpOkoqE81GWqhMMiWtQTzsQ58kYQE1Kwymu6Tj7abvx0RfsRXdN24T4DB7BJCSK5GRgao2o7c3gQv7QMBoSyCCWM6sJ87oqzOuuMrMjI7HBw63j3HJBy66PIkKO5R+uuIdr7nyUmUmDzDrUVsolAZlSm239Xmb1tBw5g9YhtD79YEqoDFqNrevj6U9rVFwDaxo0pUp/U6ka4QMv2JdPvngPZlYF8b5NSeDxukqR6UoUyS1ESkunnSEuZcHW8bJ2FQmB0uVr/+Wvq7ni1ifJshSxCU1JSLSdAOw4VFxBYR3Gp9TrTfaa38WlZx3I3x+3hCTJyBWULc+Yiuy4RJHcCsZTCDeGlIWCW22g73ikl756PzUt6PcZGEX8ZJ42bnucePK6oame1xy5C1eecwB/u/98ci9IPoAhVIyPRDaXeNdMAVQ9XlproUqvgyYV1FRIjJD5JoUJVW2mPq0e462tnFa31mVHIkKj8Lim45Bdu7n0rAO56Iy92XVOJ4UPWTgkFVQktOWIRDaTKJJTAW9C+4Gy1uSiGQmZFHg1qA4ABpF8SrUd0FbJs3IZwWn4HTGoEVQsvqy5FEKbyk1D+TPnPY1cqQ80WbGgi387dW++/8bDedEBc1BJcV5JjITePWJIxCDjGIIV2XGId80UQG3rQllUCw7ddT577NRBkRekRY0BC5J3YLxFVKbEZlSwKEYdFi3DfBScYBwY70JzMXWYMi7SiaXpHH1NSGyVY5Z18bkz9uOqN63kTUcvY04VUC1ztlvCGolsHVEkpwRlwy0fLKuFXYZ/PG5PfFpQUNBROMSuQ43HC1NnU4NXG8rQYUHBiAMTUkLrXqmroafh6W96jGuy78IO/u7ZS7j8tSv49rmH88qjdmV+dw11HnUGL2kobkyIw4xEtpYYJzkFCJfI4TXBiEO8R7F87foH+MBP7uW+J+tYn6Gab3FR4Ilh/QyZ0GHSYHxOxcLMjgrzujNWLOzi0CXdPG3ZTPZf3E13NRT/RQtyLxg0ZNuYBFRDW+BBp9pUvk9inORkIIrkVMArzoTzYZ1SGMVLTqZVHlw9wE9veZKbnliD04lpp7CltNokKGCtpZIYZlUsO82osmR2lcUzqszqsMzpSknEhD294CQ8NxQYsXh1ZR54yL4RAY+dBhPuKJKTgSiSkcmPDvVk3LGuexTJyUBck5wGhAyf6bG1Q0tx3LEEMjJZiCI5DRie4TPVt3Zs6PFIZHsQRTISiUQ2QhTJKcqGpqbTnR31c0cmjiiSU5QddQq6o37uyMQRRTISiUQ2QhTJSCQS2QhRJCORSGQjRJGMRCKRjRBFMhKJRDZCFMlIJBLZCFEkI5FIZCNEkYxEIpGNEEUyEolENkIUyUgkEtkIUSQjkUhkI0SRjEQikY0QRTISiUQ2wqQUSTWtatSK4MI/Wn8b9jNucZvOW7jRFdThRVAEE4sgbXcmp0iiiDFlSX+PImRJCmWXDpHQ7ipucZvOGwg2zfDqMcaACD62yd3uTMpGYAoYEVQ93hUsXrSID77nLXR31fAehkoKjtOhRyKTgRG1Mg3Q3/R86BOf4da77iVL07Jl8JbaNgKxEdhmMylFUkTw3mOtoShyrDXY4TeQgAw2JI1EpgejR4uCBwc4Dff81hFFckuY1CIZfg9d9Mp/tXYIP8fpyCORScGI4SIIoi1zwIdxoVtTnT2K5JYwKUVyNDqOrxWJTCWCsI0PUSS3hC1d3NjORIGM7KiMl0BGtpQpIpKRSCQyMUSRjEQikY0QRTISiUQ2QhTJSCQS2QhRJCORSGQjRJGMRCKRjRBFMhKJRDZCFMlIiEOVsad5DmV8xPjVyPQnimQkpH36MjdYwi0RKjApSAhnVhRjQFDUO0LhrrKS13glbUUik5AokhGMUawUCB5Rj3rFiGDEgAe8YlRwTofKdkGZTxx+i0IZma5EkYzgVXBicUDulLxwDAzUaTTq5M0mRZHTzJs0mw0azYLe/gFyD14siGCM2YqiC5HI5GaKFLiIbEtUhHqjific+bNnsmKfPdh37z1ZOH8uXV3dJElCUeT099d59PEnuf2uu7n5tjt57ImnQCxZlmEHiyRrFMxJSyxwsSVEkdwBGaorI7giR13Oyv325uTnn8gzjzqUBXNnUKlURz5tkHojZ9W6tVz7m+v5/g9/wg1/vhlPQpqlYb2yVe9TtSxrN56VbCJbThTJLSGK5A6EalhrVKdImjDQ38fSnXfi3LPP5MTjnk5HZ2e5nyuv3ejrJ7BeBe1GvcGPf34tn73km9x974PUqhlarlu2rEof/D+RCSeK5JYQ1yR3MDyC2pS+nrU8++gj+MKnP8qpJz9nmECG2p0i7beWQLam1lmlwiknHseXPv1hnn/80xno7wWxOC8oNrxWtCIjU5gokjsA3vuhtUJVmo1+Tj/tZD72L+9jt10WoN4NVoIPtLcihzMomije5yxeMIsPfeBdvOqM03B5o2zgBs6HUKFIZKoSRXKaE5YFW4IG9Xo/J59wNO9/x7nM6EiDOJZi11p52dzYR2MSvPd0Viu89/xzeOkLnodvDIRYSinXJqM1GZmiRJGc1gRxNHjECPVGg0P235f3vv1cOitZqaAGFcEYGVxqHC6qmyKIoCCSoKokVnj7m8/mqMMPotkYQH0rrnJsrxeJTDaiSE5jFMXjMQbywtNRq3H+uWczb/as0vOchKBxpLwVWmuPI19p4wxbqgRVZnZ1cv6bX8esGR2ICVPuSGSqEkVyGiOELMPCJ+T1nBc+7ziOPOyAzZpKbw7Syv9Wx8oVe/GSF55Ms1EvHTiRyNQkiuS0RhFVnDfMndnFS15wItYM81RvE1pOH+XUU57LwrmzWc8nFIlMMaJITmMEsBiarsGhB+/LPnssw2/jqa8IKIL3Bct2WcSRhx5E0azHNcnIlGXcRDLEzXkEHz2ZkwRV8B4MBc96xlFYa5Cyys+2RkNNIY475pkhTlLiPTEp0LBWjYTrE8fqphm3ERNS0UBEN3vhP7KNEMGhdHXU2GOP3cJD22FQCIIxYR1y+bJdmTGrC+e2/ftGxkaIly0HbbTwN8m4iSQYEEH98Ni4yETjnGPWzBnstGBBsBq2wzeYamlHqmfO7JnMnzML54qRu0UmhHBtnHdxjI6RcRTJ8jupFMht5xiIbA7qlRndXXR3dYIq22NciAmOG0TpqNWYM2t2mPtHJg0yON2ObIrxE0n12CQhy7KwPjny75EJQREqaUJqzXabWakGcQawxpClMQRo0iCCqg/l7dJ05F8jbRgXkQySKCTWUKlW8N5tr/EY2QRGhLxwOO/B++1yXRQPZZaN90ruQgxQnN5NLBKuDKrQWclI02TkLpE2jItIBsNdEITurk6MiYNhMtHb30//QB2M3S6zXhGDL9+o3mywrqd35C6RicAQFsUUujpr2LgkNibGRSQBVIO1MHf2TIq8VY8wMtFYa1iztocnnloVvsi2RyhOWbcSDOt6enhy1WqsjVPuiUa9YgBXOGbNmhVH6BgZN5Fshd/tsnhxcNwMNouKTCii9PT0cf+DDwMMWnjbmtbU+sGHHmXVmrWYKJITjqoPkSfesfPiRa1HR+wVGcm4KVlroX7JLjuTJmbQsoxMLMYIuXP89nfXQ+nV3NaEELDw+29/dx157krLMjKRtFpqJIll1912HfnnyAYYJ5EcshyX7rwTMzpqOD9OLx3ZYkQBNVSyCr/5wx95/Kl1CKEYrtehupHj/YXmVbHiWbOun1/+7kZSG8PCJgMiglOo1irsunhB69ERe0VGMk5KNpTHMX/eLBYtmI8rPZqRiUPLLChjLA88+DBXXf1/IBbK9FGR1rR4fAdKSEO0/Pya33DnPfeRpJWRu0QmCO89c2fPYtHCeTHaYIyMk0iGxXpFmTljBitW7I26fOQeke1MkD4FhTSr8PVvf5dHn1xTWnSKqhv3grgti3HV2h6+8vVv4xUw6XbJ9IlsHEUo8gZ7L9+NnebPiwH+Y2T8RLIcaMYIB6/cH9UokhON11abQsUkCXfd91e++JVv4jyDBQ5U/bhp5JBlInzlW1dw0+33UM1SvHdxQE4CFFDvOGzl/lhjhrytkY0yfmdpMF/bc9jBK5k9a9Z286RGNkApfsYIXoWso4uvf+dyvnfVzxBCy1fWE7etR0T46S+v5eKvfoOk0gHqScz2KKsR2RSq0N3VyZGHHV4+EpfExsL4iKSCqCfUnFF23XkBh+y3F/XcoyQYSi9B/ObargRvZhBBQ9lzWxI+/snP8cvfXo+YpJx2l03AVEOUQsurM4IyXwP1irZSN1TLbowhvOS6P93Ev/zbhRS5JzWCikU1ZmBNBhq5Y7+9dmePpYvK6x2vylgYH9USSi9BsCZTa3jus/8G44swtLxirNnmBV8jm8Zay9qeXt77Tx/mhz+9BhEbpl6AR1Ep7Ys2a4iqgtNWxVDFq6K4somY4X9/8Rve9Q8f4olVa0iTpK3QRrYPrUiC4RW5jDpOOO5oqtVKWSlt9DWOjGZ8RJJyuu1DShrA0486hD13W0yeN0CEonAhnTcysXhPpVJjVZ/jPf/8cT75uUtY29OHiGBEEC0QKfB+dGkzQTE4RBwioQuiSEJPf52LLvkf3vvPH+XxVf0kaTbyqZHtjPc+LLP4YOE751g8fzbPPubowX1cm2scGc34yZa0+i+DV8+CubM46cTjaDbqiDVBIKNlMfFIGDiJtahYLvrS13nDW97L96/6KWt6BxCTImIHi+a2puKqGpZURDBiELH09A1w1f/9mte/5b186nOX0HSQJKG1bGRiEQnFRUL0AjTznBOe/Sx23mkuUIBES3KsiI7THe28H8yq8OqxxvLwY0/yije+m0ceX0U2OPuKF2aiMWW5LDB4FerNHCueffdaxrOedihPO/xQlu++Kx2VjDRNMcbgvSfPCwYaOfc9+Fd+e931/OKa33PrHfeQOyWpZKUl6sb1uzeyZchgdIPgnWPmzJlccsHH2GvpIlQLPAlGFInXapOMm0huiC9963I++omLqVUzkCaqMYd3MqKq5HlOXhRUKxXmzZnFgnmzmTlzJpVKhUajwZqePp54cjVPPfUUjUYDm1jSJI0WySRE1INNKBTyvnWcf87ZvPl1Z5aOumhFbg7bTCTVhxi9vrzgvPP/nl/f8BcqtSqybd4uspVoGQQepmke7zyo4pxDtQwjQrHWYq2Ng2yyI4rz4Aplvz125eILPsqs7s7BpZB4/cbOtrO1jeC80pUlvO1Nr2bOzE6KIgrkZGW4QIoINrEkWUJaScmqKVk1o1LJSJIEY+IAm+wEMfR0VSzveMsbmNXdCYRrGwVy89hmIhnWvDzqYeUBK3jz61+Ba/THAPNJjPdDwcWt2EdjBGOGwkhUQ0gX0RqZ1BhJqPf18vpXv5RnHH4APjZi22K2mUjKoPdMUBynn3oSZ73sVJr1+mDf3+G17LbRrD+ymbSumzEGUYt6g3oDaoBghbTEMV6zyUbregj9vQOcesrzOevM01CKMjRvmw33ac02O2uCwRobkmzUkFnLO9/0ak464RgG+vvwg4vHZXhJOfjiwJs4Br/UWlajhI6Hg1tk0jBkhIQEKREDqhgj9A8McMwzDuHv33kutTRZL9EjsvlsM5EciarSUavwD393Hice9wzqfesonICYweSOllhGIpGNM1zvjAjOC4Wk9PT0cPQRB/CRf/47ZnZ2oN7BsDXnyOazzbzb7VB1iMCa3gYf/+RFfOfKqzFJSppYRAxFUWCtjd94kchmEQLHm3mD5z37mfzDO85l/txZeBfWlBVBtbVUMvK5kU2xXUUyOG0UI4ZGUfD/XfotLrj4azgN1mSaplEoI5HNQMv41kQ8Z5/xYt74+lfQUa2UIXitZs8Cse/UFrN9RbKcJpiyKjYYrr7mD/z7py/i7vv+SlqpYk3IAQhVZUy5FD3SyTO0nhmJTHeG1urDPS/lWPJeGajX2WPpLpz3+ldwygnHgjq8BzEWCd1jQ5Wu1liJpuRms11FcjjD1x8fefwJPn/pd/julT+mMTBAUqmWeVU+dPOWcHG9D8/Rsse3SFniq81rTlemqmd5qh739qYliK17OYib4j0Ym5ShWUozz+msZfztCcfyxle/jF0WLYRh53e6j4PtyYSJJOUFVR1Kwr/hptu45Gvf4qfXXsdAvUlHrTZYOUg1TNO9KlJ6xENO8ZAwDn5zTga28YGM9bJNtsGyqePe5se7jV9+rKw3Dxp2SlriaMTgvAMpTQIRimZBsyhIspSjjzyE15z5Io469MDyeeUYKfPsW2MqsvVMqEjSWqf0DiMeTEYzd9xw081cceVV/Pw31/HYql5UUmqZYI1B0cFolDDxiEwn2onkBN+i24ShKfT6j1EG8ouEsJ3CK3neQNQzZ+ZMjjxsJS895bkcfuhBZIkNrTEI02tKgW0JbWR8mHCRHHr7siq2Cd+iAPc+8BC/+t0N/PwX13LH3ffx1KrVOEBMijEWI2CtGbyhWjfJWAnL2mFh22+sreoWnKF2xzEep3rwNdq8PtpaqG8dcrBCJgOt4245D9azpIZTfobx6NO9Vddg5AGOfikMsl5x7y0518OznFyZM2+MoZnnGGDOrE72Wr6MY555FEc/7VB2X7YboURMgVfwGATBDhPddp87suVMDpEUCWsuBtBWQYWQ4QFhbfLeh57gpltu4+Zbb+e2O+/moUcfZ82adQwM1Cmcw6vihk29N0r5iVsDcVOnQMrK2+r9BsXJ2KH6i4Pja5igle807EnDKD2P1hrQEK6xHuKC4LUyYQTwYd+RDFoSCMYaVDYi/tuR1jTQl62GwzGOmBKKgvGD1905F9pElLIwuJtoubSieOfDF5zaUUpmTOgpPvyLpd3so931b1ljrfOpw8SshRBes/UFrQx98W6S8tqZMiwnSS3VSsLsmTPZaeEC9txjOfuv2JuDV+zN0l0XYVv58uoovIQyZyF+HBgyLCLjz4SL5MZY/5tRBwdBf6NBT28fPT11HnviSVatWsOadevor9dxbW7mkUi5vpmmCdba9sI3OFAgTVKSJCkHw8i9gohmaVkyrBW0q8MsVRESY8jSdL3nhfTMUhtsKDuG8cjI7BY1qBqMEdI0RaSMEBhxMNqybsoBbhOLTSdHaTrnQy+coijK3jvBBhqOquCl9WUT9nWuQMyIz6kCCOq13MeV52zkxbEUzlHkRXB4UE5Lh6Gq1Ov19R5rPU55xxXOURTFKDFtfSG27h/1nkaRUzi3SatSyvXDjo4a3d3dzJk9m50WzGFGdyddHTW6atWhnVszhA3cp5Fty6QWyXaUhmfrX+XP6XDzTKfPEtk0Q1/6o699y9pmsB1KZOKYMiLZ8tipDllQwWIqYylLY3NT3+AtBj+0DrtFx/bUtoT3HTqVI297aG+Faqn6YcZWLheM2G/IImXwFdu81KghpwSLczKgI2QhMFoAhv4+7Ay2/bA6uCwRTsvonXTYG7Zu83Zrne2GgEi4y1pBOEGxRu41gta1HPn4BhhcmCmfN3i4w45xrK8V2XZMGZFsCUjLklTV4JYo77PWY2O9rQbvw9a0WNe/OQf/WL7eqD9tgNbZlNZBhUfX+zGc1jtoKQZhajlyRxk8jsFpYBtRWJ/w9zGvkW1jyss04uqsL5Lho7XO9/Bzt/5naO23/jXxI3dDpVzjLatxA9jRujzqqEYy/N4bTrjnNvzvjVN6sDU8UVu3YLn2PHQjbfzYItueKSeSQ//e0P2z+R9n5GtPLFt5HK2P316VJpbW8Wz1cWmb62xGP7TJL5KJZPiFGv6zfHxQJNuqemQ7MmVEMhKJRCaC+DUViUQiGyGKZCQSiWyEKJKRSCSyEaJIRiKRyEaIIhmJRCIbIYpkJBKJbIQokpFIJLIR/n/FWMQm4lgvhQAAAABJRU5ErkJggg==;fillColor=#5D7F99;strokeColor=#D0CEE2;fontColor=#1A1A1A;" parent="1" vertex="1">
          <mxGeometry x="1905.84" y="397.28999999999996" width="44.86" height="54" as="geometry" />
        </mxCell>
        <mxCell id="C84VSm6xdojD2v56TbDM-64" value="&lt;b&gt;INGESTION&lt;/b&gt;" style="text;html=1;align=center;verticalAlign=middle;resizable=0;points=[];autosize=1;strokeColor=none;fillColor=none;labelBackgroundColor=none;fontColor=#1A1A1A;" parent="1" vertex="1">
          <mxGeometry x="1695.84" y="167" width="84" height="26" as="geometry" />
        </mxCell>
        <mxCell id="C84VSm6xdojD2v56TbDM-68" value="" style="shape=image;verticalLabelPosition=bottom;labelBackgroundColor=none;verticalAlign=top;aspect=fixed;imageAspect=0;image=https://cdn-icons-png.flaticon.com/512/8365/8365406.png;fillColor=#5D7F99;strokeColor=#D0CEE2;fontColor=#1A1A1A;" parent="1" vertex="1">
          <mxGeometry x="2034.01" y="407.5" width="67.67" height="67.67" as="geometry" />
        </mxCell>
        <mxCell id="C84VSm6xdojD2v56TbDM-70" value="&lt;font color=&quot;#000000&quot;&gt;&lt;b&gt;ML SERVING / PREDICTION&lt;/b&gt;&lt;/font&gt;" style="text;html=1;align=center;verticalAlign=middle;resizable=0;points=[];autosize=1;strokeColor=none;fillColor=none;labelBackgroundColor=none;fontColor=#1A1A1A;" parent="1" vertex="1">
          <mxGeometry x="1895.79" y="533.35" width="176" height="26" as="geometry" />
        </mxCell>
        <mxCell id="RVtXdc6itZscFPzTBq0C-3" style="edgeStyle=none;rounded=0;orthogonalLoop=1;jettySize=auto;html=1;entryX=1;entryY=0.25;entryDx=0;entryDy=0;strokeColor=#000000;" parent="1" source="C84VSm6xdojD2v56TbDM-73" target="C84VSm6xdojD2v56TbDM-82" edge="1">
          <mxGeometry relative="1" as="geometry" />
        </mxCell>
        <mxCell id="C84VSm6xdojD2v56TbDM-73" value="&lt;font color=&quot;#000000&quot;&gt;&lt;b&gt;ML MODEL TRAINING&lt;/b&gt;&lt;/font&gt;" style="text;html=1;align=center;verticalAlign=middle;resizable=0;points=[];autosize=1;strokeColor=none;fillColor=none;labelBackgroundColor=none;fontColor=#1A1A1A;" parent="1" vertex="1">
          <mxGeometry x="1999.3399999999997" y="385" width="143" height="26" as="geometry" />
        </mxCell>
        <mxCell id="C84VSm6xdojD2v56TbDM-196" style="edgeStyle=orthogonalEdgeStyle;rounded=0;orthogonalLoop=1;jettySize=auto;html=1;exitX=0.5;exitY=1;exitDx=0;exitDy=0;exitPerimeter=0;entryX=0.5;entryY=0;entryDx=0;entryDy=0;strokeColor=#000000;fontColor=#1A1A1A;" parent="1" source="C84VSm6xdojD2v56TbDM-77" target="C84VSm6xdojD2v56TbDM-36" edge="1">
          <mxGeometry relative="1" as="geometry" />
        </mxCell>
        <mxCell id="C84VSm6xdojD2v56TbDM-77" value="" style="outlineConnect=0;dashed=0;verticalLabelPosition=bottom;verticalAlign=top;align=center;html=1;shape=mxgraph.aws3.s3;fillColor=#E05243;gradientColor=none;strokeColor=#D0CEE2;fontColor=#1A1A1A;" parent="1" vertex="1">
          <mxGeometry x="1591.84" y="251" width="46" height="47" as="geometry" />
        </mxCell>
        <mxCell id="C84VSm6xdojD2v56TbDM-105" style="rounded=0;orthogonalLoop=1;jettySize=auto;html=1;exitX=0;exitY=0.5;exitDx=0;exitDy=0;strokeColor=#000000;fontColor=#1A1A1A;" parent="1" source="C84VSm6xdojD2v56TbDM-82" target="C84VSm6xdojD2v56TbDM-54" edge="1">
          <mxGeometry relative="1" as="geometry" />
        </mxCell>
        <mxCell id="C84VSm6xdojD2v56TbDM-82" value="" style="shape=image;verticalLabelPosition=bottom;labelBackgroundColor=default;verticalAlign=top;aspect=fixed;imageAspect=0;image=https://www.impulsmap.fr/wp-content/uploads/2016/07/LogoPostgreSql100reel.png;" parent="1" vertex="1">
          <mxGeometry x="1840.8400000000001" y="280" width="54.95" height="61" as="geometry" />
        </mxCell>
        <mxCell id="C84VSm6xdojD2v56TbDM-83" value="&lt;b&gt;S3&lt;/b&gt;" style="text;html=1;align=center;verticalAlign=middle;resizable=0;points=[];autosize=1;strokeColor=none;fillColor=none;labelBackgroundColor=none;fontColor=#1A1A1A;" parent="1" vertex="1">
          <mxGeometry x="1598.5" y="232" width="33" height="26" as="geometry" />
        </mxCell>
        <mxCell id="C84VSm6xdojD2v56TbDM-88" value="" style="shape=image;verticalLabelPosition=bottom;labelBackgroundColor=default;verticalAlign=top;aspect=fixed;imageAspect=0;image=https://upload.wikimedia.org/wikipedia/commons/f/f3/Apache_Spark_logo.svg;" parent="1" vertex="1">
          <mxGeometry x="1374.84" y="368.76" width="74.63" height="38.74" as="geometry" />
        </mxCell>
        <mxCell id="C84VSm6xdojD2v56TbDM-108" value="" style="rounded=0;orthogonalLoop=1;jettySize=auto;html=1;exitX=1;exitY=0.5;exitDx=0;exitDy=0;strokeColor=#000000;fontColor=#1A1A1A;" parent="1" source="C84VSm6xdojD2v56TbDM-82" target="C84VSm6xdojD2v56TbDM-55" edge="1">
          <mxGeometry relative="1" as="geometry">
            <mxPoint x="1895.84" y="311" as="sourcePoint" />
            <mxPoint x="1928.84" y="366" as="targetPoint" />
            <Array as="points" />
          </mxGeometry>
        </mxCell>
        <mxCell id="C84VSm6xdojD2v56TbDM-55" value="&lt;font color=&quot;#000000&quot;&gt;&lt;b&gt;TRANSACTIONAL &lt;br&gt;APP&lt;/b&gt;&lt;/font&gt;" style="text;html=1;align=center;verticalAlign=middle;resizable=0;points=[];autosize=1;strokeColor=none;fillColor=none;labelBackgroundColor=none;fontColor=#1A1A1A;" parent="1" vertex="1">
          <mxGeometry x="1862.84" y="356.28999999999996" width="121" height="41" as="geometry" />
        </mxCell>
        <mxCell id="C84VSm6xdojD2v56TbDM-111" value="&lt;b&gt;ETL PROCESS&lt;/b&gt;" style="text;html=1;align=center;verticalAlign=middle;resizable=0;points=[];autosize=1;strokeColor=none;fillColor=none;labelBackgroundColor=none;fontColor=#1A1A1A;" parent="1" vertex="1">
          <mxGeometry x="1364" y="346" width="102" height="26" as="geometry" />
        </mxCell>
        <mxCell id="C84VSm6xdojD2v56TbDM-112" value="&lt;b&gt;EXTERNALS SYSTEMS&lt;/b&gt;" style="text;html=1;align=center;verticalAlign=middle;resizable=0;points=[];autosize=1;strokeColor=none;fillColor=none;labelBackgroundColor=none;fontColor=#1A1A1A;" parent="1" vertex="1">
          <mxGeometry x="1470.8400000000001" y="431" width="151" height="26" as="geometry" />
        </mxCell>
        <mxCell id="C84VSm6xdojD2v56TbDM-113" value="" style="html=1;dashed=0;whiteSpace=wrap;shape=mxgraph.dfd.externalEntity;strokeColor=#D0CEE2;fontColor=#1A1A1A;fillColor=#5D7F99;" parent="1" vertex="1">
          <mxGeometry x="1506.84" y="450" width="48.25" height="41" as="geometry" />
        </mxCell>
        <mxCell id="C84VSm6xdojD2v56TbDM-114" value="Id" style="autosize=1;part=1;resizable=0;strokeColor=inherit;fillColor=inherit;gradientColor=inherit;fontColor=#1A1A1A;" parent="C84VSm6xdojD2v56TbDM-113" vertex="1">
          <mxGeometry width="20" height="20" relative="1" as="geometry">
            <mxPoint x="15" y="15" as="offset" />
          </mxGeometry>
        </mxCell>
        <mxCell id="C84VSm6xdojD2v56TbDM-126" style="edgeStyle=orthogonalEdgeStyle;rounded=0;orthogonalLoop=1;jettySize=auto;html=1;entryX=-0.015;entryY=0.6;entryDx=0;entryDy=0;entryPerimeter=0;strokeColor=#000000;fontColor=#1A1A1A;" parent="1" source="C84VSm6xdojD2v56TbDM-88" target="C84VSm6xdojD2v56TbDM-52" edge="1">
          <mxGeometry relative="1" as="geometry">
            <Array as="points">
              <mxPoint x="1411.84" y="507" />
            </Array>
          </mxGeometry>
        </mxCell>
        <mxCell id="C84VSm6xdojD2v56TbDM-186" value="data transformed for analysis" style="edgeLabel;align=center;verticalAlign=middle;resizable=0;points=[];strokeColor=#D0CEE2;fontColor=#1A1A1A;fillColor=#5D7F99;labelBackgroundColor=#A9C4EB;fontSize=8;" parent="C84VSm6xdojD2v56TbDM-126" vertex="1" connectable="0">
          <mxGeometry x="-0.2683" relative="1" as="geometry">
            <mxPoint x="77" as="offset" />
          </mxGeometry>
        </mxCell>
        <mxCell id="C84VSm6xdojD2v56TbDM-147" style="edgeStyle=none;rounded=0;orthogonalLoop=1;jettySize=auto;html=1;entryX=0.546;entryY=-0.09;entryDx=0;entryDy=0;entryPerimeter=0;strokeColor=#000000;fontColor=#1A1A1A;" parent="1" target="C84VSm6xdojD2v56TbDM-70" edge="1">
          <mxGeometry relative="1" as="geometry">
            <mxPoint x="2057.84" y="478" as="sourcePoint" />
          </mxGeometry>
        </mxCell>
        <mxCell id="C84VSm6xdojD2v56TbDM-148" style="rounded=0;orthogonalLoop=1;jettySize=auto;html=1;exitX=0.25;exitY=1;exitDx=0;exitDy=0;strokeColor=#000000;fontColor=#1A1A1A;" parent="1" edge="1">
          <mxGeometry relative="1" as="geometry">
            <mxPoint x="1952.6300000000003" y="588" as="sourcePoint" />
            <mxPoint x="1939.84" y="602" as="targetPoint" />
          </mxGeometry>
        </mxCell>
        <mxCell id="C84VSm6xdojD2v56TbDM-149" style="edgeStyle=none;rounded=0;orthogonalLoop=1;jettySize=auto;html=1;exitX=1;exitY=1;exitDx=0;exitDy=0;strokeColor=#000000;fontColor=#1A1A1A;" parent="1" edge="1">
          <mxGeometry relative="1" as="geometry">
            <mxPoint x="2014.76" y="588" as="sourcePoint" />
            <mxPoint x="2024.84" y="602" as="targetPoint" />
          </mxGeometry>
        </mxCell>
        <mxCell id="C84VSm6xdojD2v56TbDM-162" value="&lt;b&gt;ENCRYPTION, ACCESS CONTROL,&lt;br&gt;MONITORING&lt;/b&gt;" style="text;html=1;align=center;verticalAlign=middle;resizable=0;points=[];autosize=1;strokeColor=none;fillColor=none;labelBackgroundColor=none;fontColor=#1A1A1A;" parent="1" vertex="1">
          <mxGeometry x="2059.0000000000005" y="98" width="218" height="41" as="geometry" />
        </mxCell>
        <mxCell id="C84VSm6xdojD2v56TbDM-164" value="" style="ellipse;whiteSpace=wrap;html=1;strokeColor=#D0CEE2;fontColor=#1A1A1A;fillColor=#A9C4EB;" parent="1" vertex="1">
          <mxGeometry x="1218" y="10" width="227" height="135" as="geometry" />
        </mxCell>
        <mxCell id="C84VSm6xdojD2v56TbDM-167" value="&lt;b&gt;MODEL MONITORING AND &lt;br&gt;ALERTING&lt;/b&gt;" style="text;html=1;align=center;verticalAlign=middle;resizable=0;points=[];autosize=1;strokeColor=none;fillColor=none;labelBackgroundColor=none;fontColor=#1A1A1A;" parent="1" vertex="1">
          <mxGeometry x="1241.9999999999998" y="25" width="171" height="41" as="geometry" />
        </mxCell>
        <mxCell id="C84VSm6xdojD2v56TbDM-171" style="edgeStyle=none;rounded=0;orthogonalLoop=1;jettySize=auto;html=1;fontColor=#1A1A1A;strokeColor=#000000;entryX=0.072;entryY=0.238;entryDx=0;entryDy=0;entryPerimeter=0;" parent="1" source="C84VSm6xdojD2v56TbDM-168" target="C84VSm6xdojD2v56TbDM-142" edge="1">
          <mxGeometry relative="1" as="geometry">
            <mxPoint x="1417.3890999690311" y="200.63532523732647" as="targetPoint" />
          </mxGeometry>
        </mxCell>
        <mxCell id="C84VSm6xdojD2v56TbDM-168" value="&lt;b&gt;PERFORMANCE MONITORING&lt;/b&gt;" style="text;html=1;align=center;verticalAlign=middle;resizable=0;points=[];autosize=1;strokeColor=none;fillColor=none;labelBackgroundColor=none;fontColor=#1A1A1A;" parent="1" vertex="1">
          <mxGeometry x="1239" y="145" width="193" height="26" as="geometry" />
        </mxCell>
        <mxCell id="C84VSm6xdojD2v56TbDM-172" style="edgeStyle=none;rounded=0;orthogonalLoop=1;jettySize=auto;html=1;fontColor=#1A1A1A;fontStyle=0;strokeColor=#000000;" parent="1" edge="1">
          <mxGeometry relative="1" as="geometry">
            <mxPoint x="2118" y="117" as="sourcePoint" />
            <mxPoint x="2084.84" y="148" as="targetPoint" />
          </mxGeometry>
        </mxCell>
        <mxCell id="C84VSm6xdojD2v56TbDM-178" value="" style="shape=image;verticalLabelPosition=bottom;labelBackgroundColor=default;verticalAlign=top;aspect=fixed;imageAspect=0;image=https://cdn.prod.website-files.com/660ef16a9e0687d9cc2746d7/66180fbf4f40e9ed73ca2d39_evidently_ai_logo_fi.png;" parent="1" vertex="1">
          <mxGeometry x="1260" y="56" width="107.25" height="32" as="geometry" />
        </mxCell>
        <mxCell id="C84VSm6xdojD2v56TbDM-179" value="" style="shape=image;verticalLabelPosition=bottom;labelBackgroundColor=default;verticalAlign=top;aspect=fixed;imageAspect=0;image=https://upload.wikimedia.org/wikipedia/commons/thumb/d/de/AirflowLogo.png/800px-AirflowLogo.png;" parent="1" vertex="1">
          <mxGeometry x="1255.84" y="88" width="103.56" height="40" as="geometry" />
        </mxCell>
        <mxCell id="C84VSm6xdojD2v56TbDM-182" value="" style="shape=image;verticalLabelPosition=bottom;labelBackgroundColor=default;verticalAlign=top;aspect=fixed;imageAspect=0;image=https://upload.wikimedia.org/wikipedia/commons/e/e9/Jenkins_logo.svg;" parent="1" vertex="1">
          <mxGeometry x="1367.25" y="62" width="43.1" height="59.5" as="geometry" />
        </mxCell>
        <mxCell id="C84VSm6xdojD2v56TbDM-183" value="" style="shape=image;verticalLabelPosition=bottom;labelBackgroundColor=default;verticalAlign=top;aspect=fixed;imageAspect=0;image=https://signup.snowflake.com/static/images/logo-sno-blue.svg;" parent="1" vertex="1">
          <mxGeometry x="1583.1399999999999" y="513" width="95.7" height="22" as="geometry" />
        </mxCell>
        <mxCell id="C84VSm6xdojD2v56TbDM-188" value="raw data storage" style="edgeLabel;align=center;verticalAlign=middle;resizable=0;points=[];strokeColor=#D0CEE2;fontColor=#1A1A1A;fillColor=#5D7F99;labelBackgroundColor=#A9C4EB;fontSize=8;" parent="1" vertex="1" connectable="0">
          <mxGeometry x="1657.84176465676" y="205.24988073699745" as="geometry" />
        </mxCell>
        <mxCell id="C84VSm6xdojD2v56TbDM-191" value="" style="edgeLabel;align=center;verticalAlign=middle;resizable=0;points=[];strokeColor=#D0CEE2;fontColor=#1A1A1A;fillColor=#5D7F99;labelBackgroundColor=#A9C4EB;fontSize=7;" parent="1" vertex="1" connectable="0">
          <mxGeometry x="1719.84176465676" y="308.99988073699745" as="geometry">
            <mxPoint x="7" y="-2" as="offset" />
          </mxGeometry>
        </mxCell>
        <mxCell id="C84VSm6xdojD2v56TbDM-194" style="edgeStyle=orthogonalEdgeStyle;rounded=0;orthogonalLoop=1;jettySize=auto;html=1;exitX=0;exitY=0.5;exitDx=0;exitDy=0;exitPerimeter=0;entryX=0.535;entryY=0.082;entryDx=0;entryDy=0;entryPerimeter=0;strokeColor=#000000;fontColor=#1A1A1A;" parent="1" source="C84VSm6xdojD2v56TbDM-77" target="C84VSm6xdojD2v56TbDM-111" edge="1">
          <mxGeometry relative="1" as="geometry" />
        </mxCell>
        <mxCell id="C84VSm6xdojD2v56TbDM-197" value="" style="edgeLabel;align=center;verticalAlign=middle;resizable=0;points=[];strokeColor=#D0CEE2;fontColor=#1A1A1A;fillColor=#5D7F99;labelBackgroundColor=#A9C4EB;fontSize=8;" parent="1" vertex="1" connectable="0">
          <mxGeometry x="1501.841428281625" y="274.50457281808394" as="geometry">
            <mxPoint x="-3" as="offset" />
          </mxGeometry>
        </mxCell>
        <mxCell id="C84VSm6xdojD2v56TbDM-201" style="edgeStyle=orthogonalEdgeStyle;rounded=0;orthogonalLoop=1;jettySize=auto;html=1;exitX=0.5;exitY=1;exitDx=0;exitDy=0;entryX=0.454;entryY=0.146;entryDx=0;entryDy=0;entryPerimeter=0;strokeColor=#000000;fontColor=#1A1A1A;" parent="1" source="C84VSm6xdojD2v56TbDM-183" target="C84VSm6xdojD2v56TbDM-51" edge="1">
          <mxGeometry relative="1" as="geometry" />
        </mxCell>
        <mxCell id="C84VSm6xdojD2v56TbDM-202" style="edgeStyle=none;rounded=0;orthogonalLoop=1;jettySize=auto;html=1;exitX=0.5;exitY=1;exitDx=0;exitDy=0;entryX=0.417;entryY=0.205;entryDx=0;entryDy=0;entryPerimeter=0;strokeColor=#000000;fontColor=#1A1A1A;" parent="1" source="C84VSm6xdojD2v56TbDM-36" target="C84VSm6xdojD2v56TbDM-112" edge="1">
          <mxGeometry relative="1" as="geometry" />
        </mxCell>
        <mxCell id="C84VSm6xdojD2v56TbDM-203" value="standardized data sync" style="edgeLabel;align=center;verticalAlign=middle;resizable=0;points=[];strokeColor=#D0CEE2;fontColor=#1A1A1A;fillColor=#5D7F99;labelBackgroundColor=#A9C4EB;fontSize=8;" parent="1" vertex="1" connectable="0">
          <mxGeometry x="1537.8399999695246" y="411.00404957833484" as="geometry" />
        </mxCell>
        <mxCell id="C84VSm6xdojD2v56TbDM-205" style="edgeStyle=orthogonalEdgeStyle;rounded=0;orthogonalLoop=1;jettySize=auto;html=1;exitX=1;exitY=0.79;exitDx=0;exitDy=0;exitPerimeter=0;entryX=0.064;entryY=0.12;entryDx=0;entryDy=0;entryPerimeter=0;strokeColor=#000000;fontColor=#1A1A1A;" parent="1" source="C84VSm6xdojD2v56TbDM-77" target="C84VSm6xdojD2v56TbDM-82" edge="1">
          <mxGeometry relative="1" as="geometry" />
        </mxCell>
        <mxCell id="C84VSm6xdojD2v56TbDM-207" style="edgeStyle=orthogonalEdgeStyle;rounded=0;orthogonalLoop=1;jettySize=auto;html=1;exitX=1;exitY=0.21;exitDx=0;exitDy=0;exitPerimeter=0;entryX=0.557;entryY=-0.026;entryDx=0;entryDy=0;entryPerimeter=0;strokeColor=#000000;fontColor=#1A1A1A;" parent="1" source="C84VSm6xdojD2v56TbDM-77" target="C84VSm6xdojD2v56TbDM-15" edge="1">
          <mxGeometry relative="1" as="geometry" />
        </mxCell>
        <mxCell id="C84VSm6xdojD2v56TbDM-208" value="real-time transaction data" style="edgeLabel;align=center;verticalAlign=middle;resizable=0;points=[];strokeColor=#D0CEE2;fontColor=#1A1A1A;fillColor=#5D7F99;labelBackgroundColor=#A9C4EB;fontSize=8;" parent="1" vertex="1" connectable="0">
          <mxGeometry x="1727.8399999695246" y="287.00404957833473" as="geometry" />
        </mxCell>
        <mxCell id="C84VSm6xdojD2v56TbDM-209" value="unstructured data" style="edgeLabel;align=center;verticalAlign=middle;resizable=0;points=[];strokeColor=#D0CEE2;fontColor=#1A1A1A;fillColor=#5D7F99;labelBackgroundColor=#A9C4EB;fontSize=8;" parent="1" vertex="1" connectable="0">
          <mxGeometry x="1963.8399999695246" y="260.00404957833473" as="geometry" />
        </mxCell>
        <mxCell id="C84VSm6xdojD2v56TbDM-210" value="versioned models &amp; parameters" style="edgeLabel;align=center;verticalAlign=middle;resizable=0;points=[];strokeColor=#D0CEE2;fontColor=#1A1A1A;fillColor=#5D7F99;labelBackgroundColor=#A9C4EB;fontSize=8;" parent="1" vertex="1" connectable="0">
          <mxGeometry x="2028.8399999695246" y="504.00404957833473" as="geometry" />
        </mxCell>
        <mxCell id="C84VSm6xdojD2v56TbDM-213" value="training features &amp; historical data" style="edgeLabel;align=center;verticalAlign=middle;resizable=0;points=[];strokeColor=#D0CEE2;fontColor=#1A1A1A;fillColor=#5D7F99;labelBackgroundColor=#A9C4EB;fontSize=8;" parent="1" vertex="1" connectable="0">
          <mxGeometry x="2077.839999969525" y="361.00404957833473" as="geometry" />
        </mxCell>
        <mxCell id="C84VSm6xdojD2v56TbDM-214" value="" style="edgeLabel;align=center;verticalAlign=middle;resizable=0;points=[];strokeColor=#D0CEE2;fontColor=#1A1A1A;fillColor=#5D7F99;labelBackgroundColor=#A9C4EB;fontSize=8;" parent="1" vertex="1" connectable="0">
          <mxGeometry x="1918.8399999695246" y="346.00404957833473" as="geometry">
            <mxPoint x="3" y="-4" as="offset" />
          </mxGeometry>
        </mxCell>
        <mxCell id="C84VSm6xdojD2v56TbDM-215" value="" style="ellipse;whiteSpace=wrap;html=1;strokeColor=#D0CEE2;fontColor=#1A1A1A;fillColor=#A9C4EB;" parent="1" vertex="1">
          <mxGeometry x="2166.5" y="154" width="142" height="96" as="geometry" />
        </mxCell>
        <mxCell id="C84VSm6xdojD2v56TbDM-218" value="&lt;b&gt;CDC&lt;/b&gt;" style="text;html=1;align=center;verticalAlign=middle;resizable=0;points=[];autosize=1;strokeColor=none;fillColor=none;labelBackgroundColor=none;fontColor=#1A1A1A;" parent="1" vertex="1">
          <mxGeometry x="2220" y="168" width="44" height="26" as="geometry" />
        </mxCell>
        <mxCell id="C84VSm6xdojD2v56TbDM-226" style="edgeStyle=none;rounded=0;orthogonalLoop=1;jettySize=auto;html=1;fontColor=#1A1A1A;fontStyle=0;strokeColor=#000000;" parent="1" edge="1">
          <mxGeometry relative="1" as="geometry">
            <mxPoint x="2173.84" y="226" as="sourcePoint" />
            <mxPoint x="2142.84" y="247" as="targetPoint" />
          </mxGeometry>
        </mxCell>
        <mxCell id="C84VSm6xdojD2v56TbDM-227" value="" style="shape=image;verticalLabelPosition=bottom;labelBackgroundColor=default;verticalAlign=top;aspect=fixed;imageAspect=0;image=https://debezium.io/assets/images/color_black_debezium_type_1200px.png;" parent="1" vertex="1">
          <mxGeometry x="2178.84" y="181.63" width="113.45" height="59.37" as="geometry" />
        </mxCell>
        <mxCell id="C84VSm6xdojD2v56TbDM-228" style="edgeStyle=orthogonalEdgeStyle;rounded=0;orthogonalLoop=1;jettySize=auto;html=1;exitX=0.5;exitY=1;exitDx=0;exitDy=0;strokeColor=#736CA8;fontColor=#1A1A1A;" parent="1" source="C84VSm6xdojD2v56TbDM-142" target="C84VSm6xdojD2v56TbDM-142" edge="1">
          <mxGeometry relative="1" as="geometry" />
        </mxCell>
        <mxCell id="yEQebtWLp-QU1vm_ozRT-2" style="edgeStyle=none;rounded=0;orthogonalLoop=1;jettySize=auto;html=1;entryX=0;entryY=0.79;entryDx=0;entryDy=0;entryPerimeter=0;exitX=0.745;exitY=-0.038;exitDx=0;exitDy=0;exitPerimeter=0;strokeColor=#000000;" parent="1" source="C84VSm6xdojD2v56TbDM-111" target="C84VSm6xdojD2v56TbDM-77" edge="1">
          <mxGeometry relative="1" as="geometry">
            <Array as="points">
              <mxPoint x="1440" y="288" />
            </Array>
          </mxGeometry>
        </mxCell>
        <mxCell id="-vDkSpopNp2jIgzfbwmz-1" value="" style="ellipse;whiteSpace=wrap;html=1;strokeColor=#D0CEE2;fontColor=#1A1A1A;fillColor=#A9C4EB;" parent="1" vertex="1">
          <mxGeometry x="2084.1800000000003" y="6" width="142" height="96" as="geometry" />
        </mxCell>
        <mxCell id="-vDkSpopNp2jIgzfbwmz-2" value="" style="shape=ellipse;html=1;dashed=0;whiteSpace=wrap;aspect=fixed;perimeter=ellipsePerimeter;strokeColor=#D0CEE2;fontColor=#1A1A1A;fillColor=#A9C4EB;" parent="1" vertex="1">
          <mxGeometry x="1368" y="11" width="808.84" height="808.84" as="geometry" />
        </mxCell>
        <mxCell id="-vDkSpopNp2jIgzfbwmz-3" value="" style="shadow=0;dashed=0;html=1;strokeColor=none;labelPosition=center;verticalLabelPosition=bottom;verticalAlign=top;align=center;shape=mxgraph.mscae.cloud.power_bi_embedded;fillColor=#5D7F99;pointerEvents=1;labelBackgroundColor=none;spacingTop=7;fontColor=#1A1A1A;" parent="1" vertex="1">
          <mxGeometry x="1581.84" y="726.5" width="52" height="45" as="geometry" />
        </mxCell>
        <mxCell id="-vDkSpopNp2jIgzfbwmz-4" style="edgeStyle=none;rounded=0;orthogonalLoop=1;jettySize=auto;html=1;strokeColor=#000000;fontColor=#1A1A1A;" parent="1" source="-vDkSpopNp2jIgzfbwmz-5" target="-vDkSpopNp2jIgzfbwmz-31" edge="1">
          <mxGeometry relative="1" as="geometry" />
        </mxCell>
        <mxCell id="-vDkSpopNp2jIgzfbwmz-5" value="" style="image;aspect=fixed;perimeter=ellipsePerimeter;html=1;align=center;shadow=0;dashed=0;fontColor=#1A1A1A;labelBackgroundColor=none;fontSize=12;spacingTop=3;image=img/lib/ibm/data/data_sources.svg;fillColor=#5D7F99;strokeColor=#D0CEE2;" parent="1" vertex="1">
          <mxGeometry x="1692.84" y="42.25" width="90" height="90" as="geometry" />
        </mxCell>
        <mxCell id="-vDkSpopNp2jIgzfbwmz-6" value="&lt;b&gt;DATA SOURCES&lt;/b&gt;" style="text;html=1;align=center;verticalAlign=middle;resizable=0;points=[];autosize=1;strokeColor=none;fillColor=none;labelBackgroundColor=none;fontColor=#1A1A1A;" parent="1" vertex="1">
          <mxGeometry x="1681.84" y="17" width="112" height="26" as="geometry" />
        </mxCell>
        <mxCell id="-vDkSpopNp2jIgzfbwmz-7" style="edgeStyle=orthogonalEdgeStyle;rounded=0;orthogonalLoop=1;jettySize=auto;html=1;exitX=0;exitY=0.5;exitDx=0;exitDy=0;strokeColor=#000000;fontColor=#1A1A1A;" parent="1" source="-vDkSpopNp2jIgzfbwmz-8" target="-vDkSpopNp2jIgzfbwmz-40" edge="1">
          <mxGeometry relative="1" as="geometry" />
        </mxCell>
        <mxCell id="-vDkSpopNp2jIgzfbwmz-8" value="" style="shape=image;verticalLabelPosition=bottom;labelBackgroundColor=none;verticalAlign=top;aspect=fixed;imageAspect=0;image=https://www.apache.org/logos/originals/kafka.svg;fillColor=#5D7F99;strokeColor=#D0CEE2;fontColor=#1A1A1A;" parent="1" vertex="1">
          <mxGeometry x="1697.84" y="186" width="77" height="38.5" as="geometry" />
        </mxCell>
        <mxCell id="-vDkSpopNp2jIgzfbwmz-9" value="" style="outlineConnect=0;dashed=0;verticalLabelPosition=bottom;verticalAlign=top;align=center;html=1;shape=mxgraph.aws3.long_term_security_credential;fillColor=#5D7F99;labelBackgroundColor=none;strokeColor=#D0CEE2;fontColor=#1A1A1A;" parent="1" vertex="1">
          <mxGeometry x="2101.6800000000003" y="47.75" width="48" height="37.13" as="geometry" />
        </mxCell>
        <mxCell id="-vDkSpopNp2jIgzfbwmz-10" value="" style="outlineConnect=0;dashed=0;verticalLabelPosition=bottom;verticalAlign=top;align=center;html=1;shape=mxgraph.aws3.certificate_manager_2;fillColor=#5D7F99;labelBackgroundColor=none;strokeColor=#D0CEE2;fontColor=#1A1A1A;" parent="1" vertex="1">
          <mxGeometry x="2154.6800000000003" y="47.75" width="46" height="39.75" as="geometry" />
        </mxCell>
        <mxCell id="-vDkSpopNp2jIgzfbwmz-11" style="edgeStyle=none;rounded=0;orthogonalLoop=1;jettySize=auto;html=1;exitX=0.5;exitY=1;exitDx=0;exitDy=0;strokeColor=#000000;fontColor=#1A1A1A;" parent="1" source="-vDkSpopNp2jIgzfbwmz-12" target="-vDkSpopNp2jIgzfbwmz-35" edge="1">
          <mxGeometry relative="1" as="geometry" />
        </mxCell>
        <mxCell id="-vDkSpopNp2jIgzfbwmz-12" value="" style="shape=image;verticalLabelPosition=bottom;labelBackgroundColor=none;verticalAlign=top;aspect=fixed;imageAspect=0;image=https://www.vectorlogo.zone/logos/mongodb/mongodb-ar21.svg;fillColor=#5D7F99;strokeColor=#D0CEE2;fontColor=#1A1A1A;" parent="1" vertex="1">
          <mxGeometry x="2024.84" y="298" width="96" height="48" as="geometry" />
        </mxCell>
        <mxCell id="-vDkSpopNp2jIgzfbwmz-13" value="&lt;b&gt;SECURITY AND &lt;br&gt;COMPLIANCE&lt;/b&gt;" style="text;html=1;align=center;verticalAlign=middle;resizable=0;points=[];autosize=1;strokeColor=none;fillColor=none;labelBackgroundColor=none;fontColor=#1A1A1A;" parent="1" vertex="1">
          <mxGeometry x="2101.6800000000003" y="10" width="107" height="41" as="geometry" />
        </mxCell>
        <mxCell id="-vDkSpopNp2jIgzfbwmz-14" value="&lt;b&gt;NOSQL DATABASE&lt;/b&gt;" style="text;html=1;align=center;verticalAlign=middle;resizable=0;points=[];autosize=1;strokeColor=none;fillColor=none;labelBackgroundColor=none;fontColor=#1A1A1A;" parent="1" vertex="1">
          <mxGeometry x="2013.34" y="283" width="129" height="26" as="geometry" />
        </mxCell>
        <mxCell id="-vDkSpopNp2jIgzfbwmz-15" value="" style="verticalLabelPosition=bottom;aspect=fixed;html=1;shape=mxgraph.salesforce.analytics2;labelBackgroundColor=none;fillColor=#5D7F99;strokeColor=#D0CEE2;fontColor=#1A1A1A;" parent="1" vertex="1">
          <mxGeometry x="1648.84" y="726.5" width="60" height="60" as="geometry" />
        </mxCell>
        <mxCell id="-vDkSpopNp2jIgzfbwmz-16" value="" style="edgeStyle=orthogonalEdgeStyle;rounded=0;orthogonalLoop=1;jettySize=auto;html=1;strokeColor=#000000;fontColor=#1A1A1A;" parent="1" source="-vDkSpopNp2jIgzfbwmz-17" target="-vDkSpopNp2jIgzfbwmz-24" edge="1">
          <mxGeometry relative="1" as="geometry" />
        </mxCell>
        <mxCell id="-vDkSpopNp2jIgzfbwmz-17" value="" style="verticalLabelPosition=bottom;sketch=0;aspect=fixed;html=1;verticalAlign=top;strokeColor=none;align=center;outlineConnect=0;shape=mxgraph.citrix.reporting;labelBackgroundColor=none;fillColor=#5D7F99;fontColor=#1A1A1A;" parent="1" vertex="1">
          <mxGeometry x="1611.2099999999998" y="612" width="48.58" height="54.5" as="geometry" />
        </mxCell>
        <mxCell id="-vDkSpopNp2jIgzfbwmz-18" value="" style="verticalLabelPosition=bottom;aspect=fixed;html=1;shape=mxgraph.salesforce.personalization;labelBackgroundColor=none;fillColor=#5D7F99;strokeColor=#D0CEE2;fontColor=#1A1A1A;" parent="1" vertex="1">
          <mxGeometry x="2006.8399999999997" y="634" width="55.34" height="41.5" as="geometry" />
        </mxCell>
        <mxCell id="-vDkSpopNp2jIgzfbwmz-19" value="" style="shape=image;verticalLabelPosition=bottom;labelBackgroundColor=none;verticalAlign=top;aspect=fixed;imageAspect=0;image=https://www.mlflow.org/docs/1.24.0/_static/MLflow-logo-final-black.png;fillColor=#5D7F99;strokeColor=#D0CEE2;fontColor=#1A1A1A;" parent="1" vertex="1">
          <mxGeometry x="1941.3999999999999" y="555" width="84.79" height="32.67" as="geometry" />
        </mxCell>
        <mxCell id="-vDkSpopNp2jIgzfbwmz-20" value="" style="shape=image;verticalLabelPosition=bottom;labelBackgroundColor=none;verticalAlign=top;aspect=fixed;imageAspect=0;image=https://cdn.prod.website-files.com/605e01bc25f7e19a82e74788/624d9c4a375a55100be6b257_Airbyte_logo_color_dark.svg;fillColor=#5D7F99;strokeColor=#D0CEE2;fontColor=#1A1A1A;" parent="1" vertex="1">
          <mxGeometry x="1485.59" y="351" width="96.25" height="38.5" as="geometry" />
        </mxCell>
        <mxCell id="-vDkSpopNp2jIgzfbwmz-21" value="&lt;font color=&quot;#000000&quot;&gt;&lt;b&gt;FRAUD DETECTION&lt;/b&gt;&lt;/font&gt;" style="text;html=1;align=center;verticalAlign=middle;resizable=0;points=[];autosize=1;strokeColor=none;fillColor=none;labelBackgroundColor=none;fontColor=#1A1A1A;" parent="1" vertex="1">
          <mxGeometry x="1825.6999999999998" y="604.5" width="133" height="26" as="geometry" />
        </mxCell>
        <mxCell id="-vDkSpopNp2jIgzfbwmz-22" value="&lt;font color=&quot;#000000&quot;&gt;&lt;b&gt;CUSTOMER &lt;br&gt;PERSONALIZATION&lt;/b&gt;&lt;/font&gt;" style="text;html=1;align=center;verticalAlign=middle;resizable=0;points=[];autosize=1;strokeColor=none;fillColor=none;labelBackgroundColor=none;fontColor=#1A1A1A;" parent="1" vertex="1">
          <mxGeometry x="1973.34" y="597" width="132" height="41" as="geometry" />
        </mxCell>
        <mxCell id="-vDkSpopNp2jIgzfbwmz-23" value="" style="shape=image;verticalLabelPosition=bottom;labelBackgroundColor=none;verticalAlign=top;aspect=fixed;imageAspect=0;image=https://cdn-icons-png.flaticon.com/512/11094/11094214.png;fillColor=#5D7F99;strokeColor=#D0CEE2;fontColor=#1A1A1A;" parent="1" vertex="1">
          <mxGeometry x="1862.84" y="630" width="72" height="72" as="geometry" />
        </mxCell>
        <mxCell id="-vDkSpopNp2jIgzfbwmz-24" value="&lt;font color=&quot;#000000&quot;&gt;&lt;b&gt;BI TOOLS&lt;/b&gt;&lt;/font&gt;" style="text;html=1;align=center;verticalAlign=middle;resizable=0;points=[];autosize=1;strokeColor=none;fillColor=none;labelBackgroundColor=none;fontColor=#1A1A1A;" parent="1" vertex="1">
          <mxGeometry x="1598.5" y="702" width="74" height="26" as="geometry" />
        </mxCell>
        <mxCell id="-vDkSpopNp2jIgzfbwmz-25" value="&lt;font color=&quot;#000000&quot;&gt;&lt;b&gt;ANALYTICS &amp;amp; &lt;br&gt;REPORTING&lt;/b&gt;&lt;/font&gt;" style="text;html=1;align=center;verticalAlign=middle;resizable=0;points=[];autosize=1;strokeColor=none;fillColor=none;labelBackgroundColor=none;fontColor=#1A1A1A;" parent="1" vertex="1">
          <mxGeometry x="1586.34" y="567" width="98" height="41" as="geometry" />
        </mxCell>
        <mxCell id="-vDkSpopNp2jIgzfbwmz-26" value="&lt;font color=&quot;#000000&quot;&gt;&lt;b&gt;OLAP&lt;/b&gt;&lt;/font&gt;" style="text;html=1;align=center;verticalAlign=middle;resizable=0;points=[];autosize=1;strokeColor=none;fillColor=none;labelBackgroundColor=none;fontColor=#1A1A1A;" parent="1" vertex="1">
          <mxGeometry x="1608.7899999999997" y="491" width="51" height="26" as="geometry" />
        </mxCell>
        <mxCell id="-vDkSpopNp2jIgzfbwmz-27" value="&lt;font color=&quot;#000000&quot;&gt;&lt;b&gt;OLTP&lt;/b&gt;&lt;/font&gt;" style="text;html=1;align=center;verticalAlign=middle;resizable=0;points=[];autosize=1;strokeColor=none;fillColor=none;labelBackgroundColor=none;fontColor=#1A1A1A;" parent="1" vertex="1">
          <mxGeometry x="1840.84" y="268" width="49" height="26" as="geometry" />
        </mxCell>
        <mxCell id="-vDkSpopNp2jIgzfbwmz-28" value="&lt;font color=&quot;#000000&quot;&gt;&lt;b&gt;REAL-TIME&lt;br&gt;PROCESSING&lt;/b&gt;&lt;/font&gt;" style="text;html=1;align=center;verticalAlign=middle;resizable=0;points=[];autosize=1;strokeColor=none;fillColor=none;labelBackgroundColor=none;fontColor=#1A1A1A;" parent="1" vertex="1">
          <mxGeometry x="1748.84" y="357" width="98" height="41" as="geometry" />
        </mxCell>
        <mxCell id="-vDkSpopNp2jIgzfbwmz-29" value="" style="shape=image;verticalLabelPosition=bottom;labelBackgroundColor=none;verticalAlign=top;aspect=fixed;imageAspect=0;image=https://cdn-icons-png.flaticon.com/512/8071/8071255.png;fillColor=#5D7F99;strokeColor=#D0CEE2;fontColor=#1A1A1A;" parent="1" vertex="1">
          <mxGeometry x="1769.99" y="397.28999999999996" width="55.71" height="55.71" as="geometry" />
        </mxCell>
        <mxCell id="-vDkSpopNp2jIgzfbwmz-30" value="" style="shape=image;verticalLabelPosition=bottom;labelBackgroundColor=none;verticalAlign=top;aspect=fixed;imageAspect=0;image=data:image/png,iVBORw0KGgoAAAANSUhEUgAAAUkAAAGMCAYAAABXr1CvAAAAAXNSR0IArs4c6QAAAARnQU1BAACxjwv8YQUAAAAJcEhZcwAADsMAAA7DAcdvqGQAALU6SURBVHhe7J13nB1Xeb+f95yZuXeLumRbcpN7r9gY7IDphGJ6x4QSSighgYQkhBZIMIRfAqGGZkpCGhBCM92YYmPj3nuR5CbL6tpy751z3vf3x5m7Wq12pZW0tnelefy51u7ePuU773mrmJlRU1NTUzMubuwfampqamo2U4tkTc0eQXfBONmF42Qft/sj9XK7pmbmkE5XRUTABEQwAxNDumeyCGLV3YCh6c9Ier5Iei3AYsQ5QUgPNus+p/pXhPTo9P/Nn4H0GfYAapGsqZlBKEasrDwPOAw1w3A4EbCImaZFonOIdSWvkr3RAokkkRSpJDTdbchmu7MS2j15yVmLZE3NjEJBAyYelcoyNMOLIOI3m4BbMN4fR2QQM0NxgGAYzgyR9BsiqEklpHsmtUjW1ExDtr2k1VGilx7XLo2NrcCGdmBgODBYRko1YjSiRqIaToQ88xRZRrPwNIqc+YUxq5nR38xxWPXavnrtWOmr387n2b2ZViK52V0y+iON2ilW/W+L/bTn7bSa3YW06N28mDUUqQ7xdJx3PYIAIUbWDLZZORhZtnqIWx4YYNmaQR7YFFg10GH9wDADAYajUgaIakQzzEBFcIATyFAyZzTzjGbeZE6PZ0ETlsxpsHh+P0fOzzho77nsN6dgfk/O7N5iC2t0lFtz1Lla3Ydh3aX7lnfNWB5xkYwh4ny6hnX3g2CoKs45TBXnZdTVDWJUQgyUGhkcGGZgcIj2cJtOGbDpukPMyJzgfZa+b7XV98AL8w7RtVy6h2kMgTJGbArPvK2sJDMM8D5FMoaGh1m0YB6HLD1gizN+560qw6wkkuEsLXRL8XgzxGklMZ52jDywoc1l96zjynsHuf6eAZY/sIl7BzpsbEcCDtNI5gzvMpykzzR2aSwj/0sBnPR1k3gaDrV0vqmmpbdITlF4FvZ4li5ocsSSeZywuJdT9uvjmH2a9BYZInl6DQ2o+EoUI4hDTaptEzAcXjafuzORR1wkRw5QQDXgRIg4nHMjh2MIgWX33c9dy+/h9jtWcNfy+7j3vpWs3bCGwcFhWsNtYlRURy9Dphfp+kr6XuIq53rN9rDqGBFAnEv72DZbNVOJuK6PL0V1gxqd1iCnn3Is73r7n3DMkYdD9/PsgEBu/XhDNWBqSOYQ0g1gfavD9fdu4rd3bOJXt6/mlvvXs2ZomJZ5vCvILeKdoT5PNqhFvHOYjfrsW6zERrP130XS+6ZoeWUiSpugjmgZMShoBGf0NRosnVvwmIPmcPphe/OY/fs5dGGzeiVPiSIRvEY0E8AQHK4WyV1DDQSFrmhIEpGh4RY333YXv/ndpVx+9Q0sW3E36zdspNXp4LxHnMNXj3XOpTjfVgfjNGKURWRUn/MR3fIzB6kCFCIp6pqWcVO78UQE1fSazgkxlCBw9kufz9te+1Jm9fducXztzLE22mKNFvEiYMq6oQ5X3N/iFzc8wAW3reWWVR2GQkCIuLyfHivxWqLiieIwCag4xAxXBV6ga71t3l5jGe/zbvU4AaxKK0JwzsAiUgV3OkGxaOSZsHe/55QD5/L0oxfzpCPnc0C/RzJP25RCPYhgwlaW7UxjGohklXBgiriM1esH+PkFF/KjH/+M62++jYFWB/ENMufxXiqt0XSmjF5bdw+UUa89nTCsugCkTxhjRGTzgV0zOUasyrF37ALpBKg8aSIMDw2xeNFc3v0Xb+cPn3xGuneUwHV/n+y+6z5XVfG+sqpi5IYHh/judQ/ww+tXc/29AwyXHVzu6c1zrCzBGyYl3nrBPNGVKJHMMhi5WEg6h6YoRyddxH1auqviK8GNLkMRTAynJQK0zBMiSDQOmON4wlELef6xi3nyoQvo6VEihphUVnL33J15PCIiadXOcNL9zbF+0wD/94Of8u3vnsdty1chPiPPHN6BmY5yB1PlfoF2z5bqG8ion6cjI9bQDpxgNVtaQLt6uJoZzlWW0sjPEbW0LBwa2MhJJxzNB979Do49bClY8quZuC1yBSfah+lSXf1ULdvTsZ7+2irhojse4N+vWMX5Nz7IykGlyJTMRXANnEWcRhBPlBxvRpAScYKox9TApdfGDBFfBUuqBPNdtSQhvb5SGR0etSotiBLECJJh4sks4DUQJSeYoywDWW4ct98cXn7SfjznmHksXdBXbZFY/euqc1SBiEk+pRe8h4KHVySrA9NEMQMvjhgjv/7dFXzuq//BVdfdStEoyLyfsVedmulNV0A2X7AUEUPJ6Ay3ePbTHse73/knLJo/b0Ih3BZRI1AiViSrS0DEs6k1xE9vWsdXLrqPi5atZ7gsaRQ5mU9+1h19n2mJOCR2CFEZip7DFjV5wUl7c/ap+3P0Xs3K6hWMgJrDiyF4ICCSjVxephsPr0gCqhEhIK7B2o2DfPJfv8b/fu/HRDyZz3GSrorTdHvVzHC6wrfZ2hJiFKIO8bqzX8Tb3/hamlnybzOB9bUtQhxGaYBTCjEGg/D9a9fx+Qtv58Ll68kUerIc8el1U7AxBfQe5lNxijECDTClh2FKckpVYhlZPKfBS07ah9c//mAOW9DELBDFIzHgnaD4tE/GvuQ04WEVyfRO6SC97c4VfPCjn+Tiq6+n2debnMHegSYrszYla6aatLxOqxfXjZQjoMafvfXVvO5lz8NLKvHbUXGken3DcBIJIfDj2wb4zAXL+d3ta4FIwxWUkhOyEh81+VZ3I/eLs4g3o+0KVBy5tTBzBDxlUPbrz3j9GQfwqkcvYb95PUQNyYoPEe8LxE2RY3WKeVhFsuuxufCya/jAOR/n7nsfoGg2SNtG0Kg4N7PTBWqmNzrKPxhVybOM9/3Fm3jhs5+GRQWXIug7GpFNQgcgXHfvRj76y7v44XVr6YRInhkqnsKM3CItVwXsRp15M10oBYgIJin3UzQQXY5zJT6WmBUE8wxq5Mi9+/irJ+zHS09YTE8zox3bNHw+bSvEH0KR7L5sN39LEef5zSWX89cf+EfWbhymp9mDhoA4UDW896QsjDqHcE8lXUanBqlS/xhlRYoqASHEQH8z40PveRfPfNLpmCqCSwV/buvPkF7GEGIVfBC06rYjpCTq1cPGFy9cwed/fTsrNwX6GqRIMQ51ERXDYje5Wnd8SV/lQIpUNdV0I8cpTQccjpQzmTJA0qps88tX74eMRD1FAlblJqd7BFet5KIZIppS9CYhYN22GAZkVbJ6xwqcN5y1iXicGcGUVgw848gFvP8Pj+TUA/pTsYgCEqv0pukTl3hIRbJ7dYxR8c5x2VXX85fv/TAPrh/AZQVupG6ppmazWExlIGOz73EzUY3enpxz/vbPeeoTzpiUWKXrfEo9U5cqpjJTzCkOx/m3reOjP7qF3925DvKCPEtCuoW5uKsIKR8YktFhVfqcJHGH1C5NxDDzlQhWgpkcAWBClIhJirxnmvIfRYQMxVmk4wSnSUhTClBEUyrKlKDi8aHNsGbM7nH82ZP25Y2nH8zCnhwl4KIQBDKXKnkeaR5Ckax8NFbiXMEdy+7jre94N8tWriYrGnjnsconka58NTWbLT5GBTW2JV7bI12kI947VCGYo78wPvqBd/Hkxz8W02QFdh87IZWvPEiy3DwBB6xvKx//9XI++5vlbBqCZiPDWZgyn3rX0BCp8iEtVbFoNzpf6bA4lwTcDCUiKohJEna0qmTzI7ZnhiGmqE/pTZttQMPU8FXwNDhPxJNbHPvRdh4NiM8IERBHp1Py+EPn8I/POYaTD5hFiIYj4Pz0iHg/pCIJELVkuBX4s7/5B357yVU0envBDLOId2k9NJV1uHsik7GEZgpTbU12RVdVq6W88tH3v4tnPeVxoBEbleC/bVJytDNBtARfcO19Ld71nRv45Z1rafhA4RuEqKmyr/u0Sb32dkgfPFH9q5Z6GERNN5I9iMdTZA3y3PDeyL3HO0c61Tp0YqAdhHZ0BAMtAYsoihNwWY6THCeKVL0pva9asE0RpTTJtUVGSUc9WeYZ6AT26c35u6cdxKsedwC5jO5vMAXbcBd4yEQyWZHpAP30l77Op770DXr65qKhQ+Y9sWpgodYt6K+ZLFY1eogxJdmPiORusB29d2R5PuJMFOc2OxZ3EBEZEVvV5AP80F+/mRec9QwsRqgstMmdhEaISuZTwOe/rl3D+79zE6uGOuSuwAgpMV23LATbVbo+RTUjqlJGAyf0e1jUm7PvvFksnt/DfvOaHDi/jwPmFezV45nVgCJzeOfwLh0ZqkI0oWPGxrayYajNyk0l963dxIp1wyzfEFixepA1mzayrg0dGhQGDQzNp/BLqRJpgodMWgT1CJ4YhzHLeP0pi3j3c45mcV8xLQJaUyaSW1kzlqoGrrrxdt7wtr9mqOzgnKfrZTDTzR7yKfkEuxeyhS8ttSxQEyyWiCpLD1jMAfvvT6PRGNmAU7MnH05Gm0hGGSL33L+SO5etIASjkedJILqPHVkWdkvyto0TRXEENQht3vm2N/D6V7xgpMMUo0RoLGlbph7gao6MEsTTifDhn93Gv5y/giCaBLJrOVqKjm9/RyRfokoGZngLGJK66cSAZFlV5RJoBaXUgp5MOHRBxkn7z+FR+8/hyCVzOXhezv7zesi6pY7bZWTrjfpbN0iatse6wWHuWhe5fdVGfn/3ei6/e5CbVw2yYSCABjIv5HmOiwZmhMwwIt585QcFEU1Vcl03xsh7JYSIOCGq4MwhpoiLBJogkeGhAc44eG/++SXHc/KSAjMZ8ZvK6B1myWqfTFBpV5gykezSvXILRicqb37nB7josmvJco+vWsPXbJvuhaa7a6yKaoayzaknHcdrX/FiTjnpWJpFavTR7eQy4642ozTSDNSUMgSuuvZmvvHN73HBby8lbzTx0n1gykOcvM2sKEJreIjXvuKF/O2fvyn13rbtLOHMaBl4iWQRVAzvc1Zu7PCX37uBb132AL2F4lxB3MbLTIRV8tswRS2j9BmqJc2qccVQ6VFVZhXGSfvO5klHLuDxB83m+P3n0ltkFN00OQsgPrUmG2ffj2d/pEeO/WsibZIqNUkAAsOlcd/6Fr+7fR2/uG09Fy4fYMWajfjMYU4oxNO0EhVHx3IyZ1hMGSubq+zHf7+JMINWWXJIv+djLz+JZx89FzOHqaTVZ/V6TqoHT1Xh+gRMmUiOtiS7JvJPfnkhf/HuvyfvnU2IoYpm78RRtQchlSEyepmhCqHT4tUvfx5/+oZX0d/XAxgaI65rRUxkEs0URvmmRaDdifzrv32bL3z1v3DiyPOcEMpUxmdVEvh2UHF0hod42pPO4GN/99f0Fm7kxN2WSJqBaZvoPGKezBk3rxrmLd+6ngtvXUtfb0aMGSJxEp9ifLwK0aU0HYkp/WiDFvRLh6P27uNZxyzgmcct5rBF/cxuZkAH8MkG1dT9JyUYd8crjH2HnSedy4Ka4p1VIpcBkWVr21y4bBPfv3oFF965ljUDkGcFuUt+zdQGMHVSUq1caTv52VrqmJ0J/3jWQbz6MfuDRsRVtd4OzKqL5U6+/mSZMpFklFCC0epE/uSd7+WSy68lb/SAJMfwlDpsdlO629FVic3DQ8M875lP4SPveyeZr0o7XYr8aZXyMVnbajqjaQWHaAfvHUjGh//5s3zjW+fh8gbeudS2a5wVSRK9ZCVCOq9bZYdjDz+Iz/7Th1i8aB42st22jUFqJGEB5+G6FUO88r+v47b7NpA3m2BG5pSoWZVDuOM4K+nQixiEcoiip8mzDpnNy07dh8cfvoi5PUV6oEbiyJwZEEuRaqjcD9uzincCtRLFgzicxdTko2rwkVYtKZBz3T0b+Z8bV/GtK1dw18p2EktfIi4jxtQ8ZJewDhqhdLP4wFOX8BdPO4QM0BjxHswmG3TbNaZEJMe+hIjwu8uu5k1/8QGQKl/LxXQWPMT+g5lO15JMPwudsmSvBf18/fP/wtIle4EqJQ4vUvUS3Gy9M43rXydL0JDqmEk5eqseXMur3/xOlq9cg7gUdU1JONsWybIsmTdnFl/4l3/guCMOQWOJOY+fxNLMgFIDhfNcsmwDr/v61dyxsUNfllOakosRiKS20Nt/vfHQ6CjjAHP6Gjzr2P14y2P344T9+sh8miejKjgXiTh8ku20r5HNEXmj+rRTK5TJZZa2slXO36DJ0s/odu/avDx/YEOLb1+7iq9eci/X37uBLM8xMYrco2FnA7OpFbFVohgs8mdPPpS/e/pB5N4nfySbpz8+lOzcHh5D9wDtYsCPfvYrhoZaeCeYhsqCnJK3260ZLZAAZafkqY8/g6VL9sbMMBG865bAbX6cVBHMGcXoDyzpljmHE4dUfRL3WjSfpzzxTDrtMjWpRbYSSEhWhVlMgQj1IPA3b//jJJAaEZ+Nf7KagUY0lkRTAoYSKFzkkjvu57Vfu4Y7NwaaTpJvEsVQPD5ZW2MQAggonpSCmRFJoh9xKJ5OqTQK5Y9OOZifvuF0zn3pUTzqwCaZT4EcEYfzIOLJRJKhIRkiHnF+i5JJkanv05j83El/un3TCxEaAt75NJVRXLXmhb3n9PLWxy3lvLecyD+/4EgOmt9HUOiUJepSZZBTw1yOWkjW6XYxgqVjQhzkXvjEL27nA+fdRrs0LEZUSsqxT3sImCLVSlaMVTvtwTUbuPiyK2k2G5Vf4iF3G+x2WJVC5bOMR510YvpjJRIpobj6ffTG7f48U26jP3OXytJzo1xZjz7lJPKsaz2MefwIKVsiGLTbQ7zyBc/imU974oh/Tdh69kuXCESX4WIHUcNjXLJiiJf+2x2s2FRSOMVL1T1fJPWX3Fz7sgUqWWVxRRo+IqFFTgexgMQSOsM8/cj5fO91p/CvrzycEw4sKBGIjfQCIxHhzRtq5KfR4shoI2r877WzjHmXdBO3RYBk5FNJ1b3IjL36+njr4w/ml287kb97yoEsLBoMtRyFdYhCakvncqKrXAnbwVVR8nScexqZ4//98g7ef96NqSRTc/K4c+6OHWGKRDJFzLpW0BVXX8t9DzyIr5YOUpVxTfG+3O0xM4qiYP78+en3USfKWBfH7syCOf3M6m1iVa7jeH5tsYjhKEPkxGMP422vP3tk6brNNmQiOEnCGH0D74wrVgzwx1+/lgcGSgqJmC9G0lm2h5HhqvSdjgnBZZRS0ArCvvNn8+lXnMR/ve54Tj80RWyH1RPNRqXizDykayAZRIVF/Q3e/YcH8X9/ciqvPG4uLe0h4CjiQEodqsZk7CiCZ67r5RMX3c9Hf3E7JhC3NuannMnt+UkguBFH7WVXX0ep6UROy4Gq0elObpw9GVWlLKtFhaX/dbfpnkIZlXYZNh9L41lwJENvXm+Dd/3ZG5k7ZxawpUCOJ5QKybtoRmZtbl+1kT/+71u5ffUwjUxwXsjDIMkTun0cirNAEE/peykj+FDy2lMX8eM3HcmrT11MkeWUdMCEBp4GSnSTWYJOX0QEJOIlEMURreDk/fo5949O4CsvP4wl/Q3Whx5w4GTnvqsJlAXkUvLRn9/L5391d9XQY3NBxUPB5Pb89qjMbQEGBga57vobEV/gXPKXdMWyZnKM3umdToc77rhj1H2b/ZZ7CrfcsYzhdoDuBM1xNoCKozU0xB+/4kWccsIxmClpsOJmgRzvRHJUc1gc3DOU8cf/fTs33reanoYHLSkln1REvIsaqdxPhLI9zEH98PmXHcUnX34cBy6YjWqZxsBqqrs2kmCopPDMTMYstUtTS12JNAZyL7zkUXvzozefzIuPX0i7bNFWdmpZaWKolfSroN7xnh9dy/9e88BDri1TIpImUpk5yur1G1hx7yqKarb06OPyof4yuwPJYZ4spjQ0yvjVRZfQDsnhLVSVN1g1ljZ1eNkdboYSLRDUiApiRozKr397UaricN0OOKnRAxZT7q1FQqfktFOO52UveQ5mATGpLtKbbyl3r6QFEFtoTKWGCLRD5J3/dzOX3TlAfzNFj51LKTClZOP6H4W09C/FYaQ+lSaGqBHaJX94+EK+9ebH8rJT9icjAxOcy1Lww+U48TiXgcvIq1j5TEbE48TjSeWQznkwRydmHLYo5+tnH8PfP/dI+ouSdqkEKxDpuhm2/+3FwBt0XEbDKcPqeee3ruNXt69DRCktElFUw9in7hJTIpKbEe67fzWbBganNLl1TyJdWJLVY2Y0m00uu+p6fnbBReCy1DmJUF18HKouna4m1YE2824jF1NzOHU4DXhKcI4LL72SCy+5giwvRq4HvhJLn+UEBRNHf8Pz9je/ljn9fZjaSM5ll+4F2pyQm4HlKf9QIt4C//DTe/jBFbfTbECwYkS601Yeb4GflvfqjB7rkFOiplhwlN7z9sct5T9edyxH792LWRL8Lb93Ovk2/7Z7IFXQDbrh8RJzkbZlFBn8xZmH8I1XPYZD5guiA0jwIKnhzWSwURVDPXmDBwfavPOb13Hn6mHyqn+myeQt/8kwJSIpdCNtwl3LV9ApOyMzPGp2nO4JHWOyHE1y/t8nv8jVN96B+Dz5fi0iWJqL3D2lu2ozQ26mmprdVpZhqve1ZB26nJvuWM6H//lfKaPD+xzVWJVGp2yKEMG5jKHhFi97wbM47YSj0kXEJV/i1gsXwVmGWCA6wRMpnPHvV67hE79ZTtbTQxslG1cStyZmniwaUYQ2TTplzuys5P8992g+9LzDmZ0ZjLJq9sSVlJmjoY4iGkFAY4unHTmXb//J6Zx44CI2BsWipLSiSbDlNjR6mgXXri75s2/dymAnkAl4m9og2JSIJGy+7N57//0pVWByx1nNGLoWZHe5Z2Y473hw7Qb+8j0f5LzzL2S4k8QhuTnSLTnOZ9ZNnEtdfqqbq5ZoJZ5f/vZy/vyvz+Hue1eTFzmmmkoSK7+fVYZZKIc59MDFvOplL0wHYVWFohrH9UGKAs4RUZyDq+8zPvCDmxFrI5qnRhaTPMcyNUoHwRqECAf0t/jXV57AW87Yj5xA0Dx1/JY91ycfxBM8iIs4FYwegsGRCxp884+O4XknLaRdjjLbJ4FUXZ1UlagwJ+vw89s28tGfr6jaxu3Ai02CKam4AdJRK8Jff/D/8e3zfkFfT+/YR9TsNIqZEDTiLHLao07iiac/ioMOOpCiKFDtliVObskyXegmd6dajtTB/s7ld/PbS6/mot9fRhkieZZXApNSzFyWpVlIOIIqWg7yoXe/kxc/9w9T44OqrNs04Fy2hTgZYBbAPBKV9R3jpf9+Ob+5ZS09uUO0SVlEsqDVBWgcrNtQwcAU74WBtnHobOFfX3UMjz9kcbrIWQomKYonJWfviVg0VMAceBOQQLQI5GQYg63IO79/C/9x6b04v2Wi/HiMDQJb5a7xsYNkni+cfRIvPm5hZTykK2nX0bGzTJlIpvnFjj/5i7/j/Asvo7enSFf7minFzOh0OoCRZZtFQKrzd0bRPXK7R7GlKg2ARrOBqxKVx54YjuSHHG61OfXEo/jSJ/6e3p7myP0TYRimJUaOd8KHf3g97z//HvqLvArCVA618TakOIgdnEDb9+HjMIJRlsoh8xp8+dUnc9qBsyu535VTcjej2rebhSptZzMZmdXTKTu88/9u40sX30VW9NJjQunipNrhdaUQUQaD4/gFOd9+06kcNK+BWsScR83IJHVl3xmmbLktkpqRDg0PJ/Ue70Cr2WVEhEajQaPRrCylqlWaOMSlsrUZc6s+e/dn5z09PT00m83qRErH0NilquIIIdIsPK85+yWVQE7meBNUMjwlv7h1PZ++aCW9ns3P3caVxgzMpaTyIgzgXUYsA/stmMcXX30qpx3YT1QbN9F9j6baHJu3SrL8xFWiARR5wTnPP4rXn7aU0FFK6ZDpJFdFkvJcXYS5mXDNymE+/NM7aJkgUmDRkWmLuAv7ZcpEkmoCXavVSh1cah5SNp/LMuo20xj9udO/qiklp+uPHe9iq0BZdjjj1BN4wmNPwbScUNy6pCVwqnlfNxz40I9uZv1wRHzVems7OBQsEvGYeNpBmN/bw1fPPorHHtiHRnDV69dsG3GbjajuPp6dB/75eUfwypP2YlNMNe5pobwdLNXTB9eDKfQUjv+48n5+cM39iBiZBpSeqifpzjGlamZmUzabpGbbVLGP3eqWvldVnTUSvBrvWDIauedVL30+uU+Wyei64okwBA985rf387s7V9FbTP7EMYNcDDBaFCySTXz27GM5Y+ks2sEQMULV7bxm24ze6tKtoopG3sz5xIuO4DkH97Kpk0bdbh+H0whitF1Gr+tgKnz458t4YMMA6oVAGv27s0zZXjVLOUrp5134RDV7PKN9R+MdSp12izMeewqPftTx1cgEP+7jElVWnSUhu+LuTXz5wrsoGr20XINskukiWvXuxBSvHd793BM466i9iAiFRKJ4XDXuoWYSVAI4slqQDCEwp7fgky85gVP266dTpqxIusK6lWha6rAkGYUNYEQ6VlBkObfev4l/+u19mOu2dpvk8n0cpkwkU/85wfD1iNiaKcSlWdKkCVuqSrPwvPj5z6pmuzgcVRBgLJaSlKMpZpHS4J/Pv43Vm9rkWUZDS+I47c7Gw4liAsOl8dbHHcDrTj8AsDSk1Rdk4vAyuaX7ns4WTpZuRRSCxgw0cuDCPv7lpUezb58jhIBKalKsVWxt9Cs5IiZGoEhz0MXhpSTPCv7jwnu4fPkAuUu6tLNMmUjW1DwUdJPHjdSXsBOUE489kseefFyamb0NVAwzh1dwPudHNz7Ij65fQ+yZRdSIVAn5k8JgqPQ887A5vPcZh5C56o81U4K5CK6qZA9tHrP/XP7u2YfjyTAKxBy+ajq8PaJl4CPrhkv+6fx76IS4Sy7AWiRrpjVJIDfLkXfwwuc+k95mUeWPWmoUMY5emaWRu+Jg7bDyuV/eRsuETNvkkkYS6CR8mQBlhP3mNPjYS05kdp7mC+1sy6+arRFNKToqHvU5ZpGXnbofrz19CZ3WMJ2sB5hc1rmzgNdI0ZPz4xtXcf6ND0B1LO0MkztCamoeIVK6SKrX1dDm8KVLOPMPHoNRJXxL19849plpIZ78XY4f3rSaC+/aRK+HBhGNYC7HTeLEUSB3xkfOOpAjFjaJmpZu1p1aWLNTbLHlRfCkOVjRHEEFL/D+Zx/OaQc0KduD6CRLF70opeWIdSgxPvXrFQylhvE7RS2SNdObykr0zlGGDn/45Mczt68Hw6E2Kiw+DsnKNDa2hvjKr28hWo5KTpAcfAPTNPN6fIzuUMZ2O/CKR+3FWScvAevgnMP7Saao7FF0O1NtFkCjqiGtrO7YfUzV0QpLUxajaOpHaUoGZDhQZV4j48PPP455RVY1c0l5smnWefJTjyVYlgbmWUbuHRct38jPblyVjpUqwGxUV+BJUItkzbTGSNMBQ8eYO38+T3ni44BU9pc5n4IAVdBwLCqQu4wf37CW3987SI9PJ6VgaZyCGHGctB0jDVnzorRL5Yi9M/7m6YfTg8dIZZKbhyrUbCaVahqpsCS18zOiQTQlhlba7sCaVuSe9cOsGuoQtYM3A3IQn+Y1eYeKoRp53EHzeePjltIOodp31dhqDGzrjj8iVQoZgrdIOxpfumg5A+0AZkQicXL6CLVI1kx3uo76Ttnm0Scfx4H77ztpCyAjMBDh3AuXowhBUjR1eyQL1CHaxvuCdz75EA6Yl0bJ1mwDk9Sg2MBLykpwdOgQUe/xWcF9m4yP/XQFz/js1Zz+Lxdxxscv5n0/uJfBztgXI2XKiANT3n7mYk7cby6bgpFrh1yVNgW4iVYCmxcZjcxzwW2rueT2tZjzlQU66gHboRbJmmlNN7KdOeEZTzyDIvNUY9C2STf37oJb13Dx3QM084yMcmQ5uC2cKJCxqezhCUfM4hUnHoiSBlJNRmT3WKRK7Le0xFYzTAp6HGzYNMhnfnsfz/jcxbz757dw072r2DCo3L8u8IVL7+aBTe0xL2Y4S3X8wYyF/f28+8n7kYtjyDcxSA1+bezztqRbkBDMc+6ldxNDSHkSEiYTA4JaJGumO04gxMi+S5bwmFOOr8Io2xarVK0DbfX858XLaKkgGoneT8p4EBydUpnTD+990lKKQtKY2pptkrRREZfSr5xztEvhPy9fy7O+dA3v+M413PlgSU+e0ZsLZBkeY//+yKzG2GWzYKTO8E6EjirPOnYBzz18Ni2NVes1hUlMXjQzGplx/m3ruea+AZxkSOoZNSmmrAsQGMPtkrPf9Fdcf8tdNIop9NmYUpaa0i5kMplSNbsLIsZwa5iXvuh5/ON7/xRVTSMPxmBVZY0zRXE4gWvvGeYPP3cxgx1DvaHiyGwcO1QsjSg1EFOceDZ2lDedOofPvPRUVAJeskkvz/YEkmgoQsTIgRRISdajwyNcdNc6/t/5d/LLGx8gWE6j8CklyyBQoL5F2e7wxscu5dMvOmaLzWuAWop2iwYCGZlzXHrXBp7xxUuIIWJZEwvg3Pirg5ELqYGK0h423v6UpXzsrEMIMSK+mFSK+bQUSakimoYQQ8mSvRfx5295Lc1mUTlku6b9FH30mmmMQ4NyxOEHcuCSfajkrArWbMbSghinESXDO+UjP7mTv/3pMhbkJS3fJA9VPfAWYlcFG8ThLF2A2wJzMseP3nwSJ+w3D9WAd36nj+fdETMlYkQzvDhMjQxDPKwe6PDpC5bzhUvuY91QoJH7Lca5mEFmRls8fXnJj9/yWE7ed3a1Ahh/G3dXB6jw2v+6jm/8/h56ezIqD+P2MU8ZOxyysMnP3/YY9u7zqMsmtZSeliJp1axkNQhlh0OWHsC3v/IJms1qgHvNHohVFTaWWv1vJZIRM5fuxxgsA2d++lJuuK9DXrTAZtPQYYJseVyKCBaMrCo7bKvQjsLrT1vEZ152PM6SBeqqTpE1ic0zhDTVsztAPBfcvo73f/96Lr5nmFnep0tXd8plF/OYtBlsG+994qH83XMPTfmwEwhkF7NUOXPRso2c9YVLiR0hjbPZ9vMAVHLESkJZ8pVXncJLT1qU6v4nUUyw/Uc8AjjnUsssozophE6ncrRqfduTbhrTvHYzIZhDJR93BraYS3+11KPyojvWcdfKkn4EiQIa6YzjhTIgekGd0PFCLBwLm8ZrTj8Qjyb51SQENZtxRJy1ERG8h7Vt+NBP7uLl517OpfeX9GaGecO5tBTvYpYCMgOx4NT9ZvPWM/efVCAOQEwIUTll/z6ecsR+DGkHZfs+SQA04CgpTfjR1fcSYgk2uYYkWx9t04Cu2e0zn6KbZigRRDEXMQngIjitb7v5zfnK22iGdw6R1M1nLNEEs4hzKVn5pzetZ6gMhDziXRPvOpjLt7IGUx5mBM2I6rDWIE86fC9O2X8OwQQxTX6r7dSJ72mYeKLLcAKXLlvPS790Gf/wkxtpR0/mC5xvoCoE0a0ksO0ci12bv3/2kSyamxNDuV0rEgDnMBEaPuPVpy2k1xcwYTHAlmRAtJy8KPjtHWu5a20bXNY1h7fJtBRJUld3YujOKaHqBOiqf7s3V992+9uo+dlYtewdn5QuBGuGSn5z21qyTAku/R1T3FZdZJIWEz1gFJIjlvGKU/bFS0paJvUYQvzWwaI9h+TxDRgBUAyhTQht/uWC5Tz3Szfz6zuH6Sl6UIFGHMZFRcQoTIgGliawAUY7KH/5tEN4yhH91Swiv/WOGQclpWdpjJx5yCxOXTKLsppGKaOmIYy9EEIqzFETMlHu2dTmwrs2VX+v+pdqGAn+jcWN/cN0oPuFRarhGJAmk9fsgVQ+xJFE8CScY0nzUpLv67r7B7j1wU14l5FFqRbVKe1jXJxQukAohzlqv/mcfnAfVBFynK8a/07LU+VhwUwgGi4qWQw4hGtXKWd/43r+5vs3sqEcpr/RwrlUzaQuVcsIQlSlQFFX4K2k04m8+uR9eNOTDiYqqBRpO2+9S7ciPcyBg/6ih+eevA9maYaNUcUxqkqfrVG8JLeJCvzm1lWogSPNaK9UZ9yPsefu+ZrdChGqBgiRX9+6llbQNKp2O6iAEEAKSmvz4mP3YV5fzzYjrXsehlYjgKNF/uvq+3jRl67ge1dtpJH30I+CFZQU1QVpFFky4/KgrA3C4w7bm4+edQg9pkTXAEt26lbPG4euiAkOzHjWsQvYpz+vhoolw8o5N/5+s1Rqas6TZTmX37GK+ze2wCLOSWpWMoHveftHUU3NDMFhtErlt3eux/nkz94+gqmHCPOaDZ559IJJnbB7CmaGoGROWdtS/vK7d/HGb9zIvWs3MadZIi7SdjlRpGoWsqVARY2oOAZL4dhFTT774kNYNKuHDhle22AlmpKHtnjehFSNn0A5eEGTxx08m1Yn1TSOZMXo1kKXGmIYmCcHlm9Sblg5BJJcLcklMDY9LFGLZM1ugSE4KblrXcnN9w+Su3Rybw/B4UXphCFO3Hcehy5pgtZWJF2BFEA8ly7byMu/cAmfu+g+PBGfNen4DJOuJy/ixxmRkJtn2IQD5gS+/LJjOWxRD7Fyj3giwWWYpVLB7ZPcb1rZnkjGM45ehMvyqshgfIGElLLkAFMjl8CAZlx+52qMlKxOlQQ/HuP/taZmBmGWkpoh45aVw6wdLtOya1IWoWIOvClnHr4PvT75rPYYYgejTLITIaqlny0iRDoGX/7dXbzgS5fzq7vW0mxGQpZXjW0FH4zMQCwjWurPmZbDAkRKhTmF47MvOZbTDpqVEv1NyZ0D36zGXkzSKQnJ7ywuvQfCaQfNZ985BUYkdrMGxxkel9wxDiEiPiMjcOmKTZSmSbQdiNm4n6MWyZrdghR7Ni5bvoYYStxIkGf7dNTRV+Scftg8hGKPmtE07ApKzZGqhRimBE3W4wODgbf9z4386TdvZm3L6G324MylWTKVU0Kdq6qgNZV1Sk6QiGYGUcA8n3zO/jzt6H3oqE8FAZJVYuTwkIoDxhGn8UhN6jbX7u8/r4cTF/cxXEKOJSfzeB3jrVurZUSE3Ak3r9zE6k0R5zyiOuFFdXJHUU3NNCdNe1UuWzlAlnXH0m7/8DYRogkHLujh2IUZqlSWzZ5BIantWFRHKYYo5E65+M4HedHnL+M/Lr4T32jSyLOR4AiMXx2jmdAiUqhhpSMIvOdZS3jpow9BtY3XEnN+yix1M6PwcPrBc4nSwKyE7XSLFxFMlcw5Vg0Eblo1hBDwUpmT4zD+X2tqZhzCg5sCdz04nII2VGlB20GAEEpO2m8WC/obldtrfL/W7ohoRKvlbtMZ5pQv/G4lzz/3Ri65r03WaJCLomopvWbCYJiQxw4ZEMRol21e+5gD+csnHkIQA3Ik86Q2yRO9xs5gnHbQXHp8SccJKmGC5Xb62+Z/YTDAjSs3AS6NDJ7An1mLZM3ugVNuXzvEwIYWzmVVV/+tAwljESAz5cQD5gEOsbQo23PoITrDS4cHN8Fb//cm3vGtGxkoO/Q0fCoBjZtTdMazICFFjlO5qNBqKS87eW8+ctahZJLhLSI4QhRKi7gpdGcYjqP2ms3SORkxZjRirIoAtiatLtL3MDMU446V68DSQDhx4wt4LZI1M5504gp3rSvZWMZ0sOvWnYKoTo7RqBp5nnHq/v2AVtMTtz5RxsOqLg/WfYaBqqKm1azv6o4Jra+HGW2neTKWmoWophlAhQSuvLfFi8+9iq9dfDd5w5MLSCzJRcGlbbyFQJriDUpJtmEQI0pGu9Xi6YfP4+MvPJb+IuUzuqrNXOF86qY0vobtMOnzGH09jmP37ieaohMIHWOsSUHIRblplTLYaSOEav2w9Yfb+iiqqZmRCCvXDFNqrA7qqkv2GEZbiQJEMxbNarJ4fn8laCOJeNulK86VbQIYQkCsg6uK+LodzacDHSkQNcQiMUacKR7jf654gOecexUXrlhPM+9Hqm7wIi4N3dpqgxgqOR3nmBUGCc5DdHTKkhP2m8OnX3kcC/oKrCoZhGoTCNVye+oQhKb3HLrvPMwURSYXeBNwTrh//RADHcVX5afjUYtkzczHUlOL2x8cTFFtHX/ELIwxFCT5oQ6alzOnmbrVJENkoidvjXVPIkv1zaXLKV2TKAUi2QSn3SNDFks6OMyELPesD/DuH9zFH//XbawfaDE7F7DWRIbYFoiA18iwKzA1JHZYMqefz7/ieA6c24NZmfx8Y5841VQDv47Zp5dMqXo7TA4Rx4MDg2xop7040b6qRbJm5iPQDpFl6wLOOyxGqGqHt4WZEdU4fFEvvXn3hKsqLyZDVaBh3SW3OAoCBYFMAxK7TR0eWbq+OHU5mRreC7euHuJ1X72Uf/7VLRR0yFwvpoL6yXx/QSyk7+YUCUpPT4PPv/hQTtq3DzVDScvq7b/WriKAsXROTl8jq8bVTkLlSTNyBsvIysHku055kls/95HfgzU1u4BZau3TDpE1gwGpLIvUXm3so7dEq+ThAxf0k4lPBqSlDueTQS0CATCcOMqg/H7FID+9YTV3rO2g3qWBU5N+xYcWh+Ez5We3ruW5n7+a827ZQL/PaGcF6gaIlDhrTtBLJolRl9SPqUStIHORTzzvcJ529KKRLkFYIFpa2j+UJKNfWTQ7p7+3JzXmHSe6PR4CtFS5f90gVN9uvK9ei2TNjEYkmXPD0bGuNZh6DvoMUZgoTTJZG4qIw4mx7+y0RDNJTcBknCYH42HiMS0JFlk71OYt/3ktz/7MZbz0a9fxpE9dzJ/855X86s5NlAZgaAyYGhpTRYuapuRq3bE50JNBiUTtYBqxEBGBYMqnL7iTs792Bcs2tOnJM6J4clOcZTiXI5RbddxSBMThY5uYKRJdal9ojtBR3veMI3nFKXsBhseRiSdzObnLceMEz6Yex6K+Xub2OKJGYlVasH0UicL9mxQII+0zxvJwfIOamoecoU5gsF2mJXaVxjN+y6y0RO4uk3PvmT+7J/19jLW0PbwZ0Rpk4vnmlffxb1feR2klJvBAp+Arl63hhZ+/kj/6ynVcfMd6xDnUQQdoR1AcKh41wU2yeexkcSogGRFFcmPlQIc/+/Y1/M33byS2m/QY1enf/b5JHMb79g5FrEXIZqHBU0iJaGDYMt7xxKW8/QmLwXKCdV8lic3mnx86hPSh+5sN5vcWVROfyV3knBPUjA2D7donWbP7s6lVMlwazldC150BvQ0MKLxjYV81O8kcKts6XbYk6UxEiVy5fD3q+zA8IkIzDjErM8wC37nhAZ7zxcv5q+/eyoODgaYPNFzE00HRKpl76kj+xzT5MXPCjXdv5GVfvowvXrIWyebRzkqchZQiNZmlqRk4h6rRazCMY0PM+aNHzed9zzgAj8csRYgffgwzyBws6MvTR93eju8iyUreMNRKUjjB0x6Jb1VTM+UMtpROTNaLY2RK1XYpMsechkvnxw6k/0A6yRzgJGdh09MIHejO4JEMcxnBFTRyaFnk079Zzou/cBW/WR7TKAntkFkgItstp5ss3TxQR0Rcxv9ds4Hnffk6fnffMLO9kNGisEBZeFQ7yARVJlsgjqAZOW1QpV22efYhvXz4rKMo8gzrJmNPbpNPOZZqUpnTyNLIDTeJ71TlyOI8A+3kN03V3VtTi2TNbsFQGVNjhm5FRddfOQ42SkML7+jLXVqg6Q5qZIyY5QjGYYtnoV4QKasit7Tsd9Yhw+OkIG8UXH73A7z8y7/ja79fTik9iJPK8hmtMGN/3zFEhFbI+djP7+A1//l77mkFes3RyZIoqDUgFJXfYeyzN4do0icQBEeBEAU2Ws6pB/TxqZefyF79GT5GYndEhpRjX+phwKrREEpfw1fJ5JPDLGUfDHW6waXxt3stkjW7BcNlrDxhEMWl1OCtj3fMLC0zxWFmNDIj81XjLZeCEeMJx7g4Txqcoxyz/xzmNxxRK1+cVIorvpoJo3hTGkUPG4Yjf/7N2zjnvFsoS0/uwTBirFq+WQTVCYM5qlq1NKsi9BZT2k2VH/rApjZv/K/r+PsfXo9pRm6COCPrGlguIq47fGvLLyukq4iSVQ0fjJJUXRRK47AFni+84lSWzmukOVM+Jxch8w5ky8mIDwvmqgido89V6T+TMyQRcRQSGI5pG0zUjagWyZrdgpHmC1XO4jjHOoyyLru5g845vK+WiiITJ6GPg4nhNdAGjt1nDgfs1UupqbnG+C+UVC/zDss9Hzt/BX/0jSu4Z0O7WranSpcOGeU2o+yCd6ChRKq2ZWA4J1y+Yh0v/vKVfOvyFTR6eqHykapZ1T5ue8jIPJostvFEcuvQMWXvWb2c+4qjOGaf/sl6Mx5WGo00XtZNYmxHF7Hk04SJCxAm/2o1NdOYbm2xuBR2GVuj3WW8JXjS1vEfv01MKn+Yozf3POeohZQhIKNaio2HAD5GXG+T/74midplK4aStWcdfBWdd+OYwim3My0VvXfVktnjxPjOlXfx/HOv56K7hyiaTTqpBThMfM3Yim6Oo7eAuoxBzQmuoL8Q/uVlx3Ha0nlVXfrURuN3jbRNJj+yYzNmhppCFQAaj1oka3YLrFpumibLajwxZALxFGHSCchbICm3Mq+avD7/2EXs0+9olyGttLvjSse8pyGoz2mEFvMacN3d63jZuVfyP9etQV2GtxIv4ycwpYtBUnZFMHEMB+VDP7mDV//nbawfGmZWnk54J2nio2lMddjjfPexCIIzRUTokOO8pxGH+ccXHM9zjppLqLqXyw5Yaw89ad/FcpLzu0chzuGdS998gqdOp29aU7PTZN7hfEppSdHtsY9IdJfkIklwYlRCiOnhplVT6wmePAYFxArEJ1/YYUv6eMIR+xAqAVOdaHqfITEQpYmqxzeaPDg4zJ9+4yo+ef4dBMnTEhmX/JPW/Xy2uXSuEsH71g/x1n+/jI/97A7UZ2m0gUUcipdkFTpXWYjj2JNbfLZKRNV8NRTLaHQ28r7nHM3ZJy9I+ZzOyL2mssNphTFcJus2WYbbR6hm30j6bezFrEstkjW7Bf2FB0ntcr0pbMMSSzNckrXUDtAJ6ZEmITWInUxaTPL2VfNWUiuw3OW8+uQliE8VKmmUwAT9KR0YAZwhGM57hhXee96dvOu7t7KpU+JFKTXQsYjGNqaBdtX8VpxwzT3reem5l/ONa9fh85wcxYlg4kGq5hJSWUmVxTyWrjBIumogAp5AS3Jie5i/ePpRvO0PDsRXM4OcZAj5NJLIqiUdgY0xXT8m02wZUmytLRl9ebX/Jyg/qEWyZregr8goUjCWaBMvtxlZsqb7O1HZ1Onmx1XtsmRnJcB43BHzedzBCyhbA0jmqkqa8U69sTjMO3zh+fxvlvPqr17LXetLcp/jLEMlo3QZDWnjPXzzujU890tXcNU9LfqKYjwZnjRSdUMCUlTdRdod+LPHL+XdT1la+XjHPmu60F0me4aGYxrDMNmtIYJTpTfv7u/xn1eLZM1uQV/hKZxWtkB3GNS2z2wB2tFYO5zy7BCHT6bI2IdOCjPoyeGNj14MWRMIlK4Ypx/j+LiYkUel2XD84KaVvPTcS7lsxVoyr+TWoUBp0+AjP1/G6//9GlYNC0WRUdXi7RRdv6mI4JwjijDQyXjrafP50FlHVoGwdP+2LjyPGCJ4c4Bn7XDEJ52fHCK4GJjVSLO3ZXybvxbJmt2D/mZGb+HTCeJSlHP8Q35zNFtE6ETlwYFWtdiSSli3La4TkfyI8Oyj9+LkfWcRQif59yaTuGdGkxITT0lOX7PJ1fe1eP5XbuKH1z8IvsGDAyVv+datfOiHN5M5oxFboB3UTbahw9Z0A0upi1Gg1Ym86sQFfPT5x9DwRrSJy/WmAwYgxlCIrBoscZNq9ZZQSb2M5vX2dOP641KLZM1uQW/u6G82Kosw5TBONCI0SWH6fwjKmsEScNUol4kbY0wGM6O3J+ePT19MO2YUpBzI7SIw5HPMIg0CaMYs51i/scUb/v16/uFny3n1f17HN353K0VPk9IKLO8Fl+GsPfbVJongTHBWDe9S4xnH7s0nXnIsReYImroHTTRFcDpg1cJh03CbDcMhBcom+XHNwHnH3P5imxfGSb5cTc30ppE59uptIJZSXkzcxGI3MuA+rcpXrGlXnYM0nXG74IATEYiB5x67hFP2n09LY3rVark6UQQVILOIOZfGl0kgOvAZDCh86Me38Ktb19Js9CAGXgKM5CpOzocqsrVtHTFcrgwORZ50yAK+8pLDmddT4MSR+YKsygKYrqSPJqza2GbTcOoCJePN3R4XxXnPkjnNKgw3PrVI1uwGGM3Cs2h2lsr1uhHbCQ770bmLInDX6o10opKNVF3s/GkhZpjA/D7Pnz9+H6I2kxiP+lw7ggBeoDf3FH6y/YnGZ+z7JweDMjxUcPoBs/n6K45m/qzmpPIppwvd7XH/xhYDw8NI1f5sMqhBw8Piuc1tHC27cjTU1EwXDDLnWLqgQVTFSVUaOJElWSEiZE64c02LjWWyMLEd7HIxBhOHSRKgZx+/N3+wdA5D7bCzsaCk4mNvO4mZbSEgDmgF44glDb7+Ryew99ycUlMa0XS2Hreg+j53runQjjEJ/yQ/upkxp+lY1Fv9zvjdo2qRrJn5VGfFwQv7qiYFmv4d54BnzNLXe8eK9R3WDIVdEqAuKdlbUEsR93c+cT/6cp8aVzzCdL93VwCHysARexV8/dVHcfCijDJk5BO1c5+uiBDNuOaejQTJdmgXqhn7zJvN7GaawZ3ySsc+qhbJmt0GZcm8Hpq5J9JtvDqxMHUXVwJsGO5wx6qBZEXuQjoNSR6rksCUSP7ko/fmKUfvRaedgitRMjCpxPShY+zSGgCJqbpEhaESls5r8G+vPIXj954H0XCZYX5mSYIB7VBy68oNiMtHZhyNxxbbxAxVYb+5Of2NLAnkOJuMWiRrdge6B/8hC3vob3YP+LjNqGw3qOMEyhi5fNk6EI/hJj5bJoN4vPMIDpOMpoe3P3Epc3saiEacCI4w5d3IJ4VmtLRBp2yx39yCr7/ieE7Yf1by0bocj5txgiDA6k0d7nhwkMJZdzLYVoz+q1RuCzXjyEU9FC6N75iofH+mbZOamnExEw6e12Sv2b1ICESpxppuB0PA51x190ZiSCMNJjhXdgoz4w8O7Ofs05YyHBw+DBHcQz+Pe6xP0cxwGvCxw4LZDb7y8sN5zMELsCrzeuzjZw7K1Xev5/7B1BsyThCltjFuFkTIRDls8RwwxSupTnEcapGs2W3oyZUj9+pJJRdVzfL2MDMy77nu/gFWbGjvkE9re2z2/zn+7PH7sHRBP4EsWavjLYcfYgacMauhfPVlx/OEwxbRkQDjNuCYSTh+u2yAUjxeIraNNKsRgayyDeY0hOMWz4K0+oYJMmtrkazZLUjLZ8epB8yjNIdTkJRxuE2cgMe4f0OLK+5vAxGdYMm2syiOAxY0+cunHYhGw4+I+ENHV/i6olBGY16R8+WzT+DJRy2ktJLCUjf3mcyG4ZKL7txAjysp1aXa7XGUbvT2cM4RYmS/ebM5dEEzBW1Ek694nC3y0O6pmpqHARlJknY86oC5NBsFYp3xzpWtMcgtYBb59S2rwCbqBbPzuEp4X3biXjzpqL1odUq8aRqgRYYjlcftKqMj1+BQDeTmCSHSVwQ+/5LjeObRe6GqOAqgmhI5QzDALKAjLe2Um1cPccsDg+Tdzkum4/a6jAhoSNMsCZQKJ+3bpKfhwcCLhyp1ayxbv1pNzYwkicPBCxosmV3QUZncchtBXRpZcNEdq1g7ZJMeKTtpxGPq6C8y3v2UA5nV9ATz5JR4AoqbcJ7NzmKqhCKjbcMUWcanX3Qizz9+L6ya8eNlB2b5TCNGKuwrkTz/5jVsaLVBNgedxusnaWiKfIsjqoIIpx4wt2p356tZQeNvkloka3YLpGq/v2R2zqn799GmmDBauQUuDQ5r+B5uf2ADv12xfgvf1ZRgBuLQqJx+cB9ve8JBDKnSUcXrMKX4lCc+9nk7iI2qJPIa8S0ly/v5+AsP4WWP2mckkXzG+iDNwHwlW0qrjPzsxjXkLlnQ3XZv4824cWaIywAj4FnQdDxq6cI0I0hC8rtMkCi59avV1MxADFBJPqk/OHgOEsvJCZ2l9lqeFmU0vnftqqof5WZ/3i6jZVrGO4g0+NMz9+e0JQ0GrYm6AkFx1m3ztuuYQdun8a7/dNbhvObR+1OqpaYfM1Ugu+LuHIbineOiZZu45r6N5FmWXAjebx4IN/a5UC3HA2VQjlrY5LC9+6vc2HQApREeWz+3Fsma3QRDqoDLYw/fm/m9Werqs11SP8KODxR5Dz+/cR13rRkY16LYWVSy1NUbRWNkfo/n7551GP0+VYtkVmLkU/aeagbq+Nhzj+B1p8+jE4w0LHVqXv+RRMyS9WeR71+/juF2ObJiMDP8hMPAHBojXpQYlNMO3ZtZhQPncZqmZRrjamQtkjW7Cw4zxRQOXlBw2r6ziSFQesA8zgIq+VYyIQhRA0KOecfqdev43+s3AmCmRDMiO9ecoosTh7jk+8q8AJ4nHbGI15yxP6GjGL1ESR19tgy+TBJniAbMMkoRfOzwj88+hjc//kCEAu8FcX7Gi2QSseRXvHv9EOfdcD/NNKlii2023vYzMQIOI6coHE89amH6u4G5qru5kF5sDLVI1uwWmBkp/VDoy3KedMxeGBlZBOcMZzkStx6lYBiI4VQgGpl3fPeKZawbThZKt33aeCfeZNl8EgtCN3/T87dPXsyx+82n3RlK0dXu99hRVFDn8XSIwyXvf+6xvPXMA9J95vCSEqx3/htMDwQjCiCOb12zjrvXbIC8uUXK6UTbz6uRS6StxtELezhh394tjoXkEx5/C9UiWbNbIK5aL/k0IfBph89jXm+GBSFamygNvBtvVrSgDhyClwyyBtfet5Gf3LSm65isTqZJrd13gA579zf5yFkH0dOTU5Zgo9u87YhFaRlqQkvh42cdzjvO3Bcl+eamys85LTDDibFmqM1/X34/mSuwcSLZ42KCidKKJc84ch8W9OaopTza7W3nWiRrdgskrTqT5WeOIxfP4rEH9tAiIk4oXbVsHvtEwOHTOFlNna0Dji/9bjkbguDEJfEa95k7S3qtEIUnHbE3f/b4/bHQHhHGbpR6ZDjXNjADpyUWIuecdShvefKBiIHEOGIBj456z1TSd0j76v+uXcnN964mcznOUoBqe6jPKM2xoJHxtOP3SRa9+O0KJLVI1uw+pINdLBDM48Tx4pP3JQBFKYh2EMnGXXRKTPNOLEvBld5MuHjZAD+/9r5R1uRUnioCliESsFjy548/kMcdOZ/BdjlqCVi1NRvzzC1JQtqKJR98zhH8+ZlLiRKJKqkjzrafPOMQ59g43OLci+9GfY4XRd326/MBAgEtAyfvt4CT929i2p50PuxU7vmamkeQNJIBKXAuCc3jD1vEYXvntFRwCmGCUkBzKUHZWeoMoziwki/8+nbWDJd4P34z1l3BOYcTD+KZ21vw2Rcfx6n7zaE1rHQkByepEscUwxHFgypOYwo24WhrRmFtPvz8o3jHEw4EHE4dzqXqkS47tHSfRpgFSlNUS9KgLuN/rryXq+4dpCmRjssm3bfIoYDjJSctojfzxJHGzNtncu9QUzMTkPQ/qZZnS+Y0eOmxSxjWgM9S1DcFYiYmCQrkWc5v7xrkf658ECGmsrYpJC1/N3caP2RhH994/Yk89dgF0NqAtDbSwVP6BiIdnA5iWUY76yVoiQ1tYt++nE+9/DTe8fiDcFSjYbsdhiarANMWI6oiBuAxcdyzdoDP/HoFSoE5h5hgOjz2ieMSo3Dw/CbPOGYhwSCz7qz17VOLZM1uR9dqMlr80YkHMK+/SQk4c5M65J0pUQVXNPjUL+/k7nXtauj91DHaujNLlurB83r4+h+dyD+98BiW7r03VhrDg4MMDRvD7YyhoTaxtYlFfTmvfdLBfP/NJ/DKUxaCdrb0Ocq4XoUZh0gGZoiVOJQv/O4+rn2wTX8WUQSngk1QViXVRYPKam+XygsftS9L5jRTP09SzfZkEJsyj64x3C45+01/xfW33EWj2Pk9JVUkChyhDBxy0H584/MfY86sfqgOqpm4fKh5eFE6iBX86bdv4osXL6ORFWSy/RCMGWRVM1408qrTD+NTLzyUNMJ++9HQyTD6GLZuN21T1AznHas3trj87k1cdc96Vmxs08GxT2/OMfvM5vQD5rB0YQ8IBE0Cm7nNtdi7y/kRNFUrZVnGZcsf5Kwv3shwGcikg6knugKVgB/TtWm0OJoZZYgsbMBP//xxHL5XL2IlQXLyLZ41Mdu/rNbUzFBEM0SU152yN/N7mqkbz6jAyESmhAARh3gBn/Gfl9zJ+bes3ZxobNsX2u3RjTqP/EyqIXdixFgyf1aTPzxmPu9++uH864uP49wXH8OHn3U4r3jUXhy4qElQI4YWEKquN0ksjQmbc09rttyeBhgexTthXSfyvp/cy6bhFnmEId+XRsC6Nl63lrA0e9tVtepGNOEFpxzI4Yt6EE0+Xq+W+o5Ogq3foaZmN8Ek+bVOPnA2zzx6AYMliETEOUppkFu7GqMwRlWEqgukxznHUFQ+9MMbuW+wnRppaCBo3OVYzmhrT6QaH+AynC8q4cxG0ne6t9TrUvBe8FmDzGXpeZL8mwKTjtpOJ6IBGsECqkqIgSgRkYwvXng3v75lHXnuCBkUMaAOUE/ltNwSM1RBRQgxsHdvxqsfe0CaAlkFzJxLdeCTYXKPqqmZiagQRcBlvPWMg1nQowSFPA7itE1wPdUpsPWJlgQpWRo9Rc6lK9bziZ8sI1Y5d5ml0bFTSfflurKdtK9KBapurhLC9Nj00xR/jEeEjIiZEclSJN/lZJJz0fINfOrnN9IrgSDJ4bG5f/j431xNyMRo6DAdbfDik/bm+MU9W/ptd4BaJGt2X0RwlhobnHxAH2eftC9DmtMhxzvoqCfX8apwNke5uydWs9nH5y5eybcuvwePEavOPTVThBnmPIKS0yaTwKqNbf7qO1exqlMQnMdZnJRkiaSekh0rWDK74I2PO2CXmhpv/x1ramYqAplZagDhIq8/82AO7jGGrQdVwzutfJQTnUBdS6UKrOgg7znvLq66eyPePzJzanZXTDwRQSyARlox44Pn3cpl9wzR9BmaQ0bqBzkZDE+nY7z+MYs5fK8+ou78LJ9aJGt2W5xB9IrhIRhH7dXDn5x5IC6kjuBOS6IrJly2UVmU4PDSJssbLN8Yeds3b+DeDa3k06qEcmeXcnsuY0o9LSbLXRzR9/CFX9/Cv19xH7kvaGBobINN5G3tDgJO9qJZJKpy3D69vP6M/VAT3Hi+y0lSi2TN7osTPBleBPMZmPC6M/bn1KVzaJWpz6PTrTsDbY2hlgGB2bnj9/eU/M3/XcNAWyktohZTS7WoaBq+UrMNzJL/MaWHptJKFYeLJU4yvnfVvfzDT+7CxJE7CKLkpHSfsVvX8GCG10CkAS4iltrT/dXTD2efWVVljWx/KNxE1CJZs8egwPyeJu9+ymL6vAdN1sukEAeugcQ2s/MO375mFe877zZUPJjHkwakTFD5WLMFqYTUkYLTTlyy9jxccNuD/Pl372A4CNkEieKjcWZgGcPekblBCJFW6XnuMQt5/onz0GAEEYRs7FMnTb1La/YIpIoKq5Y8/aglnH3GgcSOEi31DN8eYgExo/QNAoGi0ctnf7uMc35yK4hiCE4mX+q2RyNSTTtMS241I3fKhStavPmbN/LgpmGcL6qRX9tGUKI3MnP4jtLxvew32/Gepx+EOI+J4DXskjtk+0dHTc1uQkrgFsTBu568lOOW9FAGnZQ1qU5woUxC6wsasaQnd/zjz+7mny64C3GSSt1qJocpRlVh5IQr7h3iDf9+LbevbtOTQ+Ym4wZJubCgOIuoa0BrE+955qEcuXg2qFKKkBGwyezkCahFsmbPouoPue9sz/uecyzN3KNq6SSruuuM1wRDxYNz5NZCcARpYAZNp5xz3m2c84s7iZK6mKeARKwW+Hs4lrZDV+7Sv+nCZOLw3nPFPRv443+/mhVrBugpGmBC2Z05sz3MkZmn42EwtHnpKfvzspP3Ry3gceTOiNLYpUyEWiRr9iicSOoqo8Yzj1rA289cinXKZNk4P+GS2auiAkEyvComivMOEaN0TT78o5v50PevoaUpQNCpJFJNd+kEnekEjGQTWjWZUEGNaIpD+M3t9/Pyr13DLauGyXOPp0TF47fbSzMhksZvtEvHsQv7+eAzjqKniDjJwPmRwF3a7ztHLZI1exZiiESiyxCLvOsp+/PEo/ZmIOZ4i2RakobMbg8jWk7pCzLXosia/NMFD/DOb17D+rZS4IgBxHRSy8bdFslwGnHaIgJmgoonc8IPr7uXl3/lVu5bN0wjn5yIdaVzi1LNGJnlHB953uEcsKABk+xWPllqkazZowgmQCTTDsEc/bnw8RcexpELGgyXQpR8kk5+obCSjEBAcCZkRc4XL1vNq75yOXet3kSeKYpLhXSTes3dj8wUMSO6ghLBuZTy86nf3sNr/+NO1nUieTb5SY7d3MpumWZE6GjGB59+EE8/ZgFRS6IUY5+2S9QiWbMHkcYzBMlSWzKBgOPQhT38y4uPYkEeUnrK2KdNgErE4ShoEK2kYYFe7/jFrRt5/peu5We3D2yRErRHCqU4Sldg5miKce8g/MV3buQ9376JYWvTyBQ1YXwnx9Z0t6GQIuSdTovXnrqAtzzhIFS790+trE3tq9XUTGeMFKAxh7kGmaXGCh3LeNLhc/nw8w6mE10KviRXF+pSmoqNkwAZXUYwwWkE7wiuSSaORmbcsmaYP/ryJXzi13fT1s39HdPi29LSs3ods80W0swmlXka6cuZKZFIjpGJcfmKQV77lUv53IX3QiNPoxcsIi6Fu7aHAF5B8JhAq93hiUfuxd895yi8F0wc4jL8FNfUb73na2p2V0QQV9Co5mA7J8lnJh2CCa9+zMG852n7UGo6ITvOQDOEgFTjR0fj1HCiRJdqu8VCiqpmOblztNXxvv+9mtd8/RpufGAQkYirapOdDmOqmAawNrY7RMJNEDWsmktjltwNQ2GYz/x2Oc/58lVceMd6+hseL6mIsFsxMxnMDM0kVTm1AyfsO5fPvfhY9uotMDO8CJm4Kc/on9pXq6mZYRhCpopUKUB/+eRDeMNp+9Bul2RRyGghmmMyuYoNEaEsS5zzRHM0e3r59rUPcNbnr+RLv3+QVkhzaEppoChRMiJ5lSozObGYriSLWIgWwXucy7j13vW8+ms38c7v3crA8EYaRRORyQTGtkYkNZ5Uzdh3foOvvupYDlqQBPKhpBbJmj2eDg0cYGpk4vnwsw/hRacdwHB0hOgovcfHyVp6QuYzzBRxjmievoZn9cAQb/+fG3jR127l8mVrKCSSOU8W2/gYklBO0i83XYlOMWfkLmP9QJsP/ux2nvrFa/jhjQ/SJwWeJiLDmIzfnm77CDF02Kvf8+VXnsCxi3spq+4+O9vhZzLUIlmzRyMYIoqSk8VkTfb1OD79vEN5zgkLCWpkKkSb3FQ+NTA0dZ2pEqlFMpxF8iLj5zfezfP+9SLe9b83ctODA5BlWJ7Skaw7fmFUest0ZvPnTL9nOAbbga9f8SBP/ezVfPSnt7JpcJjeRgP1VHmmBWo7JzvtGJk7p8nXX3EIZxw8Dw0e/zBcWHbu09bU7DYIOamVluV5SmK2jLm9wldefATPO2E/NnaG8L6JGJhEVCIqOTbOyS5VUwarRpZ6BxYDMetFQouewvEgc/jn3z7A0z9zBR/44e3cuXqAzFUWUUhWVpJLTQKkKQk7AN17IYKlmT2TtXG3x1aibCkB3NCUGN99J41AxEjJ3CKBwU7kf69ayYu+dDVv/LdLuOnBDeQuI/dNooJZB+ciTsGPY/V139ssVWwL1WQGMUSMViewz5wm33jlyZx5+N6YGnidcFriVLL1Xq6p2dOQzV1pnICKo1TP7N6Cf33JYbzxtP0Y6ASiCGo9+OjIdXj89lsjQpNmzqgl4XQWEJ8Bjh46zC6UdcMl5/xiBc/49BW863u3ctU9Gyh9VglPmmcTrEWUqpVYCLjYIZoQNcWDBUPGittOMhKB19R0ImIEjKgGsSRUfRq7uZ9OjJWbOnz98jU851+v4LXfuJbf3rWeZqOXwueIOJSYAlZ4zNJMGhsn+jx6yaxmKEbpI2LCYMdz2Lycr7/ieM48bG6qmMLSrJop+u7boh4pW1MzBjPASoJB7oyhtvG+X6zkyxdch5cGisdlSjRFdtLO8BZou2Z6s9ihE2F+T8FTDpnLC09dzOMOncfCniKdQmZEkdQfXWOaKS0pn9NVSUXsZDBkPFJPzHQzqSw7c6goXjIGOx2WP7iJb139IN+5YQO33r8ewfB5Tlad9t1z1DS1kNseY8/plC0Ag8E4bp/ZfPXlh3Hc/nMw23Ke9tjnPRTUIllTsxXJegricKLkZqjBJ39zN+8/7zaiGLllOHE7GYQQVDKy0EbEiAjOjCjQLtN7HrV3k6ccuZinHTmXRy+dx6ymrxZ+oVJxl1q8iSSNnKLTQTWNYM3EEJdsVdLgWm5/cJALblnLj25Yx6XL1rJuqI3LHL2ZVp8s5ZimJNMkZjtynqoqrppgGFUZLiNPOXQ+X3zlsRwwr48QS5z4kdfckdfeFWqRrKkZg5lSWuoy6UWJZJgYOZHvXLOad/7vzazaOEyzWVR9EXccM0WdS4GHqASfAUJuSjAlqEEMNHLlkIWzOfWghTz10DkcubjJ4nn9zG8UVaeh0RZk9WFGfaaJPp50/2eMq7AhKis3tbh9bYurbn+Q829fz9Urh1i9KYAo3hsNceCEaD4JqwPTMLJ03llpCVEJOM4+ZR7nPOto9urPaZdGnmUpt/VhphbJmpoxpFMiBV5Mqvb/GGKCSJvLlw/xlm/fyNV3t5iVC5GAOJcSqb1HNY5YRKo67rFqAs66LcSk+rlqAOwcpgEnjoijE5SoSuYiC3tzDlrQzzFLZnPs3k2O3ruPgxb0M6e3oMgdhXfkfuv32yyXm++LqpSxpFTYVAp3r2tz58p1XPtg4LaV67nxvo3cs6HDUAleoMgljcIgjfeJKphkZLGFc0JpLs0A3w7ONA3+qnpJYj5F9xFKVXp94F1/eBh/+gcH05NbKlOSNB546pwKk6cWyZqaSWAYHQPMaLjIPQPKB79/PV+/8gEaknxxIXNITPXcU0U6PQ3nUt/LGAMRo6Npud3MHLObnvl9wt6zCxb3Zyzqz1jQ00Nf0aDZyMmztJzvRKMdlXYZ2DDYYsPGQe5uFTy4YZjVGwZY3zaGSiAOo1LgiwZeFC+2jS7htsPneXAZmQYKTRF7JRBdQbtUDl4wm48/50CeeexeqfenPXzL6omoRbKmZjJYKrPrWIG3kswJHRxfuWgFH/7Z3azcNMicPKPE4byhVb32riw7qY717vHunMNUU26MT6KJllBFu9VS02DDpfk9pJ6NIzOnHcnXCojzqHhyC2QulWi6qoLaERGfpSCJljhhUiMuJosHSoSAkXtH7CgaIy88YSEfetYhLF00F2JI4xd45EVy6r55Tc1ujElGtJzclMw7gjgyMf7kcQfxgzcdzzOOmMOAKSURU8NVeY+7IpBUAtF9LdW0JIccYmr2kOPxzpFlnkYu9OXKrKxDb8NoNj15Q/CFI2s4Ci/05p45jZxZuWO2V3qy5EsUMZwzvIQ01jVGVEMVQZ5akTI6iAUyaVAODrOw1/jo847m3LNP4qBF/agGok/zaR5pgaQWyZqayWGkeSoipBQgE1QhmnHifrP5zz9+DB955kEs6i0Y7KR8QjNLKTBTiAggMY1lRTBpVONuq5nVOCIZzhy5Qm6ODIdTAZdhzqc8RE25ihmCcxlInp4rGZjhxaWmcebGTZrfFUprENQT2pt49rGL+MGbTuXtZ+5H7kFNEPH4Kql8OjC1376mZjfFAbkTxCXrxjlH5rLqBHL0F8I7nnQ433/TqbzspIWYKlqCupQco6SeiT4VLY64orrL6ckwYlUZiDgQRSlxRLwZzgxHtcQXIQqopFxHHKQU7dTiSJyAQEmKtDsLeAtkFqpRB8kXamiVCjQJuhanCwhhJJneIZgKhidGpRMiB89v8rmXnsjXXnMKx+3bX8Vm0pLfiaTvN02YPp+kpmZaI+l0qZK4u3/qCleKrxgnLGnwb2efzH+/+iSOPaBJaLdoxxytRC2okVsc6Z+YBGFnl+XVe4ugVdS5K26bo9mbkXGiBOnjd5/p0DRBPP1lB5e6IqmOO1gvkWbyl4piBISS4XabWc2cdz7xQH78p6fymscspCdLlUXpnabn4PLp94lqamYgUolUVIcKPOu4hfzkzafyLy86jmMXZcThYTodj/dCC5caYVgq/+s+f6YTBXBGIwzjtIW4FBVf34Y8K/jjx+zLeX9yEuecdQj7zWoQ1WMWaIufdGfyR4JaJGtqpgiRVEqnzohmzM4K3vQHB/B/b34Mn3jB0Zywj6fTLtFgKa9SUkBmd8JZahVXSs6mTpN+V/CGU/bivDccz+dedhwn7TcHUwELqemuFPRoa8q7iU8ltUjW1EwhzkEWHWJClEBAWdyf8SdnHsBP3vwYPvGS4zhl/15Cp81wu0Os8gCtalg7epG89UiDsb9PBzZbwt6MdieyphOZ31fy549byHlvexSfO/tEHn3wfAKpSUYKOvk0EsOUYPkOL+0fTmqRrKmZSiQFd5xzOJeTIXjnMRxzZzV4w2P35ydvfjTfft3JvPT4Rcxq5KxvRzohpQ4FBExwmnx1qKvakoWqV6VHzCHWDf6M52lMSOXv7N4mg1VzeNJLGpilfEmyquNQiUi32sYhGglBGWgFgnlO3H8uH3vOQfzqbY/nn553DCfv20eKvUtKV5IM74sUpBGHcx7v/YTfYTpQJ5PX1DxMdE+1dOgKEbhl5TrOv2kd/3fdOm68Zw0DocTM47ICfIqJY4KLghcHGEGSlDkhlUKKgPM7GfypelZ2P5cI3lyVItQ9zxSVkkiBuYwsGBJLhizgXYP9F8zmqQfP5gUnLuDkpXOY2/SgipFVbejGvufMohbJmpqHkXTsQtQAGN55wNMJkavv2cgv7ljHr25ZzzX3rGdtq42ZkfsmmfeotsldTFamLwh4TFMTDjFNLdRGhG1rxjvVU+/KLaPrSo6JpDpsi2BGCJ5ghmkH3xCWLpjFEw+cy1MOm8NjD53P4tlFZYNm1WjXNG/beT+tl9KToRbJmppHgFj1+fYxIs7o4MnE4QkMttqs2Oj4zV0buOzOtdy8YhXLNnRY1TYCjszAuYxcjNw6iHdEukvWdDrbOMnYE57oyYRM95tBbBEkoxNTBWRv7th7Ts4Re83msfv387iDZ3PEvv3s1T8rWaJAp1qaF2YYqUrHMLx3dBN8Ziq1SNbUPAKoRpA0oUWqJG+LEJzDO1d1u0mt0Na3AnetGeKOVcNct2I91z+4iRVrhlg1qAwNR9qqdLRMbduqkapVrjjQTS9KImiWxGxETEnLdG+RRuZpNjLm9niWzOvliAVNHrWknyP2ncOB83L2nddbjV4QQrcu3AJKViWSK+ZIndIttVHbeRWYPtQiWVMzjbCxZ41t3VFXVWlHuH9jm+VrhrhvU4cHB9us2thm7WBgw1DJxnagHYwQI2VIoxgycVU7NegrHP09Deb2evbqb7JPn2fJ7CaL5/axZI5nbn8PxdhTrBpUtqede7VI1tTMIIw0kdGjYCGth8VVvXVSv59SjRg1zamJqau6iaXmQSJk3uEF8kwQiVWSSzfRpbvsTvrs3Ja+zD3xvKtTgGpqZhBSSaHhiFLQkQalZhDSPBlTIwd6MqG3cPT3ZMzuzZnTUzCnt2BWM6en8BR58hUGy4l4tPIhWiyr5XglkKSV9I6kEe1u1CJZUzOjSNFxQfGU5NbGUxK8ESWCS/0m06DZiBBTbqOVYLFaoWkSRFEySpwGjIgaROdGpjV2/ZduilulzTRqkaypmVEkN5biCGREyUEyPILH4awbTfYYGYYHyaqbH2l9JjjEPAGHOoeTtATPRoV0khhvudym+n3s33ZnapGsqZmBOIFMJPWKrGrAU/u0NO9bum3H0nDW6r+RuxMCmXh89ShwVcS966OsXmvM4Jo9beldi2RNTU3NNqhFsqampmYb1CJZU1NTsw1qkaypmcZ0q2TSrTune9R9I4GW0X9JzSnGZ/SzJnpMzWhqkaypmaaYKWqxCpSQ+gZVUWWzlMqDVQPHANVRYmpplMKIHHZ/NtDu4/egCPWuUItkTc10RpVLLr2a62+6gw2DZWqLBqmrOam7uZMqNt3tdm4Cllr4ilU3DNNKZC3FujWmfMmabVOXJdbUTFPMjHZZ8po3/RW33LmMxfvsxeK9FrFk3304cP/92X/ffVi4YA59fT309/bQbDbpaTYpiozcpRYZExFDxDtLjXOn4fCt6UQtkjU10xalVQZe85a/5dJrbqK3WRDa7dRkrToHms0eepoFPT0Fs3r76O3tpbevSW+jQV7kNBoNMp96g5ch0AmR1vAwC2b18Dd/8af09zaxPbQme7LUIllTM21ROp0Or3nre7ni+psp8iwlhDsHqb0uGhXVlCVuamCpsYVaTKWJo87utFQXYgwcst8+fOc/v8Sc3kZ9Pm2H2s6uqZm2pDnUJiniIlW5TDcogxnOCVkmZB7yXMgLT6OR0dNs0Nvsobdn862v2UNfs0Gz0aDRbOAspnepBXKb1CJZU1NTsw1qkaypqanZBrVI1tTU1GyDWiSnG1XWb0r6TX+K1eTl7h3d+6p04qq+InUQnDk3q5q8AjElQOvYbVFTMw2oRXKaMTrVoNv41GJMc4w1YBbTfDqLoOkmFpHuvzPmphAD0UWCC0Qz4hTlWdTUTCW1SE4zUgQTRKrB9BjOpR5/ag6cT53+RHDi0n3iMckQST/PhBviiZIhAmliNGQaxm6OmppHnFokpyXdGlwwBCeKc4L3vmqeGlGLBC3pxEAnRkrVGXULqpTahk4gU493PjXO3sO6XtdMf+pk8mlLADIicO/aFvdvGOb2NUPc9uAQ96/byMpBx6ZWSbsTuvbmzm7uRwSrfJO5dVi6YBbPP3Evzjp2Ac2suYfs38lgdMqSV7/1b7ny2ptoNIqxD9hBJL1mCBy8/z78z7mfZFZf79gH1YyhFsmHiSrsgquKIKJo1TA/fVczw4sDhIF24KZVw/zq1tVcfNdabn5gkNWbWgy0AiVppomjhJHleTUGdAYh1ZCASPK59jjluacs5VPPPZxZvR6zIYRevEuP3jOpRXI6UC+3HybSJSMCioiSxRIJQ6hEHB6P55YHO3zk/Lt5/hcv52mfvIR3f/9OzrtxLSvWtWmpp9Hsob/p6CsiPYWnp/A0c0czE3pm2K2ZQZFBbyb0NXPU5/z37+/knJ/diRdFxGOSxpzW1DyS1CL5MGFV3k5wjo5BcAUu70fUc9Vda3jbf1/Dkz97Me/98W38atkgJsb8nkifNzInI62uVG23sqxSdZ3hRSiaTb52xf1cd/d6vBQ4K9H6EK15hKmPwIcJA9rmEZSCITIHl69Yxxv++xqe/qUr+MLl97JpKDCbSJ+PqM8ZsgbRZYhL0/C6U/B2F6T6PmYGIjTiEBuHBrh4+QDgcBKQ2pCseYSpRfJhQgRyZ3gca4Zz3vfDW3juF6/iG5fdR6v09LkiWYuZRyTDm5ITEFNUt+zmsruwOZKdLgDR9RAsZ+NwSgUqpYGrM8xrHmFqkXwIMIxQtdAnKjFGjIgXuOCWNTzv89fwj79YwWDZobco8AI4h4mrKmlSIMaomqK6rSPXycLyQMqhdKktzEiAaCbckFRpg2SgpG3kPHN7SHVG6rBt947dYSKglsYejK5eQiNYQE2r6qaamkQtkg8BAohGlEibgJfAcEs457zbecFXr+J3969lbkOR6JNgSJKNFO22Kok8vVLyRabfnUu7Ky29DYioaWrCKikrwBkz4iYIUTIaUREbJroSo8HCpvCogxdjOJyVqTJnCvFBEU0lkEGgRHEWUXEpuR3FaWfs02r2YGqRfAioXGyYKQ0vrB5WXv/fN/OBXyynVGWON0pyNG92baptkqpqhBhT/z+gqnxWRAwEIg51MmNuYDRCyXAuqOsDLWi1NvL60xZzwpImalVZ5hT7YM0b0TkQR4ZQSAQnOBG8RaJBsHzs02r2YGqRfCgQKHFkruD2VW1e+KUb+N51d9AsIpk6xJqYKaLDk4pUq8bkl3SCiRBVaVtGJ3o6Qel0Iu0QaZXljLkNlZEN0UHH0xoaINdhXve4Y3nHUw9GtAQ1zLLKvt51uv7PKEYmsHrjAFfevZEf3DDA929YzSXL13HPhuHUxNanK92UpRDXzGjqZPIpwUZ91zSNDoFrVg7wmq9dwXUr2/Q2CrwpZm00a0AUclPUbfYjpgrmtDuMNEYUIIRk4URVPEpfM2d+b8GsIqOvmZFnDiytwKfTVtkWBmABE+HQhbN5/vF78eSj5pFbhzYN8mQnk1X+2p1lZM9U5v0196/nG79dwU9vH2TZhmFiaFUJ/Q0OnJvzxEN6efkZh3HGAbNH9sUjt1XrZPLpQC2SU4DShpijDhwlThrcvGoDrzr3cq59UOjLIipUhntaQkoVMRBAfRJFF9P3FomYCK3gCUHZq89z1OJ+Hrt0Nics6ePgvfo5cFZBf08D5xxmhpuBE+8sOVJp+OpYMU3jCnb6yBlDjAQxMucJUfjCxXdwzs/u5sENQxSNJkK66BiCiSfESFmWzO/J+YsnL+UdTz4o5ajG6hM5wartLKmwHtyUfNIJqEVyOjDzzqxpiFkSSFPBSc5da4f443+7nKtWtWk0HCXVUKbKMpEqEh1dQchzirKFU4fkirPAcPBoME5d3MMnnn0wP3vbo/nOG0/lw88+ipecvIRT9p3Nojl99BQ5jczRzDxF5igymVG3RiY0vNssiV0BGr1xd4ESwwMxBs75xR2869vL2Dhc0tPIUzqWpPcUERxK4YW+ZsGgGu/58R381bdvodOG4BwmccvTRZJo1uz+1CI5BYgJTtIc4/WDHd72rRu45O5Io9mDp0MRBfWNMc9yeGmRhw6dfC6IY7gFm2jwxINm829nH8dP3v4Y3v6UQzlucR9zCyVaSVTQKgY+Osew+iQz7PbQ0PU/ik8W4jk/Wc45P72Zhje8E5z3ycc7AZkIvbnncxcu469/eDOmEXMFWlmPMmohXrP7U4vkFCBEIhkiyt/9dBk/u3E9sxoZhXZwZUSzDB/GnpSGkBGsQ2YthoY7HL3I8e8vXMo33/Qonn/ivvRnklqi4Yh4HA5J1d/pfUe5HKbMa7KbICKYBj5y3g185Pxl5EUv5tP2Mu1uwYRqldOa7sXIQB1Zb8Hnf7eM9/zv9XRCRJyk9nUjQllv8z2BWiR3lu5JVUVMc1P+84rVfPniFfQ1DDElAJ08pbOYiynnsZJHMQULBNdHW5XXnrEP33njY3j5Yw5mdu4glsTK4nIWELPUsBZfjQLdfIJONx/tI0Xatsmwjmp8+Mf38uFfrsDnjiIEoEwdk8yq2dUJV5V9di1zRwlSkpsnc718+uL7+csf3MZgGVMMSTUlwdcXpj2CWiR3EDMwDWkIvKaKDS+eGx5Yz3t/cBumgjrFHKm3j0acpIi3YjgxHOBMaUfPLNfio88/is++9HiWzu9Ng+Zx4HN8t/u4ZCOBGXGCc1kVCU/UAplyUlVbBIyoyj+cdxv/7/zbcS7DWSQ6UmVPdUEZz/LubkfDIZIBipdInud86dd38Z7v306nUyIu7XslHRDd5X3N7kktkjuKRIIIwXlMDJFIjHDOz5dxz4a1uEzIdctkZKtEUUgR3GiRActY1NfDV88+jbedvhCJSmkpRbxmxwlVoNmpcs55t3POr1YgmcO7qinITl5IJGVz0ZN7vnzRnbznB7cxHD04wWvKQug26qjZPalFcgcRVbx4qMrrEM8PblzF965bT18xlzwG2qlT7BaYpBrr6ApKc+w/2/Mff3QIzzhmLkFzghgOw8vmqpqa7dO14hxCtIIPn3cHHz3/fnpdm1x0SsRLJFUJZVmDj/92Be/57k1EVXBZsijr69puzdZnc8128JhBZqkNxeph5eO/uI0yRJyW+KyB2fhCF/BYe4iFhXLu2SfyB4cspFQFVTwQzKVE9OnCFkvIKmIx6tfpgkhyPnz0J7fz0QuWQe6Irp+pjKA7PLgOs4uMz1y0gr/+v1sZVsGPCuYkptGGqZkSapHcQQyIGlPenHN8/+oVXLOiRaMwLAu0EJpVJFtQ1BwqKQDjtY3LMj76vGM58+B5mAq5OcQVeKAhAXNT3PZmF0jfwlKSN6kkkmqkbUSJj5Afzqo87lgth0NU/uG82/n78+8ha0DDDaVqnkoku9bmrvgNRSKoJ3qhJ3N8+XfLeM/3bmEwaBoxoRHVuPV77Pxb1kwTapHcQUQcuVNMPOsGW3ztknvpOMOZxzTDWyD4rGphpoAnIyCqtIPwlicdxCsetZhoYM4QX/nNnAeXT6Hts4toiVpksIwMdCKDnZJ17ZLhdpu17YjSeQQjvIZZi4ASVfnwj+/gI+ffSS4Bbx4ldfPp0vUZ7srS2yw932mKjIvP+dxv7uBvv3cr7U4HE0MVlF0X5JrpRS2SO0gUMMlwOM6/ZR2XrdhIIxtz8olV6T4FzrUoyg6bFE47dBF/e+Z+4EJVwZFt+bzphPM8sCnypn+7iqd99gqe/q/X8dwvXM3TP3MNbzr3GlauLckeoYqTKACOQpVzfnQHH71gOVkjx7vNnZJGR/8fCpwTmkXB5397J+/9wR2UZIgHb8m87UbQp5P3pGbnqEVyRzHFxUBU45tX3EcpGTKmbloslRdGTT0TW9LPnKbnw884gFmNNDLVxzIFfqYtjqDw+7tbXH7vIFctv5/rlt3PpfcN8vu7N9HSnEDXlfDwYWZ4A1XPP/z4Lj5y/kp6fMRrG5DNPTcfBgGPYjSLBv9y4XLe850bKaOBeKxKDdvZiHrN9KIWyR3EkXJNrntgIxcuX01vnlWtrUdhoOJx0sEFYSCWnH3CHE4/aB7BIKpLrRWm9ZLMKBiikRmFU1zegKwXl3uyPABKRsRNcVPcbWFmI7rz0Z/cwT+efxfOB0rpAbJu6TdmNqbscGrEauxy3VsK5vTlOZ+6cDl//d3bGFLDuWqxb5vr9GtmLrVI7igiIJ4LbtvImqGU+7iVwSCODi7NxzZl337jTU84vPKLhdRE13nsYbB2xsVSIvRmGVGMMnU4r34PZgQciOBiiTMHZDTCEA6qhh1p5ERXA7QKqkwlho6yzJSg8MEfL+MffrEcKRxN38FTpgoaSwLpustd0sVItE3EUZY6avrixOJlGJ2oqTBAkuUax+myJC5iIUe90cwcX7poGe/9wc0MRsWLpsbIplO+TWoeXrbe8zUT0nXGl0G54PpVOMlT9+yxD0QpJBCj0DblWcfty1GL+sDAyeZKmkckjm2WZrxQItoBVdQEix7RVNcckWp6jkMlI2aNkZnhXhyBPjCjNChNU5w5lpilbkdTGbQQS4niMXYIET5y3g189Oc3U+TJ/xclr6ptqowCSfOBACR20gXAeUQjJyzpx3fv3zJvZ+Qzm6WE9BMW53iX48oWwRn5mGCMiIAJzoPT1D3eZxmf/83tvP97NzNYGrEqPd36Klozk6hFcocx7tnY4qr7B/BeEQvjLOZSv0gvkd5MeNmj9kEk2S1jl2wPNyZC6RzBsmRpCURRVEIKOLk0XgyU9cMdYnso/eYc5oVSHN51cFlOLi0KaQFK6RwlHpXNS+KR99wF0VQRxITMO7500Qr+/pcryfIiiZ0ZGlPC+HjbVXwSqeG28sYzDuAdTz6EsixH7h9/fxitqLzxzKP426fsTdv6CGqgaYLjyKNszMVRwDvBZ00+9Zv7+aefLyN3EF03y6FmplKL5A4iwGXLNrCupSl1ZxyJNIRgnpbBkUvmctrSOVO/Dt1JxCINbZEJqUbZIjlK5jJMhZseGObrl9zPa/79dp7zpeu5r+3JrCQTI8YSccJgu8O5Fy7je9ev5br7A8Oak4ujKZHMfLWVRr3nVkI0eZwZ3il3b1T++YLlFFKSO9CqBntbAZq29DBcwpsfuw8ffPYR5NpOYzOqzzN+qk66L+90+MunHsHfPOVAOsERXGp1t+3npgtM0Uh5lLfcuwYRN2qJXzMTqffeTnD1vS20M4CKoJY8dKMRwIlQxpKnH7M3DQ+R8a2dhxsTT8c1EAt4BwNt47J7hvjIz1fw7C9eydM/dxlv/NZV/N+1d7ByoI3TDp6UT54hqELHPJ/49d288qvX88zPXcmzPn0x7/nuDVxw+1rWD3cttfFFZIdRUHH87s6VPLBByYsMqSqaRgvWWMzAtdu85fR9+cgLjqcva9ORxkhncbCRSPiWGJij5QA6/O3TD+L9T96b2G4Tteonua28SxMKhnlgOPCbZSWeTl2PP8MZ7yipGYduZDVE5caVw+AMib5aRo+xnDAsdujPG5x5UCqPS0MJHm4MpRosXXUtElMKjPvWd/jkb+7mOedey9M/+Ts+8IMbueCW1WwYCvT5HrxkaRa4L4iuALNqaqPHaUmeOXzmWT80zIV3D/GRX6/irM9dyjM+dykfu2AZy9Z1RkRELVRVOpV6WUTHLF8nInrBo6xeO0xHO5QkoZOq6bBZEjtfDWJQ7zENtGOHN5y+H//4vCOrPFZf9eGs/B4p5DbOOiAtjk1yMEfmjfc98zje9YyjiGWgpEy+yGpaZZeuUKt3GAVRM+7eOAg4/DgiXjNzqEVyB9nUUh7YMEB0Ho9gbH2yG4aKsHh2HwfPa6QhAvLwnyjd7uVtUoch54T7Btp8+Bd38oRPX87ffPcWLr1jNdE16espaDRSGo1KCnZkgNOAoJgIammErYrHd+eE+5xer8xpKFne4Jr7B/jAd2/lWZ+5hI//7DrWDA7hJEvP1QCxpIUfuyKfEGcCtPE9DZw3ekIrVfpUz5fKN9mRkkwDhFTZ9OZHL+WDZx1JM88wC0CGc1Ufzuq5E/VcEjG8RZAMM4dK5P1P3Z93P20psWOUFmlHh/jNxQDdzyGxxAG5Reb3pYyA+jSb2dR7b4cQ1g93WLVpkMxlVQla1UtrFIYQFQ5dWLB4Tg/RrJq28jBjhqmBg8wZv7x5Jc/9wpV84AfLWbNxEF9kuJ4GYq1xxWIyOEkCkXprGrl39DQ8y9a3eNdPV3LWF6/mV7etxVepUu2swGuYdCK9oEQreOwhc5nVl9MxX/lSk0gL6XsWqig9WDvwxjOWcM4LjmJW02Ex4kaWxZNT5mShjv6L4Jzxt08/lL958uGYBgrfQcqtv0SUJkqbnh7PY/ebD1ANgauZqdQiOUm6S8dNbWNDJ5KJS5MNx/NriVAG5cB5Bd47xMZb1j0cGJkoWfB8+tcreP65V3HDvR1mNdoE3yDTkjyWmOz8FD6tBEUkVbuIc7RdSZE55riMa5ev47lfu4ZP/24tYh0yC3gicZIXDZXkMjhur7m8+tiFbIwedWFkqqJBek/pYUM5wKvPPIB/es7R9OQhBXc2p3GC7Xx6UmlCJOcDzzyAdz31EIbaHq32fXrN5KPMJbKhnXHWMQs4eb85BLMqg7RmpjLOGV6zLTa1IkNqafXcjdmMOe8EQIy9ZqdxnSb2sKeBdMWgY56PnH877/re7URpUBRGkCqFhgwj2yUBF9lsSZsl32dOjgHR6f9v773jJKvK/P/3c869t6o6TA7MwMAMQxzSkDEgLCLiCqigIigqJlBRTGvadXfd7xrX3VVXBAP+UHTXhIqg4qKuAUwIikjOIBkmdaqqe895fn+cW9093TUzPTM902HOm9ele6pvVd26955PPec8Cal2QqPO+y77PR+++iHUG1TD+uFYUCzWg9GCd568P2cf0M1Af4O+vKDpPE3n6Wk0wfXzrmN34yPPX0aWWbwrg8sJwf9hlj22xuQtwR9O4sFqnQLhA8cv4wN/uwfGDdDbdORecaoM5AU99V5O2bObDz9/OTYTjPNjtpojk5MokpvJuqZHXSj7KIROiSNHnoQuNizsCmtWRscqCVuH4vCqeO/wQCHKJ39+Fx//3zvIrKdCcKCkKsGZI1quqbqwZqohsBy1wfr1IRcZseGboCyZhmpYqxSABFWLqMfiKEyGqim/FByiBcakmDTlQ1c/yEW/ehSblGubZeYP6sC5UdmdlCE1YhMQWFhLuOCVh3LRmUdw0j6zWb6wk70X1nj5QfP4xmuO4OMvOIDuLAvLINYGDzQy+C0mBIfPWBhpcYqAsdUQNG4S/uGEZVz6msM4a+U8ls7tZqcZnRy7bAafOu0AvvTqI9hldldYozQMtsqNTE3i1dtM6kUBhaKGICIbkD8RQ1bOKIMndGyDc2vwahDNUQUrnqtuW8snfngbPu1EbYaqxyB4aVm3wVIzHtCUBhmpKUAaeJoUeBrNOj0DA/TkQn8hNJyQY1FjcV7x1ME08SbB+ZSOPMeoQwmV2E25Jpd6j/U5H/zxLfzyjlUkEr5MvAvruuFLZwPnEkASRJVaqrzuyEV86/WH89u3Hcqv334kX3rV4Tx/xdwy+ylI4ajJfMupvaVIWFM1raNUOGnFAi5+1cFce/5Kfv+ulVxx3pG8+VnLmNuZAIKVkH66le8cmWCiSG4m3rlS8jbdN2V7D40gJh5rhUdWN/iny29irenCqWIpW6KOOGRBcdYCA1Sok2tCo+4xVNl59gyetmwOL1m5E2ceOJ/n7zOTgxbXmFlJaDQdXg2GGmkeWk8005Rm4tARnvwQ7y2QpazOc979/ft5Yl0dwWMlxEGqkTL1ccMED3JoASseOmxGzaSIenyZI902dnGckTK10WkQ+NkdFWZnlnRYF8tWmqRqOObI1CWK5GYy1H60HKzbYVCOlWAZVlDgwmv+yp8frdMhjg5pYHyOw+JGLY2W/WF8hTyHmjWcdfQyvvvavfnpuQfw4zcdwdfPPoRLX30Ql73hCH70psP54Rv35z9fvC/7Leykr5nTzCpQNKkVA+DT0beVF5qmBr6fbpPyu4fX8IXfPFpah2FpIATlb/pcighiQIziFJyG31te9u2FiGBVsV5xPuSQe5OWefHhPtGg2tv1uCLjTxTJzWTkWlX7SLuJwVNgvHDbEw0uueEBqibE6KlavKmhaqiOstYE1ZxcG+y58xy+9bqVfP605Ry792J2ntNFYsJndr6AosnsimHlohmc84zd+NGbD+GfTpgPzV4aaTfiQx776DPiqcgASAdqDJ0Il/7uQe5b3R/CkySEeY8yczeAqAFVrBSI5OHfE3EriwlWs4TiH4aQaTXozY7iOC2YgDtratNahTQa1qc2NBC01U2RYCBtjxNt1IJRvvenh3hkrWKtx0soEkEZCB4WCxTRMoSJJs3CsP/sDr7xyv151u7deG+CE2UwBQ+sMZgkRcWgZf/qObWU9z/vID5x6j5UmnU8hjwxowLnW9onCOoLksRy/5omP771ScDgfSgGMsrI3RACofxOhphsg9dgm1Meh5EUI7Z0CrW24b9FpjLbY+xOWybbABBjWFtvctWND2E1rEEKoSRYWEVTfBnPV4jDqOKlipGcD7xwX/Ze0IF3OQYJ64iDH1DKW2VIBrT8IhDgtc/Yg5c/YwkDuSP1jTJLZjhC4Q2CQ8SUU2XPlX96kGbuQriN+tbi5ZhYX44mjtHHMRmOKjKeRJGcVnhuf7yHPz6W05ENj6IewhCC270F66G/IRy/Yi4n7jUHXAM1KT4kIo58aluc5tgi553H7MIuO82iaBYhjGgEw409VagkhusezfnrujxIb5mxE4lMNqJITjN+fW8P/cXQssAojKDqQndHBCvwwv3mUUmTkHOuEgpbtH/2IGEaLlj15JKwbG6NU/efy4CmbQ3C9ZwXGhpprept8ocH1gYLV9qE7UQik4AoktOMWx9vkPkBHKZsULa+YhUoYhy2CFXFZ3cYnrn7ItCC3GShHINrV0i4PY4M4+soygv3WUAtc6EAxQh0eM+Z0hOtPueWR/sAwYsNJmYkMsmIIjld0ND/5eG1OWps8LLqaHvSKohPwChNb9hlZspOM1IQSyoh9xpryzDwTWNQvE0Q71i2UzdLZ1XItUDx+JD7UhYVa62KDq1nWrXcv6oBKA6DylDV8EhksjC2kRCZ/IjQKDxr++tgLDrKhhxCEVRCm6wFMztJy3lu2H/DHvt2iHrEpCCGmVXL8gWzcT6IbCsJUMIsf5STI08zHq971DusV1TTEa8eiUw8USSnEYVXBho5Iqbs0td++lqGGYJ3VNOtK3CBMYiG7JNaath7boVG3dHT8PQ0dNjm1tt6Gw4/MEBvf526UxJT4GOOc2QSEu/KaYQVyGwIpxEJmUFt8aUjRSz9jXwTLppNIYiCEYtqwd/uN4+3H7cL5z9rZ95+zC68/dj229uO3YXzjl3Ci1bORYzBe7Nde3hHImMliuR0QZUsMXTVshBzOKpwbEBgsGCtGsvja3up5+XkvN0TNoFK8JaD4BWO3nMu/3Ha/vz7qfvxiRet4BMvbG37jdr+6yUH8LZn7UoqHm8tMgHV2yORTRFFctogZNawqDvDudCwqm2JLg0VjNRDTTx3rWtw11MDADh1qCvIfSimOxYMYG0SwoFMgsGWlb03vQXJTrAmJQFEhtohRCKThTajKDIVCRNVYe+FNRyhVw2j8rQpUxFBSSBRBvoKrvzjAwB4ErwkoB4jWz71bcVQbmqLRKYCUSSnCS3JOXzpDKqpCdVxtCzpNnw/AdWwjqgipJJw6R9XcdsTPaSmCepJpIi9oiORkjgSphkH7DyD3WcpuTelco6wCDUEbluaOE3IKnD/ascHr7ydNc0Ea0N5r7IuTySywxNFchrhVZnXkXDc/jtTOA8SOgsiwalCWQdTRbAUoAleCmbaJt+9aS1v++ZNPNXTRCTFDAaihxYLg1Kr4ffWXyOR6U4UyWlCa43PorzssCXMrTmcKx0w3gEmpP4ZwWpBblIMOeItziZUEs/X/vAgJ3/uD1xxy2ODMug0VBFS78KG4nGo5qBFlMrItCeK5DTCqJJLwpG7dHDagbvSlzssjkSUVJuILyh0dBkJj0NE6cw6uf6xXl71lRt4/Vdv5roH12BFMeIxqsENJJ7EhUK3nmS79O6JRCaSKJLTCI+ANhE87/ybpew5O2GACr0uQY0lUYcZuUYpkHgh8wkOSyc1KFIuveFhTv7cjbz+67fx2wf6cOJIjMF5g5cMJxahgehoD3okMp2IIjmNUIGEBOcTli9I+eeT9qdWrMUmKQWha19oLzD8SdA0Kf2JxdoBRBoUJqdSgYFGk0t/cy/Pv+B3vPq/7+Qnd62l8AUmtFekwKIjXy8SmWZEkZxGCEDZlsGr59RD5vPWE/ZB6utQX5SWpgctq/NI6FCYMUDFN5AiJS9bIiTegDFk1Rq5Wr79hwd4ycV/4PQv38QVNz+Fc5BJKGHRqvQTvELr+9PjimVkqhNFchphyk6CFoOQkonyvucs5+3HL6fpE5qEKjtqslB73Od4W6Gh1VCqzHiMOkRbAioYwppktZLhnHD1TY/ziktu4qQv/Ilv/Olh1gz4EItZ5DiB3Ofg+vB4nCtQ3yz76kQiU5MoktOQlqdbvVI18L6T9uVjJy+j0+T0NSF1DbxUEbUkRUHSpu5kO6xRTCXDG/jN7Q/xyq/cxomfv57PXPsgT9RDZfHUgreVYK3aBG9SLEVZTTISmXpEkZymiMhgdZ2qc5x/zBK+9dqVHLWkkzW5xeS9qLXkCAnNYTk7G0Z9QcUEwUurNbpswU33r+adl93MMf/1az5y9b3c+2ROQoIRS+JD/5vcJ2N6/UhkMhJFcpojJliJhReO2XM+3znnID560lLmdHZQbzhUhKatjnxae6SGdwniQ2vaurWkSUZ3Yrj/qQYf+NEdPOeCX/PBK2/lzqf6gy5aW5ZAi5ZkZGoSRXJaE1IMxVoSAe9hfmeFdx2/lB+fdwTnP3MXZqfQqDfInQMjOBJQwZiQvijek6gPPca1HzUFWIv1QtUJanMaAhUxdCcJj/V5PvyTBzjx03/kIz95iMf7mliroRq6FuCbpVxG0YxMDaJITmuC60UQxFiMMSgWr4Y952d87LQ9+d6bj+DvjtuNJd1VegcEcX1Y06DwDvUFLqmRk+AweKmCmtKxozgD4g0WE8qvCVgxVCqWx/t6+Ocf3MIpF/yWy256BOdzHFBgaDraNguLRCYjUSR3MEQBb2iSIHgOWdTBv56yL1eddxj/dvISls+bQU+RUldDojmp76MpCZac1NfHkGGj1PwA2A6SShc3P9Lg1V++nb/77m309OdYk5BRkMdbLzJFiHfqDobiQHJSFcSlFF5pqGe3uTXe9uw9+Nl5h/O5F+7BUYtm0nAV+prQ4XtwCk2TjcFLLfSbblJyUq2TVCsYcfzXNU/wmq/dxhPr+hALNlqSkSlCFMkdDgEx+LJQhcWRUeC9o/DKzM6Es5+5G1ecu5KLzzqAp++xgNwJhQu54WNBBHKVsrp5DtbQnShX3LqaN/z3X3io12E3ZZBGIpOEKJI7GCIGIVQDUpuAZIhkICnWtMLHYUbNcsbB8/nhOfvzldccxjF7zUbVMdD0eE1Kn5ALdqU0USw5CaKO1OVkQCIJ4i14g4owI3P84NaneNfltzNQKFDg1ZGjoaqQH5sIRyLbkyiSOyAiYAlbK/XaCsHFIwYh9JzNFSRJeOH+s7n8NQdwxRsO5cxD5lJJC/qbOa6oYMWDr2FpkNIAk+EMOFG8BAePiIJ4vLHUsirf/eNf+eZ1jwAJhfdYVUQthYnmZWTyEUUyskGsVxI1qDOITXnWnnP5wisO4YdvOJyzDl1IkjnW5BWsUZpiydTg1aMjGpCJKlYMDeew4vBJxkd/ej/3r+rHWoshNAYr7dJIZFIRRTLSFieWwgqWHCmbhzW9R9Rz+G6dXHzWSi579UE8b2mVnnoT61L6ElAMZlTHCEPuBWOUBKXmGtyxps43r38IiwnVhEyDNE63I5OQKJKRtlhVMudRoJAgcJXSI104T9MV/M1e8/if1x7CecftTuH7SIuQ3ePb9M+2oqTkNLQDK1WqvuCrNzzO4wNNLB6hhpFYmzIy+YgiGWmLCGANIimWBEjAWsRYrM3ITAYKXR2Gjz1vOW89dhl9Dqy6sKY5DFVFcQgpYgq8QCVNuPOJXn53Xz+CG8wOikQmG1EkIxtABotSiLR+M5jWo60/+4I0tbz7+H141vKZ5E0fYjGHv1L5BFWDkIdoTRGahXL9XY+BJGW40OjWEpHIRBNFMrJ1iNJwMLumvO3oXfGZDcV3N8iQtSg24caH1gQvukjIa4xEJhlRJKcBqsE7vLnbuCBVEqOoCsfuMYcVi7rI3foz5/bvpSQC961zrO6rY0Z4xCORyUK8M6cBQlk/cjO38cB4BTxeHV3VlOOXzgxhQMN0sf17eVIKeuqe3npj5B8jkUlDFMkpiqoLbRG8Z01fL/9w5V285bLbOP+yWzj/slt423du4W2XDW1vv+xW3nHZrbz1slt59+V38ciatXgFR9mbewtRBFRDpSEx7LlTB4LSqiDZXiBbmT+GZl5QL9rvE4lMBqJITmHEKWKENU3hkmvv5rO/uIeLfnkvF/3yXi785X1c+Mt7+ew19/HZa+7jgmvu5TPX3MuFv7qPC39yM/esyhFxGC22LoRbguAhBlDmdlSx1gRn9Qan2kFBPULhCooyPnIDe0YiE0oUySmKYDBGgi1nBFPtpFqrUalWqVSrVMuftcr6W2etA1ft4v5VzTBNL0Is5Bajup4zxrtivVqRGxJJBdQKRsCW6YgbMDojkQkliuQUZVCGVKmI0il1jMsx6svNYdWTeLfeZl0D3xzgjif7AYvarQy7EQF1iPeA8PhAgfOE/ogbUz0NlnAlS6mmCVBs3CkeiUwQUSSnKIJHEbwabFKhq9qB17BGGArjhp9u+KZCAaitcN19q6nnOQgjetBsrlK1iliAw3Prwz14bLAty9CettakhJzuziyllmWDj0Uik40oklMUAVQ8XmFmJiydU6NQQQWM6UBooJIMRYJLuNoihlpque6e1dz0WD+iQiGhnYJXD77Aq+La6Fq70CH1grhQ2GJtPef3D6zCiGAkLAWwQeeNoM6zoCuhqyahBW2b94xEJpooklOV0kKzomSp5YBdOsEX1Fwdp/14n6HSpkuhhoyYp5zwpV8/iBNBvA9FJjCopIh32KEJ/SDtQofUOHJyjM34491PcvNDTbIkWW+fdoh6BkzKsnkddCcJ6oPjJxKZbESRnKKoBtNQQtManrn7LKqVKo4KhSgiGdY3Rz4NK6BYalb5xvWP8v2/PEVqE1JtYiQPYUXGwBjbK1jvSGxGf97gP695hIaGcmibQgyIzzl4504EcNIq9xuJTC6iSE5RREK3GVVQNRy+2zxWLEhYR0KqBucbowpNQBBIfEENoSiE919+E3/4ay+YFHFNBMWFOfvIp67H4NTbJBgx/OcvH+b/bn+MLNS92CTOC3OqwjN2nwFo2clxLM+MRLYvGx8J0wSlVBN0KK948MfQwAy/t7ZtiOqw928d3/C/l/9TJfw3msG1QWMoFLor8MojdgbXT+Y8pFBQOkSG4VCsdTRJsUa5d20/Z1/8O67486N4qWIlhOUMpS96VLUMOA+bR9HSKdPnDJ/8ya38+4/vhKRGoskw1/twwnNVg7jnhefgXeay+8IOHIqobyvqW0+7sxeJjJ1tcVdOKoLeKHiH9x6nHu8dXj3OFahTvC/KVDqH855cQybLWKecY0VV8d6jmg9lzGiBugKniroCzfvwGo7LqQ+Pt/FoiAiJCIKQSJh+v/TgJRy+80zWYVAFS7He/hDOhWqKSIEaqJkKd/XCKy69kTd++zauvXsNeD8sfRFEfOmICa9hnMcp/OzOBznry7/nn75/Bw0sGDc8OGkYggAJijOGRBwijpcfsYjuNEExiBbjrmcioN7j1QJD8aCqwRs/uN+w8yPluRz6m9sRhklkI0z7qy+U4mMSvFjUWJyX4PiwCViDMQmICal15ZBWyhEzLgRPr3cONQZvLE4cTpuAw1iwpkCsUKQZHoM3oc+MdTrmizS3K+UDJ+5JKjnWZxia6wV2iwhmxDRaETIpMMZz6W/u58VfvIHnXng97/neHXz+mge5/JbVXH37Gv73lsf44Z8e40vXPMg7r7iL4z79G0770m1cectqfG0WIkJGsJBHOncEj5qUhqak2qDRcByydC4nHbAAnEOCWYob5x43ntAZMryqJ/w2lvfQwS/IcdbtyBRkrONvCqNgLR6P1SaJb5DYgsIX3PdYLz+/7WGuvfMhHlrdh8NipBVpOGxqPh6oIiY0BBQ1JN6QaYIh44meguvu6eW3d6/mkSeaqFeMNvHWkFs3qj7jSIasxILn7D+fD52wjEazQd3MCCmDpfXULoQHPCIZqjNI0w76C+Wae5/i3395H+d9+2Ze9oXf86LP/Z7TvnQDp37lJl773dv4j1/dxQ0P9iDNlMxaUnFUKMB5nCSjbElFkKKOGEW1RpII//jc5cyuWQrJQiVzDVP48aQliaFQerAJ2zH8nGj5nKzV83ZwZWScDy4yZZj+IjkYYG0QX4Cx/PnxnHO+ej1P+/TvOOmL93PCRbfyzE9dxwe+cyNP9NUx4mli8ONWvktRQn6zUYfBgTE8ngsf/PFtPONTv+NZX/gzx114PU+74Dped+mfuOWRflIaJF5Q3XRWjIgEy8k73nLcXpx79GKKvrX4kX1jRo11AfGo9JHQJEWZYat0JynVSkKSpUhWxdkKWarMTAxzTBdVSSjSAVLbBJeHWpACxoYvhJGoWJLC0d/o5X3H781z9ppNjgkl0lTwkrQNO9p6Wipn6avneB9C7Ufssd5yhBWoZq0wppF7R3Y0xksFJi2KIKUDgqTC7x7s49Vf/C1f+1MvRaMgtWtIEs+qvpx//9UTnPW1e3h4XU7F95fPD2M+DPs2cYcboRXSEmrkeILBFKaW9/c1OfeS3/Lxqx7k0VX9pL4gsykDPXX+56a1nHbxn7n2nhxjzdhr0aoCCWKVj71gBe987nJUlaLIQUPr1tBHNjT2CssLBu9AJKOQlKa1DEiBGsFgSdSQeEdNHdYDGJwUYMH6BOcTnKnSlAoeg/WNsI6prhRuA97jVFjnLec9cznnHb8E8R6rHlM0yqpBZZbOOCJa9tsRBZS1/WHtecjGHNwTNCzNeFWsNXRWSpE05awissMy7UUyrCsKVhzrBjwfuvImbnzc05GBWhv6rmCwGDqrTX52+8OcfclfuLcPDI7COdAGzm2OlRPWwqBVYSeEt3ifk9iER9flvOWSP3LlrX0kFYNJ01JQPWostarhztW9/OPlN7O6Xwdbrm4KEYs1QfiyxPChk/bmk6etYHZXxkDT4DVM971WQok0XJAnY0L+NUWZ9w14F3zh4lEJcYxqJHxRiOJEURFEJTxPPGDx3gwKkHeh+q4Xi3c5bztmMR95wV50GsVJaUWmFRIxJEJ5zsYPAXKE8IGUB9fm5TKzDqZuhv3KdUv1eJQkMcyutUTUIYPCGtkRGd+7chIiqjgBIwk3PdTHT+9Zx5xstOAk4imo0Z04fn5vH2df8hfuXzVAaktvqNEgdmNy5gTBa5IES9QrXsEmFZ7o6ef1l97IVXf30llpM/QkWF4zMvj9A2u59t61oxwhY0MQhdc+bRFXvP4wXnDgQpouocgLDP1YHFaDoHl8aSAPvc/oM7QBjEXVYbQJeHKTBEcMCWINzYEeZtYsn3jpwXzi+buSZQ5XJMHC3MaoCAmCUWEgV+56cu16jisps5aUII4Og5qEztQwq5aWL1IudWzJJYhMC7b9nTrBqChWAZSbH15Lf9GBl6HQmBZOFNGEwnTQnfTy2/vX8rr/vpW/ru7H2SyEqJCXToBNoBq6SdvSW64F1hie6G1w9lf+zNV391Kr2A0Uuw2FK/BKLyk3PNxbStamR+koMRVBPazcZSaXnrUX//Oq3Xna0nlokTDQgNwkIGDwyDDPsjFmlBd8QzjvsNaiqhijWAOFUfqaDZSM0w7enR+ds5I3HrUAZyoMeMUYSHw+8qXGHV/WtESVJ/pzbn+sN9S6HEYrzMl7RcSgHuZ1pizsqpQ7mLDWG9lhGdtImMIow6rQqEO0iUppJQxDMVjfi/iEetJJLS249o4nOPNrd/Do6j6MSUHTsVlYEhxF3vvgKU8sD/Q0ee2Xb+DHd6wjywRxjbZC5I2AK/CmRkoddaWgb+E4dTgK70lTyykH7cz3zlnJl1+9klP2n08q0NuEgdyHZYXybdR7vB/b8kLFCN4pOSkDDUfe30MnjpcdvIjLzt6Xr756P/ZfPKNc1zV0qOAkXJdtjUFC2qYx3PPkAI+sybEyZEH6wXhQwAgGD80Bls7vZlZHNix8KkzXIzsmo0fpNCMMlPD70vndZInHi0E1DArRMNV0icVKSsIAmc9xVLEdVa6/+0nOuvRWHlrbAAnrg15s6fluP3BUFWeqBJ0RHu1p8tav3chVd/bSVTWId4hN8W08Mlo6MNQIxjfZc6fO8D5trc71Gblu6QE1KQk+LDtg6U4TXnjAfP7nNQfxi7cczAdPWMKzdp9NpxV6+3N6cqHuFE8SPqO6UHcSIVEHZcWg3AsDuWfdgGOgUTAjUY5eOoP3nXQQP3rrsXzplSs5fu85KFAQzpUYQFIS8ajZdBGMrUZDsD7Ar2+7n0bRqk60Pt6DKb3zaMFe87tLIaV0bo1+TmTHYdqLZMsIUC8cvHQWhy2s0t8EkSZOMzxJmBrnjkKgEINiMHiMKpWK4zd3r+KVX/kLD/fVyUyokKN4REKa3UixNAKpq2OzKk/0DvC6r/6Zq+9YRUcl+EmHBuBo4Uu1QJMM6mvYY/HOHLP7zDFbXSOn2wZIETAJIimWUErNayh0ccDibv7+xL349usP5sdvOYoLTj+AM1fOZp+FNWaaHOMLVAzqFRGLUSXXhGpiWD6rwvNWzOcdz17CV197CD87/3C+d+6RfOA5Szl4cbXMAjIYhITSqRTm9iAJrTDEbYknRBL01gt+dGdviNP0Ic0yWJDlLEMMthVHmWQcsWQGtKbiSNnJcTsccGRSMv1FUjzGBMfJ/I6Efz15H+Z21nBOyKiTY1Gptg01NjgavsrMqueau9fx2i//hbvWCZk2SQjTR9fGGkTBGM8jfQVv+e8b+OHtfZgRa2Ebwosnb/ZRqc7mwycuZvGMFK+trJGtR2hZWAAh9bEzSzho527OeeZivvLKA7n6rU/nm+cezh4LOunPlcx4vMup2xoUdT5w4lJ+dv6RfO91B/GxU/bkpQcuYO+FXdQqoXpQyPceLdrbG6seyLju3qe48aE6STa61FtYGCGkh6phbnc3hyzpWG+fyI7N2EbuFCeXYME4B8fus5DPnr4nXUlGvzN0ygCutcDfloQBrdKd1PnVPav55I9vQStdOILXM2lTFsxhydKMz/3kFn5wZz+1pEDs6GIT7Wg4qGY1PvniFZxy0CJyD1Z8Gcq09QRLFsQYtAycNoDziveC84b5FXj60pks6K6FjoreY0VQ7ykQ9lk0m3ldKU2nNLV0QLkCcTnBeDOjxGhCEMA5LvnDo/i8EWYAI4+r/LLwRslzx8E7dbB4xnZYCohMGaa/SKpBvGC8R8TRdJ5T9+vks6/cj+4sYcApRvrbO3NUyKQfQ0qDjMw4nqwLRnOsKKrty3sZdXgVVhcpIkJmLFZHi+lICufpNIbPn7qMlx+6AK/lelg7a3ULkWHTfbCoGrx3QAGGsIQAoI6mU6rGUZDiDdR8L1agUPB4PELiCxCPtwnOZhSTqSqksfzhgR5+cPuTJEkVq6NbSXiC+DtrEfWcuGI+lTQbtV9kx2Xai6RKaYmZsqKNsXhqvGjFAi46c386swqapzRMCJcJa5HBmaNJAt5gZIDUKIWphu5+6kKw9Qa8tCphTTPRAivg2uwDhGRFEaz3NNSRpimfeckKXnL40tIT7xFjx82KHI5IKPIhAsamiAkB7UYoK+JarFicV4okIaGgkXSg3pAVTYx6rBWwIRg/QUnwJKX/Y3ujrR7iZYUncDSc49O/eIievjpqFC/JqGNr5eo7Z5nbVeG4FQtKa3j01DyyYzLtRTJYTracAiakZSks5zwvPGA+F5+xP9WOFFtvIklOLjWcpBgKpChQExw5fjDvGpwk5bStnUQS5E8MIRQoDMR2donFkLuUQoWKZHz2tD04/bBFZYCzQUzCtpz4tY5dBm8EA1hEwWFoNPpp5DkDzX56Bhx9haU+0GBAqyAJxitSeoBDvqOdGIUE0ALRMJ0O+eqe/735Mb5302NU0wQRV1b2Wf9KKIIVT7Pe4Li957HnvLSMC4hEAtNeJNthRLEUOO95/gHz+eJL96GzM0NzQ+p7yLF4qYwaUOOOOqzvR5IKF562F2cctmRwmjeRVowS2sSefvhi3nv8Ut597BLe+Zy9eM8xO/P+5y1l9wWhcZcpM3YmBSKod2U7CcuDqz3/9KN7aQikBgrJSqtxfbxYmmLozIQzD5lLIpsuJhLZsdghRVJFUUmCGLickw9cyIWnr6CaZDRdSocMhLyXbSxUAwokFT532p6cccQscm2GOMlt/L6bRMB45dxnLOXDpxzIx05ewUeev5wPnbQn/++U/dlnfg3weHFt12QngqIMUVJjKHzBB39wGzc+VqfL5mjRQEQI84D1z63F058bjtptJsfsMYdCCS0uIpGSHVIkUSUXV1aqUYrC8aID5nPRK/elu5JQLzyiDfw2HCy581St5bMv2YPTD19IU6sYzVvFDycU0VBB3PkmTnMKbeJohorphaNwGU6TUCZigvW8RYIi1pCL8J+/uI+v3fAwHTbEdxa2C+sLBDdK0lWVqijnPHMJtayKOLftZxCRKcUOKZJGlEQSjLUgGTYJVuWLVszngpfvQ80avKYUIhh1hBqDoQjC6AnbWAmCYp1SaEGSplx06j6cedgSUCUVizGdk+OCiITKPCQkJiUhw1ANAeWJktgQjJ6InZBsFA9oGS3gVYOTyzkQy1evuYd/+eH9JDYlsYLTUEI5rEcaVA2WZsgoQmg0lWP2msvf7rsTTsFY1zbIP7LjMinG5PYnIeSCBOeKlIOtUOHU/RZxwRkHkVolyXvxSKizqCkGh2zhor5BKDRjAMikyudetAenH7EoBHav11hg+4vOBjHh/BAc4WUGShKEUYKYTgSiITnAaR0vPlQUspbP/+YRzv/Bw9iiIDEaMoVCyH/psQ+58c4nGGlgCk9nZnjb8XtSzdxgF5xY0CIynB1UJEdj1JAUdXJ1vHjlPD5/+gFUKjPxRUHFN8AkqKZbLGKqii36SJOMz7x4OS87Ygm+rFA24WuQUwyPhBhVDbnlhSqf/Mk9vPO7t2DzAYpKFtJLR97dqggOYy05hrrznHXUzhy/vDMU9CiLBUc7MjKckbfRDosT8EmVxBu0UF588EI+derupFk3uVpSP4AYMFsSZKxKA0WzGp87dS/OPHwehe8P9mUUyDGjZTqloYmYkHW/ep3jrd+5jfdfdU8I/xHowKPetUrpDiIIqXc0fQPfMOy7SxfvPX43BChstVxKSeOgiKxHvB9KpLRIVAoQofCeMw5byGdPX04iSu4V9TluC6pnN71SNYYLT1vOy45YQKHV0EXBbNnUfUdGRBFJsGL4vzuf4qQv/pFLrn2IVCDBIbZCoxAyG6r7DEeBQg3iq8yuNPnYKfuysCuhUCXxTVLnKTSBNqmmkR2XzR/x0xQrQmIsxljEWBJjUU04/eA5XHjmwdSM4NSQhHBrjGoIXi4Hnzc2VLbWVgtYi8XTdNBphc+ctnfppCH0yzYdW+X0KFTJcRQ4VMGrKwtLDHVFnPxbyJQZ2oITRksXmfeKc2WTiWEFM25/vI93XHYTp11yE398ZIBaCpiykZh3mETxziB4mlYo1CISCm+IGAoteM9z9+KEvWZTkGLFYCRBjGAtyDaMaohMPaJIthBTngwzWHPQITitcPrBs/j0GftTMUKjyBkwNZqmEoqyiiHVHFvUQ7ELm9BUg/M5BUKWVPj0aftw5uFLKBMRh7/psN83D+tdWeUmOJ3cMMGeKluQwhBpGRIJFVd231F1uJAdiVVP7hrc8vAq3nP5LTzvM7/l09c8gs8Nc3xfqDRvPI6kLF8XKpY4Y6k2LFWpUxSQYOlpFrzhqEWc86xlOPVYdaUjasiJtzXXJTL9iCK5ESw51jkaanjpQYv44ssPYEZHitZXkbj+YHloTkM68KYaEsVdjhHFF1AV+OyLl3LGEUtQX5RFJcYJkyBesArGCKkxGNEptVnxGPEYcVhREjFYyRAN0QeaO+58ZC1fvuFxXv6VWznuv/7If/zicR7rN3RWUxpJwUClCnSibrSwWU3A9FPXChUsqwvPi1bO5V+etyeZFYTmVlnzkR0DUR2voasMNHJecc67+cvt91LJZIu/kUUFlRDXVuQFy5ftwlcv+jgzu7uAMC3bHg6PQj3GC6oNpJyK/+r+1fzr927h2gfqNFXAGGo0y+rbCd41SQUO3G0u/+/5y/mbPbpwPhRWaNeuYUvJywK9iPJkv2Ntvy8LAE8hWmmCCk2n9DdyHu2v8+BT/dz8aC9/eWyAex5by6O9oZ1FTTyZegrj8UYQnyLqSaSBl/Wbi4Uz4WkiVLGsK/o5Zc85fOYVB7GwqwN1BWpCIeDtcS9tGUozz3nVm9/PDX++lUplbOX2NoyE1ywKdl+yE9+4+FN0d8bamZsiiuRGcC44alKVEI+nhtQKfc2Cq297kituepwbH1rHUwM5YlJmprByUQfP2X8xJx84l+40pXAeoUBNMs55wU0e6034wrX3cfmNj/DX1c2yx/TI/SYrGlq4lvUnVaGZK81CKKQJhMZcFZuQGhD1eO/QJCNXQ0pBQmhJEW7hUIV88LURVB1CQk8952UHzuFTZ+zHvM4KDRUy71FJEcmRNmXyJgdRJCcDUSQ3hpa9pQeH3frvrepZ1/DkRcjKScum9ok1gMPr0Prm1qClkwgD3gtGlEfWNjjza7fwy7vW0SlAUi/bn46ftbo9aJ3X1npgOF9B8MKdWQoeYMpOkoqE81GWqhMMiWtQTzsQ58kYQE1Kwymu6Tj7abvx0RfsRXdN24T4DB7BJCSK5GRgao2o7c3gQv7QMBoSyCCWM6sJ87oqzOuuMrMjI7HBw63j3HJBy66PIkKO5R+uuIdr7nyUmUmDzDrUVsolAZlSm239Xmb1tBw5g9YhtD79YEqoDFqNrevj6U9rVFwDaxo0pUp/U6ka4QMv2JdPvngPZlYF8b5NSeDxukqR6UoUyS1ESkunnSEuZcHW8bJ2FQmB0uVr/+Wvq7ni1ifJshSxCU1JSLSdAOw4VFxBYR3Gp9TrTfaa38WlZx3I3x+3hCTJyBWULc+Yiuy4RJHcCsZTCDeGlIWCW22g73ikl756PzUt6PcZGEX8ZJ42bnucePK6oame1xy5C1eecwB/u/98ci9IPoAhVIyPRDaXeNdMAVQ9XlproUqvgyYV1FRIjJD5JoUJVW2mPq0e462tnFa31mVHIkKj8Lim45Bdu7n0rAO56Iy92XVOJ4UPWTgkFVQktOWIRDaTKJJTAW9C+4Gy1uSiGQmZFHg1qA4ABpF8SrUd0FbJs3IZwWn4HTGoEVQsvqy5FEKbyk1D+TPnPY1cqQ80WbGgi387dW++/8bDedEBc1BJcV5JjITePWJIxCDjGIIV2XGId80UQG3rQllUCw7ddT577NRBkRekRY0BC5J3YLxFVKbEZlSwKEYdFi3DfBScYBwY70JzMXWYMi7SiaXpHH1NSGyVY5Z18bkz9uOqN63kTUcvY04VUC1ztlvCGolsHVEkpwRlwy0fLKuFXYZ/PG5PfFpQUNBROMSuQ43HC1NnU4NXG8rQYUHBiAMTUkLrXqmroafh6W96jGuy78IO/u7ZS7j8tSv49rmH88qjdmV+dw11HnUGL2kobkyIw4xEtpYYJzkFCJfI4TXBiEO8R7F87foH+MBP7uW+J+tYn6Gab3FR4Ilh/QyZ0GHSYHxOxcLMjgrzujNWLOzi0CXdPG3ZTPZf3E13NRT/RQtyLxg0ZNuYBFRDW+BBp9pUvk9inORkIIrkVMArzoTzYZ1SGMVLTqZVHlw9wE9veZKbnliD04lpp7CltNokKGCtpZIYZlUsO82osmR2lcUzqszqsMzpSknEhD294CQ8NxQYsXh1ZR54yL4RAY+dBhPuKJKTgSiSkcmPDvVk3LGuexTJyUBck5wGhAyf6bG1Q0tx3LEEMjJZiCI5DRie4TPVt3Zs6PFIZHsQRTISiUQ2QhTJKcqGpqbTnR31c0cmjiiSU5QddQq6o37uyMQRRTISiUQ2QhTJSCQS2QhRJCORSGQjRJGMRCKRjRBFMhKJRDZCFMlIJBLZCFEkI5FIZCNEkYxEIpGNEEUyEolENkIUyUgkEtkIUSQjkUhkI0SRjEQikY0QRTISiUQ2wqQUSTWtatSK4MI/Wn8b9jNucZvOW7jRFdThRVAEE4sgbXcmp0iiiDFlSX+PImRJCmWXDpHQ7ipucZvOGwg2zfDqMcaACD62yd3uTMpGYAoYEVQ93hUsXrSID77nLXR31fAehkoKjtOhRyKTgRG1Mg3Q3/R86BOf4da77iVL07Jl8JbaNgKxEdhmMylFUkTw3mOtoShyrDXY4TeQgAw2JI1EpgejR4uCBwc4Dff81hFFckuY1CIZfg9d9Mp/tXYIP8fpyCORScGI4SIIoi1zwIdxoVtTnT2K5JYwKUVyNDqOrxWJTCWCsI0PUSS3hC1d3NjORIGM7KiMl0BGtpQpIpKRSCQyMUSRjEQikY0QRTISiUQ2QhTJSCQS2QhRJCORSGQjRJGMRCKRjRBFMhKJRDZCFMlIiEOVsad5DmV8xPjVyPQnimQkpH36MjdYwi0RKjApSAhnVhRjQFDUO0LhrrKS13glbUUik5AokhGMUawUCB5Rj3rFiGDEgAe8YlRwTofKdkGZTxx+i0IZma5EkYzgVXBicUDulLxwDAzUaTTq5M0mRZHTzJs0mw0azYLe/gFyD14siGCM2YqiC5HI5GaKFLiIbEtUhHqjific+bNnsmKfPdh37z1ZOH8uXV3dJElCUeT099d59PEnuf2uu7n5tjt57ImnQCxZlmEHiyRrFMxJSyxwsSVEkdwBGaorI7giR13Oyv325uTnn8gzjzqUBXNnUKlURz5tkHojZ9W6tVz7m+v5/g9/wg1/vhlPQpqlYb2yVe9TtSxrN56VbCJbThTJLSGK5A6EalhrVKdImjDQ38fSnXfi3LPP5MTjnk5HZ2e5nyuv3ejrJ7BeBe1GvcGPf34tn73km9x974PUqhlarlu2rEof/D+RCSeK5JYQ1yR3MDyC2pS+nrU8++gj+MKnP8qpJz9nmECG2p0i7beWQLam1lmlwiknHseXPv1hnn/80xno7wWxOC8oNrxWtCIjU5gokjsA3vuhtUJVmo1+Tj/tZD72L+9jt10WoN4NVoIPtLcihzMomije5yxeMIsPfeBdvOqM03B5o2zgBs6HUKFIZKoSRXKaE5YFW4IG9Xo/J59wNO9/x7nM6EiDOJZi11p52dzYR2MSvPd0Viu89/xzeOkLnodvDIRYSinXJqM1GZmiRJGc1gRxNHjECPVGg0P235f3vv1cOitZqaAGFcEYGVxqHC6qmyKIoCCSoKokVnj7m8/mqMMPotkYQH0rrnJsrxeJTDaiSE5jFMXjMQbywtNRq3H+uWczb/as0vOchKBxpLwVWmuPI19p4wxbqgRVZnZ1cv6bX8esGR2ICVPuSGSqEkVyGiOELMPCJ+T1nBc+7ziOPOyAzZpKbw7Syv9Wx8oVe/GSF55Ms1EvHTiRyNQkiuS0RhFVnDfMndnFS15wItYM81RvE1pOH+XUU57LwrmzWc8nFIlMMaJITmMEsBiarsGhB+/LPnssw2/jqa8IKIL3Bct2WcSRhx5E0azHNcnIlGXcRDLEzXkEHz2ZkwRV8B4MBc96xlFYa5Cyys+2RkNNIY475pkhTlLiPTEp0LBWjYTrE8fqphm3ERNS0UBEN3vhP7KNEMGhdHXU2GOP3cJD22FQCIIxYR1y+bJdmTGrC+e2/ftGxkaIly0HbbTwN8m4iSQYEEH98Ni4yETjnGPWzBnstGBBsBq2wzeYamlHqmfO7JnMnzML54qRu0UmhHBtnHdxjI6RcRTJ8jupFMht5xiIbA7qlRndXXR3dYIq22NciAmOG0TpqNWYM2t2mPtHJg0yON2ObIrxE0n12CQhy7KwPjny75EJQREqaUJqzXabWakGcQawxpClMQRo0iCCqg/l7dJ05F8jbRgXkQySKCTWUKlW8N5tr/EY2QRGhLxwOO/B++1yXRQPZZaN90ruQgxQnN5NLBKuDKrQWclI02TkLpE2jItIBsNdEITurk6MiYNhMtHb30//QB2M3S6zXhGDL9+o3mywrqd35C6RicAQFsUUujpr2LgkNibGRSQBVIO1MHf2TIq8VY8wMtFYa1iztocnnloVvsi2RyhOWbcSDOt6enhy1WqsjVPuiUa9YgBXOGbNmhVH6BgZN5Fshd/tsnhxcNwMNouKTCii9PT0cf+DDwMMWnjbmtbU+sGHHmXVmrWYKJITjqoPkSfesfPiRa1HR+wVGcm4KVlroX7JLjuTJmbQsoxMLMYIuXP89nfXQ+nV3NaEELDw+29/dx157krLMjKRtFpqJIll1912HfnnyAYYJ5EcshyX7rwTMzpqOD9OLx3ZYkQBNVSyCr/5wx95/Kl1CKEYrtehupHj/YXmVbHiWbOun1/+7kZSG8PCJgMiglOo1irsunhB69ERe0VGMk5KNpTHMX/eLBYtmI8rPZqRiUPLLChjLA88+DBXXf1/IBbK9FGR1rR4fAdKSEO0/Pya33DnPfeRpJWRu0QmCO89c2fPYtHCeTHaYIyMk0iGxXpFmTljBitW7I26fOQeke1MkD4FhTSr8PVvf5dHn1xTWnSKqhv3grgti3HV2h6+8vVv4xUw6XbJ9IlsHEUo8gZ7L9+NnebPiwH+Y2T8RLIcaMYIB6/cH9UokhON11abQsUkCXfd91e++JVv4jyDBQ5U/bhp5JBlInzlW1dw0+33UM1SvHdxQE4CFFDvOGzl/lhjhrytkY0yfmdpMF/bc9jBK5k9a9Z286RGNkApfsYIXoWso4uvf+dyvnfVzxBCy1fWE7etR0T46S+v5eKvfoOk0gHqScz2KKsR2RSq0N3VyZGHHV4+EpfExsL4iKSCqCfUnFF23XkBh+y3F/XcoyQYSi9B/ObargRvZhBBQ9lzWxI+/snP8cvfXo+YpJx2l03AVEOUQsurM4IyXwP1irZSN1TLbowhvOS6P93Ev/zbhRS5JzWCikU1ZmBNBhq5Y7+9dmePpYvK6x2vylgYH9USSi9BsCZTa3jus/8G44swtLxirNnmBV8jm8Zay9qeXt77Tx/mhz+9BhEbpl6AR1Ep7Ys2a4iqgtNWxVDFq6K4somY4X9/8Rve9Q8f4olVa0iTpK3QRrYPrUiC4RW5jDpOOO5oqtVKWSlt9DWOjGZ8RJJyuu1DShrA0486hD13W0yeN0CEonAhnTcysXhPpVJjVZ/jPf/8cT75uUtY29OHiGBEEC0QKfB+dGkzQTE4RBwioQuiSEJPf52LLvkf3vvPH+XxVf0kaTbyqZHtjPc+LLP4YOE751g8fzbPPubowX1cm2scGc34yZa0+i+DV8+CubM46cTjaDbqiDVBIKNlMfFIGDiJtahYLvrS13nDW97L96/6KWt6BxCTImIHi+a2puKqGpZURDBiELH09A1w1f/9mte/5b186nOX0HSQJKG1bGRiEQnFRUL0AjTznBOe/Sx23mkuUIBES3KsiI7THe28H8yq8OqxxvLwY0/yije+m0ceX0U2OPuKF2aiMWW5LDB4FerNHCueffdaxrOedihPO/xQlu++Kx2VjDRNMcbgvSfPCwYaOfc9+Fd+e931/OKa33PrHfeQOyWpZKUl6sb1uzeyZchgdIPgnWPmzJlccsHH2GvpIlQLPAlGFInXapOMm0huiC9963I++omLqVUzkCaqMYd3MqKq5HlOXhRUKxXmzZnFgnmzmTlzJpVKhUajwZqePp54cjVPPfUUjUYDm1jSJI0WySRE1INNKBTyvnWcf87ZvPl1Z5aOumhFbg7bTCTVhxi9vrzgvPP/nl/f8BcqtSqybd4uspVoGQQepmke7zyo4pxDtQwjQrHWYq2Ng2yyI4rz4Aplvz125eILPsqs7s7BpZB4/cbOtrO1jeC80pUlvO1Nr2bOzE6KIgrkZGW4QIoINrEkWUJaScmqKVk1o1LJSJIEY+IAm+wEMfR0VSzveMsbmNXdCYRrGwVy89hmIhnWvDzqYeUBK3jz61+Ba/THAPNJjPdDwcWt2EdjBGOGwkhUQ0gX0RqZ1BhJqPf18vpXv5RnHH4APjZi22K2mUjKoPdMUBynn3oSZ73sVJr1+mDf3+G17LbRrD+ymbSumzEGUYt6g3oDaoBghbTEMV6zyUbregj9vQOcesrzOevM01CKMjRvmw33ac02O2uCwRobkmzUkFnLO9/0ak464RgG+vvwg4vHZXhJOfjiwJs4Br/UWlajhI6Hg1tk0jBkhIQEKREDqhgj9A8McMwzDuHv33kutTRZL9EjsvlsM5EciarSUavwD393Hice9wzqfesonICYweSOllhGIpGNM1zvjAjOC4Wk9PT0cPQRB/CRf/47ZnZ2oN7BsDXnyOazzbzb7VB1iMCa3gYf/+RFfOfKqzFJSppYRAxFUWCtjd94kchmEQLHm3mD5z37mfzDO85l/txZeBfWlBVBtbVUMvK5kU2xXUUyOG0UI4ZGUfD/XfotLrj4azgN1mSaplEoI5HNQMv41kQ8Z5/xYt74+lfQUa2UIXitZs8Cse/UFrN9RbKcJpiyKjYYrr7mD/z7py/i7vv+SlqpYk3IAQhVZUy5FD3SyTO0nhmJTHeG1urDPS/lWPJeGajX2WPpLpz3+ldwygnHgjq8BzEWCd1jQ5Wu1liJpuRms11FcjjD1x8fefwJPn/pd/julT+mMTBAUqmWeVU+dPOWcHG9D8/Rsse3SFniq81rTlemqmd5qh739qYliK17OYib4j0Ym5ShWUozz+msZfztCcfyxle/jF0WLYRh53e6j4PtyYSJJOUFVR1Kwr/hptu45Gvf4qfXXsdAvUlHrTZYOUg1TNO9KlJ6xENO8ZAwDn5zTga28YGM9bJNtsGyqePe5se7jV9+rKw3Dxp2SlriaMTgvAMpTQIRimZBsyhIspSjjzyE15z5Io469MDyeeUYKfPsW2MqsvVMqEjSWqf0DiMeTEYzd9xw081cceVV/Pw31/HYql5UUmqZYI1B0cFolDDxiEwn2onkBN+i24ShKfT6j1EG8ouEsJ3CK3neQNQzZ+ZMjjxsJS895bkcfuhBZIkNrTEI02tKgW0JbWR8mHCRHHr7siq2Cd+iAPc+8BC/+t0N/PwX13LH3ffx1KrVOEBMijEWI2CtGbyhWjfJWAnL2mFh22+sreoWnKF2xzEep3rwNdq8PtpaqG8dcrBCJgOt4245D9azpIZTfobx6NO9Vddg5AGOfikMsl5x7y0518OznFyZM2+MoZnnGGDOrE72Wr6MY555FEc/7VB2X7YboURMgVfwGATBDhPddp87suVMDpEUCWsuBtBWQYWQ4QFhbfLeh57gpltu4+Zbb+e2O+/moUcfZ82adQwM1Cmcw6vihk29N0r5iVsDcVOnQMrK2+r9BsXJ2KH6i4Pja5igle807EnDKD2P1hrQEK6xHuKC4LUyYQTwYd+RDFoSCMYaVDYi/tuR1jTQl62GwzGOmBKKgvGD1905F9pElLIwuJtoubSieOfDF5zaUUpmTOgpPvyLpd3so931b1ljrfOpw8SshRBes/UFrQx98W6S8tqZMiwnSS3VSsLsmTPZaeEC9txjOfuv2JuDV+zN0l0XYVv58uoovIQyZyF+HBgyLCLjz4SL5MZY/5tRBwdBf6NBT28fPT11HnviSVatWsOadevor9dxbW7mkUi5vpmmCdba9sI3OFAgTVKSJCkHw8i9gohmaVkyrBW0q8MsVRESY8jSdL3nhfTMUhtsKDuG8cjI7BY1qBqMEdI0RaSMEBhxMNqybsoBbhOLTSdHaTrnQy+coijK3jvBBhqOquCl9WUT9nWuQMyIz6kCCOq13MeV52zkxbEUzlHkRXB4UE5Lh6Gq1Ov19R5rPU55xxXOURTFKDFtfSG27h/1nkaRUzi3SatSyvXDjo4a3d3dzJk9m50WzGFGdyddHTW6atWhnVszhA3cp5Fty6QWyXaUhmfrX+XP6XDzTKfPEtk0Q1/6o699y9pmsB1KZOKYMiLZ8tipDllQwWIqYylLY3NT3+AtBj+0DrtFx/bUtoT3HTqVI297aG+Faqn6YcZWLheM2G/IImXwFdu81KghpwSLczKgI2QhMFoAhv4+7Ay2/bA6uCwRTsvonXTYG7Zu83Zrne2GgEi4y1pBOEGxRu41gta1HPn4BhhcmCmfN3i4w45xrK8V2XZMGZFsCUjLklTV4JYo77PWY2O9rQbvw9a0WNe/OQf/WL7eqD9tgNbZlNZBhUfX+zGc1jtoKQZhajlyRxk8jsFpYBtRWJ/w9zGvkW1jyss04uqsL5Lho7XO9/Bzt/5naO23/jXxI3dDpVzjLatxA9jRujzqqEYy/N4bTrjnNvzvjVN6sDU8UVu3YLn2PHQjbfzYItueKSeSQ//e0P2z+R9n5GtPLFt5HK2P316VJpbW8Wz1cWmb62xGP7TJL5KJZPiFGv6zfHxQJNuqemQ7MmVEMhKJRCaC+DUViUQiGyGKZCQSiWyEKJKRSCSyEaJIRiKRyEaIIhmJRCIbIYpkJBKJbIQokpFIJLIR/n/FWMQm4lgvhQAAAABJRU5ErkJggg==;fillColor=#5D7F99;strokeColor=#D0CEE2;fontColor=#1A1A1A;" parent="1" vertex="1">
          <mxGeometry x="1905.84" y="397.28999999999996" width="44.86" height="54" as="geometry" />
        </mxCell>
        <mxCell id="-vDkSpopNp2jIgzfbwmz-31" value="&lt;b&gt;INGESTION&lt;/b&gt;" style="text;html=1;align=center;verticalAlign=middle;resizable=0;points=[];autosize=1;strokeColor=none;fillColor=none;labelBackgroundColor=none;fontColor=#1A1A1A;" parent="1" vertex="1">
          <mxGeometry x="1695.84" y="167" width="84" height="26" as="geometry" />
        </mxCell>
        <mxCell id="-vDkSpopNp2jIgzfbwmz-32" value="" style="shape=image;verticalLabelPosition=bottom;labelBackgroundColor=none;verticalAlign=top;aspect=fixed;imageAspect=0;image=https://cdn-icons-png.flaticon.com/512/8365/8365406.png;fillColor=#5D7F99;strokeColor=#D0CEE2;fontColor=#1A1A1A;" parent="1" vertex="1">
          <mxGeometry x="2034.01" y="407.5" width="67.67" height="67.67" as="geometry" />
        </mxCell>
        <mxCell id="-vDkSpopNp2jIgzfbwmz-33" value="&lt;font color=&quot;#000000&quot;&gt;&lt;b&gt;ML SERVING / PREDICTION&lt;/b&gt;&lt;/font&gt;" style="text;html=1;align=center;verticalAlign=middle;resizable=0;points=[];autosize=1;strokeColor=none;fillColor=none;labelBackgroundColor=none;fontColor=#1A1A1A;" parent="1" vertex="1">
          <mxGeometry x="1895.79" y="533.35" width="176" height="26" as="geometry" />
        </mxCell>
        <mxCell id="-vDkSpopNp2jIgzfbwmz-34" style="edgeStyle=none;rounded=0;orthogonalLoop=1;jettySize=auto;html=1;entryX=1;entryY=0.25;entryDx=0;entryDy=0;strokeColor=#000000;" parent="1" source="-vDkSpopNp2jIgzfbwmz-35" target="-vDkSpopNp2jIgzfbwmz-39" edge="1">
          <mxGeometry relative="1" as="geometry" />
        </mxCell>
        <mxCell id="-vDkSpopNp2jIgzfbwmz-35" value="&lt;font color=&quot;#000000&quot;&gt;&lt;b&gt;ML MODEL TRAINING&lt;/b&gt;&lt;/font&gt;" style="text;html=1;align=center;verticalAlign=middle;resizable=0;points=[];autosize=1;strokeColor=none;fillColor=none;labelBackgroundColor=none;fontColor=#1A1A1A;" parent="1" vertex="1">
          <mxGeometry x="1999.3399999999997" y="385" width="143" height="26" as="geometry" />
        </mxCell>
        <mxCell id="-vDkSpopNp2jIgzfbwmz-36" style="edgeStyle=orthogonalEdgeStyle;rounded=0;orthogonalLoop=1;jettySize=auto;html=1;exitX=0.5;exitY=1;exitDx=0;exitDy=0;exitPerimeter=0;entryX=0.5;entryY=0;entryDx=0;entryDy=0;strokeColor=#000000;fontColor=#1A1A1A;" parent="1" source="-vDkSpopNp2jIgzfbwmz-37" target="-vDkSpopNp2jIgzfbwmz-20" edge="1">
          <mxGeometry relative="1" as="geometry" />
        </mxCell>
        <mxCell id="-vDkSpopNp2jIgzfbwmz-37" value="" style="outlineConnect=0;dashed=0;verticalLabelPosition=bottom;verticalAlign=top;align=center;html=1;shape=mxgraph.aws3.s3;fillColor=#E05243;gradientColor=none;strokeColor=#D0CEE2;fontColor=#1A1A1A;" parent="1" vertex="1">
          <mxGeometry x="1591.84" y="251" width="46" height="47" as="geometry" />
        </mxCell>
        <mxCell id="-vDkSpopNp2jIgzfbwmz-38" style="rounded=0;orthogonalLoop=1;jettySize=auto;html=1;exitX=0;exitY=0.5;exitDx=0;exitDy=0;strokeColor=#000000;fontColor=#1A1A1A;" parent="1" source="-vDkSpopNp2jIgzfbwmz-39" target="-vDkSpopNp2jIgzfbwmz-28" edge="1">
          <mxGeometry relative="1" as="geometry" />
        </mxCell>
        <mxCell id="-vDkSpopNp2jIgzfbwmz-39" value="" style="shape=image;verticalLabelPosition=bottom;labelBackgroundColor=default;verticalAlign=top;aspect=fixed;imageAspect=0;image=https://www.impulsmap.fr/wp-content/uploads/2016/07/LogoPostgreSql100reel.png;" parent="1" vertex="1">
          <mxGeometry x="1840.8400000000001" y="280" width="54.95" height="61" as="geometry" />
        </mxCell>
        <mxCell id="-vDkSpopNp2jIgzfbwmz-40" value="&lt;b&gt;S3&lt;/b&gt;" style="text;html=1;align=center;verticalAlign=middle;resizable=0;points=[];autosize=1;strokeColor=none;fillColor=none;labelBackgroundColor=none;fontColor=#1A1A1A;" parent="1" vertex="1">
          <mxGeometry x="1598.5" y="232" width="33" height="26" as="geometry" />
        </mxCell>
        <mxCell id="-vDkSpopNp2jIgzfbwmz-41" value="" style="shape=image;verticalLabelPosition=bottom;labelBackgroundColor=default;verticalAlign=top;aspect=fixed;imageAspect=0;image=https://upload.wikimedia.org/wikipedia/commons/f/f3/Apache_Spark_logo.svg;" parent="1" vertex="1">
          <mxGeometry x="1374.84" y="368.76" width="74.63" height="38.74" as="geometry" />
        </mxCell>
        <mxCell id="-vDkSpopNp2jIgzfbwmz-42" value="" style="rounded=0;orthogonalLoop=1;jettySize=auto;html=1;exitX=1;exitY=0.5;exitDx=0;exitDy=0;strokeColor=#000000;fontColor=#1A1A1A;" parent="1" source="-vDkSpopNp2jIgzfbwmz-39" target="-vDkSpopNp2jIgzfbwmz-43" edge="1">
          <mxGeometry relative="1" as="geometry">
            <mxPoint x="1895.84" y="311" as="sourcePoint" />
            <mxPoint x="1928.84" y="366" as="targetPoint" />
            <Array as="points" />
          </mxGeometry>
        </mxCell>
        <mxCell id="-vDkSpopNp2jIgzfbwmz-43" value="&lt;font color=&quot;#000000&quot;&gt;&lt;b&gt;TRANSACTIONAL &lt;br&gt;APP&lt;/b&gt;&lt;/font&gt;" style="text;html=1;align=center;verticalAlign=middle;resizable=0;points=[];autosize=1;strokeColor=none;fillColor=none;labelBackgroundColor=none;fontColor=#1A1A1A;" parent="1" vertex="1">
          <mxGeometry x="1862.84" y="356.28999999999996" width="121" height="41" as="geometry" />
        </mxCell>
        <mxCell id="-vDkSpopNp2jIgzfbwmz-44" value="&lt;b&gt;ETL PROCESS&lt;/b&gt;" style="text;html=1;align=center;verticalAlign=middle;resizable=0;points=[];autosize=1;strokeColor=none;fillColor=none;labelBackgroundColor=none;fontColor=#1A1A1A;" parent="1" vertex="1">
          <mxGeometry x="1364" y="346" width="102" height="26" as="geometry" />
        </mxCell>
        <mxCell id="-vDkSpopNp2jIgzfbwmz-45" value="&lt;b&gt;EXTERNALS SYSTEMS&lt;/b&gt;" style="text;html=1;align=center;verticalAlign=middle;resizable=0;points=[];autosize=1;strokeColor=none;fillColor=none;labelBackgroundColor=none;fontColor=#1A1A1A;" parent="1" vertex="1">
          <mxGeometry x="1470.8400000000001" y="431" width="151" height="26" as="geometry" />
        </mxCell>
        <mxCell id="-vDkSpopNp2jIgzfbwmz-46" value="" style="html=1;dashed=0;whiteSpace=wrap;shape=mxgraph.dfd.externalEntity;strokeColor=#D0CEE2;fontColor=#1A1A1A;fillColor=#5D7F99;" parent="1" vertex="1">
          <mxGeometry x="1506.84" y="450" width="48.25" height="41" as="geometry" />
        </mxCell>
        <mxCell id="-vDkSpopNp2jIgzfbwmz-47" value="Id" style="autosize=1;part=1;resizable=0;strokeColor=inherit;fillColor=inherit;gradientColor=inherit;fontColor=#1A1A1A;" parent="-vDkSpopNp2jIgzfbwmz-46" vertex="1">
          <mxGeometry width="20" height="20" relative="1" as="geometry">
            <mxPoint x="15" y="15" as="offset" />
          </mxGeometry>
        </mxCell>
        <mxCell id="-vDkSpopNp2jIgzfbwmz-48" style="edgeStyle=orthogonalEdgeStyle;rounded=0;orthogonalLoop=1;jettySize=auto;html=1;entryX=-0.015;entryY=0.6;entryDx=0;entryDy=0;entryPerimeter=0;strokeColor=#000000;fontColor=#1A1A1A;" parent="1" source="-vDkSpopNp2jIgzfbwmz-41" target="-vDkSpopNp2jIgzfbwmz-26" edge="1">
          <mxGeometry relative="1" as="geometry">
            <Array as="points">
              <mxPoint x="1411.84" y="507" />
            </Array>
          </mxGeometry>
        </mxCell>
        <mxCell id="-vDkSpopNp2jIgzfbwmz-49" value="data transformed for analysis" style="edgeLabel;align=center;verticalAlign=middle;resizable=0;points=[];strokeColor=#D0CEE2;fontColor=#1A1A1A;fillColor=#5D7F99;labelBackgroundColor=#A9C4EB;fontSize=8;" parent="-vDkSpopNp2jIgzfbwmz-48" vertex="1" connectable="0">
          <mxGeometry x="-0.2683" relative="1" as="geometry">
            <mxPoint x="77" as="offset" />
          </mxGeometry>
        </mxCell>
        <mxCell id="-vDkSpopNp2jIgzfbwmz-50" style="edgeStyle=none;rounded=0;orthogonalLoop=1;jettySize=auto;html=1;entryX=0.546;entryY=-0.09;entryDx=0;entryDy=0;entryPerimeter=0;strokeColor=#000000;fontColor=#1A1A1A;" parent="1" target="-vDkSpopNp2jIgzfbwmz-33" edge="1">
          <mxGeometry relative="1" as="geometry">
            <mxPoint x="2057.84" y="478" as="sourcePoint" />
          </mxGeometry>
        </mxCell>
        <mxCell id="-vDkSpopNp2jIgzfbwmz-51" style="rounded=0;orthogonalLoop=1;jettySize=auto;html=1;exitX=0.25;exitY=1;exitDx=0;exitDy=0;strokeColor=#000000;fontColor=#1A1A1A;" parent="1" edge="1">
          <mxGeometry relative="1" as="geometry">
            <mxPoint x="1952.6300000000003" y="588" as="sourcePoint" />
            <mxPoint x="1939.84" y="602" as="targetPoint" />
          </mxGeometry>
        </mxCell>
        <mxCell id="-vDkSpopNp2jIgzfbwmz-52" style="edgeStyle=none;rounded=0;orthogonalLoop=1;jettySize=auto;html=1;exitX=1;exitY=1;exitDx=0;exitDy=0;strokeColor=#000000;fontColor=#1A1A1A;" parent="1" edge="1">
          <mxGeometry relative="1" as="geometry">
            <mxPoint x="2014.76" y="588" as="sourcePoint" />
            <mxPoint x="2024.84" y="602" as="targetPoint" />
          </mxGeometry>
        </mxCell>
        <mxCell id="-vDkSpopNp2jIgzfbwmz-53" value="&lt;b&gt;ENCRYPTION, ACCESS CONTROL,&lt;br&gt;MONITORING&lt;/b&gt;" style="text;html=1;align=center;verticalAlign=middle;resizable=0;points=[];autosize=1;strokeColor=none;fillColor=none;labelBackgroundColor=none;fontColor=#1A1A1A;" parent="1" vertex="1">
          <mxGeometry x="2059.0000000000005" y="98" width="218" height="41" as="geometry" />
        </mxCell>
        <mxCell id="-vDkSpopNp2jIgzfbwmz-54" value="" style="ellipse;whiteSpace=wrap;html=1;strokeColor=#D0CEE2;fontColor=#1A1A1A;fillColor=#A9C4EB;" parent="1" vertex="1">
          <mxGeometry x="1218" y="10" width="227" height="135" as="geometry" />
        </mxCell>
        <mxCell id="-vDkSpopNp2jIgzfbwmz-55" value="&lt;b&gt;MODEL MONITORING AND &lt;br&gt;ALERTING&lt;/b&gt;" style="text;html=1;align=center;verticalAlign=middle;resizable=0;points=[];autosize=1;strokeColor=none;fillColor=none;labelBackgroundColor=none;fontColor=#1A1A1A;" parent="1" vertex="1">
          <mxGeometry x="1241.9999999999998" y="25" width="171" height="41" as="geometry" />
        </mxCell>
        <mxCell id="-vDkSpopNp2jIgzfbwmz-56" style="edgeStyle=none;rounded=0;orthogonalLoop=1;jettySize=auto;html=1;fontColor=#1A1A1A;strokeColor=#000000;entryX=0.072;entryY=0.238;entryDx=0;entryDy=0;entryPerimeter=0;" parent="1" source="-vDkSpopNp2jIgzfbwmz-57" target="-vDkSpopNp2jIgzfbwmz-2" edge="1">
          <mxGeometry relative="1" as="geometry">
            <mxPoint x="1417.3890999690311" y="200.63532523732647" as="targetPoint" />
          </mxGeometry>
        </mxCell>
        <mxCell id="-vDkSpopNp2jIgzfbwmz-57" value="&lt;b&gt;PERFORMANCE MONITORING&lt;/b&gt;" style="text;html=1;align=center;verticalAlign=middle;resizable=0;points=[];autosize=1;strokeColor=none;fillColor=none;labelBackgroundColor=none;fontColor=#1A1A1A;" parent="1" vertex="1">
          <mxGeometry x="1239" y="145" width="193" height="26" as="geometry" />
        </mxCell>
        <mxCell id="-vDkSpopNp2jIgzfbwmz-58" style="edgeStyle=none;rounded=0;orthogonalLoop=1;jettySize=auto;html=1;fontColor=#1A1A1A;fontStyle=0;strokeColor=#000000;" parent="1" edge="1">
          <mxGeometry relative="1" as="geometry">
            <mxPoint x="2118" y="117" as="sourcePoint" />
            <mxPoint x="2084.84" y="148" as="targetPoint" />
          </mxGeometry>
        </mxCell>
        <mxCell id="-vDkSpopNp2jIgzfbwmz-59" value="" style="shape=image;verticalLabelPosition=bottom;labelBackgroundColor=default;verticalAlign=top;aspect=fixed;imageAspect=0;image=https://cdn.prod.website-files.com/660ef16a9e0687d9cc2746d7/66180fbf4f40e9ed73ca2d39_evidently_ai_logo_fi.png;" parent="1" vertex="1">
          <mxGeometry x="1260" y="56" width="107.25" height="32" as="geometry" />
        </mxCell>
        <mxCell id="-vDkSpopNp2jIgzfbwmz-60" value="" style="shape=image;verticalLabelPosition=bottom;labelBackgroundColor=default;verticalAlign=top;aspect=fixed;imageAspect=0;image=https://upload.wikimedia.org/wikipedia/commons/thumb/d/de/AirflowLogo.png/800px-AirflowLogo.png;" parent="1" vertex="1">
          <mxGeometry x="1255.84" y="88" width="103.56" height="40" as="geometry" />
        </mxCell>
        <mxCell id="-vDkSpopNp2jIgzfbwmz-61" value="" style="shape=image;verticalLabelPosition=bottom;labelBackgroundColor=default;verticalAlign=top;aspect=fixed;imageAspect=0;image=https://upload.wikimedia.org/wikipedia/commons/e/e9/Jenkins_logo.svg;" parent="1" vertex="1">
          <mxGeometry x="1367.25" y="62" width="43.1" height="59.5" as="geometry" />
        </mxCell>
        <mxCell id="-vDkSpopNp2jIgzfbwmz-62" value="" style="shape=image;verticalLabelPosition=bottom;labelBackgroundColor=default;verticalAlign=top;aspect=fixed;imageAspect=0;image=https://signup.snowflake.com/static/images/logo-sno-blue.svg;" parent="1" vertex="1">
          <mxGeometry x="1583.1399999999999" y="513" width="95.7" height="22" as="geometry" />
        </mxCell>
        <mxCell id="-vDkSpopNp2jIgzfbwmz-63" value="raw data storage" style="edgeLabel;align=center;verticalAlign=middle;resizable=0;points=[];strokeColor=#D0CEE2;fontColor=#1A1A1A;fillColor=#5D7F99;labelBackgroundColor=#A9C4EB;fontSize=8;" parent="1" vertex="1" connectable="0">
          <mxGeometry x="1657.84176465676" y="205.24988073699745" as="geometry" />
        </mxCell>
        <mxCell id="-vDkSpopNp2jIgzfbwmz-64" value="" style="edgeLabel;align=center;verticalAlign=middle;resizable=0;points=[];strokeColor=#D0CEE2;fontColor=#1A1A1A;fillColor=#5D7F99;labelBackgroundColor=#A9C4EB;fontSize=7;" parent="1" vertex="1" connectable="0">
          <mxGeometry x="1719.84176465676" y="308.99988073699745" as="geometry">
            <mxPoint x="7" y="-2" as="offset" />
          </mxGeometry>
        </mxCell>
        <mxCell id="-vDkSpopNp2jIgzfbwmz-65" style="edgeStyle=orthogonalEdgeStyle;rounded=0;orthogonalLoop=1;jettySize=auto;html=1;exitX=0;exitY=0.5;exitDx=0;exitDy=0;exitPerimeter=0;entryX=0.535;entryY=0.082;entryDx=0;entryDy=0;entryPerimeter=0;strokeColor=#000000;fontColor=#1A1A1A;" parent="1" source="-vDkSpopNp2jIgzfbwmz-37" target="-vDkSpopNp2jIgzfbwmz-44" edge="1">
          <mxGeometry relative="1" as="geometry">
            <Array as="points">
              <mxPoint x="1419" y="275" />
              <mxPoint x="1419" y="340" />
            </Array>
          </mxGeometry>
        </mxCell>
        <mxCell id="-vDkSpopNp2jIgzfbwmz-66" value="" style="edgeLabel;align=center;verticalAlign=middle;resizable=0;points=[];strokeColor=#D0CEE2;fontColor=#1A1A1A;fillColor=#5D7F99;labelBackgroundColor=#A9C4EB;fontSize=8;" parent="1" vertex="1" connectable="0">
          <mxGeometry x="1501.841428281625" y="274.50457281808394" as="geometry">
            <mxPoint x="-3" as="offset" />
          </mxGeometry>
        </mxCell>
        <mxCell id="-vDkSpopNp2jIgzfbwmz-67" style="edgeStyle=orthogonalEdgeStyle;rounded=0;orthogonalLoop=1;jettySize=auto;html=1;exitX=0.5;exitY=1;exitDx=0;exitDy=0;entryX=0.454;entryY=0.146;entryDx=0;entryDy=0;entryPerimeter=0;strokeColor=#000000;fontColor=#1A1A1A;" parent="1" source="-vDkSpopNp2jIgzfbwmz-62" target="-vDkSpopNp2jIgzfbwmz-25" edge="1">
          <mxGeometry relative="1" as="geometry" />
        </mxCell>
        <mxCell id="-vDkSpopNp2jIgzfbwmz-68" style="edgeStyle=none;rounded=0;orthogonalLoop=1;jettySize=auto;html=1;exitX=0.5;exitY=1;exitDx=0;exitDy=0;entryX=0.417;entryY=0.205;entryDx=0;entryDy=0;entryPerimeter=0;strokeColor=#000000;fontColor=#1A1A1A;" parent="1" source="-vDkSpopNp2jIgzfbwmz-20" target="-vDkSpopNp2jIgzfbwmz-45" edge="1">
          <mxGeometry relative="1" as="geometry" />
        </mxCell>
        <mxCell id="-vDkSpopNp2jIgzfbwmz-69" value="standardized data sync" style="edgeLabel;align=center;verticalAlign=middle;resizable=0;points=[];strokeColor=#D0CEE2;fontColor=#1A1A1A;fillColor=#5D7F99;labelBackgroundColor=#A9C4EB;fontSize=8;" parent="1" vertex="1" connectable="0">
          <mxGeometry x="1537.8399999695246" y="411.00404957833484" as="geometry" />
        </mxCell>
        <mxCell id="-vDkSpopNp2jIgzfbwmz-70" style="edgeStyle=orthogonalEdgeStyle;rounded=0;orthogonalLoop=1;jettySize=auto;html=1;exitX=1;exitY=0.79;exitDx=0;exitDy=0;exitPerimeter=0;entryX=0.064;entryY=0.12;entryDx=0;entryDy=0;entryPerimeter=0;strokeColor=#000000;fontColor=#1A1A1A;" parent="1" source="-vDkSpopNp2jIgzfbwmz-37" target="-vDkSpopNp2jIgzfbwmz-39" edge="1">
          <mxGeometry relative="1" as="geometry" />
        </mxCell>
        <mxCell id="-vDkSpopNp2jIgzfbwmz-71" style="edgeStyle=orthogonalEdgeStyle;rounded=0;orthogonalLoop=1;jettySize=auto;html=1;exitX=1;exitY=0.21;exitDx=0;exitDy=0;exitPerimeter=0;entryX=0.557;entryY=-0.026;entryDx=0;entryDy=0;entryPerimeter=0;strokeColor=#000000;fontColor=#1A1A1A;" parent="1" source="-vDkSpopNp2jIgzfbwmz-37" target="-vDkSpopNp2jIgzfbwmz-14" edge="1">
          <mxGeometry relative="1" as="geometry" />
        </mxCell>
        <mxCell id="-vDkSpopNp2jIgzfbwmz-72" value="real-time transaction data" style="edgeLabel;align=center;verticalAlign=middle;resizable=0;points=[];strokeColor=#D0CEE2;fontColor=#1A1A1A;fillColor=#5D7F99;labelBackgroundColor=#A9C4EB;fontSize=8;" parent="1" vertex="1" connectable="0">
          <mxGeometry x="1727.8399999695246" y="287.00404957833473" as="geometry" />
        </mxCell>
        <mxCell id="-vDkSpopNp2jIgzfbwmz-73" value="unstructured data" style="edgeLabel;align=center;verticalAlign=middle;resizable=0;points=[];strokeColor=#D0CEE2;fontColor=#1A1A1A;fillColor=#5D7F99;labelBackgroundColor=#A9C4EB;fontSize=8;" parent="1" vertex="1" connectable="0">
          <mxGeometry x="1963.8399999695246" y="260.00404957833473" as="geometry" />
        </mxCell>
        <mxCell id="-vDkSpopNp2jIgzfbwmz-74" value="versioned models &amp; parameters" style="edgeLabel;align=center;verticalAlign=middle;resizable=0;points=[];strokeColor=#D0CEE2;fontColor=#1A1A1A;fillColor=#5D7F99;labelBackgroundColor=#A9C4EB;fontSize=8;" parent="1" vertex="1" connectable="0">
          <mxGeometry x="2028.8399999695246" y="504.00404957833473" as="geometry" />
        </mxCell>
        <mxCell id="-vDkSpopNp2jIgzfbwmz-75" value="training features &amp; historical data" style="edgeLabel;align=center;verticalAlign=middle;resizable=0;points=[];strokeColor=#D0CEE2;fontColor=#1A1A1A;fillColor=#5D7F99;labelBackgroundColor=#A9C4EB;fontSize=8;" parent="1" vertex="1" connectable="0">
          <mxGeometry x="2077.839999969525" y="361.00404957833473" as="geometry" />
        </mxCell>
        <mxCell id="-vDkSpopNp2jIgzfbwmz-76" value="" style="edgeLabel;align=center;verticalAlign=middle;resizable=0;points=[];strokeColor=#D0CEE2;fontColor=#1A1A1A;fillColor=#5D7F99;labelBackgroundColor=#A9C4EB;fontSize=8;" parent="1" vertex="1" connectable="0">
          <mxGeometry x="1918.8399999695246" y="346.00404957833473" as="geometry">
            <mxPoint x="3" y="-4" as="offset" />
          </mxGeometry>
        </mxCell>
        <mxCell id="-vDkSpopNp2jIgzfbwmz-77" value="" style="ellipse;whiteSpace=wrap;html=1;strokeColor=#D0CEE2;fontColor=#1A1A1A;fillColor=#A9C4EB;" parent="1" vertex="1">
          <mxGeometry x="2166.5" y="154" width="142" height="96" as="geometry" />
        </mxCell>
        <mxCell id="-vDkSpopNp2jIgzfbwmz-78" value="&lt;b&gt;CDC&lt;/b&gt;" style="text;html=1;align=center;verticalAlign=middle;resizable=0;points=[];autosize=1;strokeColor=none;fillColor=none;labelBackgroundColor=none;fontColor=#1A1A1A;" parent="1" vertex="1">
          <mxGeometry x="2220" y="168" width="44" height="26" as="geometry" />
        </mxCell>
        <mxCell id="-vDkSpopNp2jIgzfbwmz-79" style="edgeStyle=none;rounded=0;orthogonalLoop=1;jettySize=auto;html=1;fontColor=#1A1A1A;fontStyle=0;strokeColor=#000000;" parent="1" edge="1">
          <mxGeometry relative="1" as="geometry">
            <mxPoint x="2173.84" y="226" as="sourcePoint" />
            <mxPoint x="2142.84" y="247" as="targetPoint" />
          </mxGeometry>
        </mxCell>
        <mxCell id="-vDkSpopNp2jIgzfbwmz-80" value="" style="shape=image;verticalLabelPosition=bottom;labelBackgroundColor=default;verticalAlign=top;aspect=fixed;imageAspect=0;image=https://debezium.io/assets/images/color_black_debezium_type_1200px.png;" parent="1" vertex="1">
          <mxGeometry x="2178.84" y="181.63" width="113.45" height="59.37" as="geometry" />
        </mxCell>
        <mxCell id="-vDkSpopNp2jIgzfbwmz-81" style="edgeStyle=orthogonalEdgeStyle;rounded=0;orthogonalLoop=1;jettySize=auto;html=1;exitX=0.5;exitY=1;exitDx=0;exitDy=0;strokeColor=#736CA8;fontColor=#1A1A1A;" parent="1" source="-vDkSpopNp2jIgzfbwmz-2" target="-vDkSpopNp2jIgzfbwmz-2" edge="1">
          <mxGeometry relative="1" as="geometry" />
        </mxCell>
        <mxCell id="dqMR3nC8wDKm2EQoesUq-2" style="edgeStyle=none;rounded=0;orthogonalLoop=1;jettySize=auto;html=1;entryX=0;entryY=0.79;entryDx=0;entryDy=0;entryPerimeter=0;exitX=0.725;exitY=-0.038;exitDx=0;exitDy=0;exitPerimeter=0;strokeColor=#000000;" edge="1" parent="1" source="-vDkSpopNp2jIgzfbwmz-44" target="-vDkSpopNp2jIgzfbwmz-37">
          <mxGeometry relative="1" as="geometry">
            <Array as="points">
              <mxPoint x="1438" y="288" />
            </Array>
          </mxGeometry>
        </mxCell>
      </root>
    </mxGraphModel>
  </diagram>
</mxfile>
